<?xml version="1.0" encoding="utf-8"?>
<!-- Generator: Adobe Illustrator 16.0.0, SVG Export Plug-In . SVG Version: 6.00 Build 0)  -->
<!DOCTYPE svg PUBLIC "-//W3C//DTD SVG 1.1//EN" "http://www.w3.org/Graphics/SVG/1.1/DTD/svg11.dtd">
<svg version="1.1" id="Layer_1" xmlns="http://www.w3.org/2000/svg" xmlns:xlink="http://www.w3.org/1999/xlink" x="0px" y="0px"
	 width="8px" height="11px" viewBox="0 0 8 11" enable-background="new 0 0 8 11" xml:space="preserve">
<g>
	<path fill-rule="evenodd" clip-rule="evenodd" fill="#D7C3CD" d="M0.2,0.7c0.167-0.4,0.566-0.467,1.2-0.2
		c1.267,0.533,2.217,0.983,2.85,1.35c1.1,0.6,2.05,1.3,2.85,2.1c0.2,0.2,0.351,0.4,0.45,0.6C7.884,4.95,8,5.383,7.9,5.85
		c-0.233,0.633-0.65,1.167-1.25,1.6C6.316,7.717,5.934,8,5.5,8.3c-1.2,0.834-2.567,1.566-4.1,2.2c-0.633,0.267-1.033,0.217-1.2-0.15
		c-0.233-0.3-0.117-0.683,0.35-1.149L3.7,6.45c0.366-0.233,0.55-0.534,0.55-0.9C4.217,5.217,4.033,4.9,3.7,4.6L0.55,1.8
		C0.083,1.367-0.033,1,0.2,0.7z"/>
</g>
</svg>
