<?xml version="1.0" encoding="utf-8"?>
<!-- Generator: Adobe Illustrator 16.0.0, SVG Export Plug-In . SVG Version: 6.00 Build 0)  -->
<!DOCTYPE svg PUBLIC "-//W3C//DTD SVG 1.1//EN" "http://www.w3.org/Graphics/SVG/1.1/DTD/svg11.dtd">
<svg version="1.1" id="Layer_1" xmlns="http://www.w3.org/2000/svg" xmlns:xlink="http://www.w3.org/1999/xlink" x="0px" y="0px"
	 width="15px" height="14px" viewBox="0 0 15 14" enable-background="new 0 0 15 14" xml:space="preserve">
<g>
	<path fill-rule="evenodd" clip-rule="evenodd" fill="#FFFFFF" d="M12.35,1.1c0.801-0.8,1.467-1,2-0.6
		c0.601,0.3,0.667,0.983,0.2,2.05c-1.066,2.6-2.316,4.934-3.75,7c-0.5,0.733-0.983,1.384-1.45,1.95
		C8.616,12.533,7.7,13.25,6.6,13.65c-0.7,0.166-1.383,0.017-2.05-0.45v0.05c-0.1-0.1-0.216-0.2-0.35-0.3
		C4.133,12.917,4.067,12.884,4,12.85V12.8C2.9,11.434,2.167,10.467,1.8,9.9C1.367,9.233,0.883,8.267,0.35,7
		c-0.333-0.9-0.267-1.5,0.2-1.8C1.017,4.933,1.567,5.117,2.2,5.75L5,7.85c0,0.067,0.033,0.134,0.1,0.2c0.6,0.334,1.45-0.2,2.55-1.6
		L12.35,1.1z"/>
</g>
</svg>
