<?xml version="1.0" encoding="utf-8"?>
<!-- Generator: Adobe Illustrator 16.0.0, SVG Export Plug-In . SVG Version: 6.00 Build 0)  -->
<!DOCTYPE svg PUBLIC "-//W3C//DTD SVG 1.1//EN" "http://www.w3.org/Graphics/SVG/1.1/DTD/svg11.dtd">
<svg version="1.1" id="Layer_1" xmlns="http://www.w3.org/2000/svg" xmlns:xlink="http://www.w3.org/1999/xlink" x="0px" y="0px"
	 width="11px" height="8px" viewBox="0 0 11 8" enable-background="new 0 0 11 8" xml:space="preserve">
<g>
	<path fill-rule="evenodd" clip-rule="evenodd" fill="#D7C3CD" d="M10.35,0.2c0.367,0.167,0.417,0.566,0.15,1.2
		C9.867,2.933,9.133,4.3,8.3,5.5C8,5.934,7.717,6.316,7.45,6.65C7.017,7.25,6.483,7.667,5.85,7.9C5.383,8,4.95,7.884,4.55,7.55
		c-0.2-0.1-0.4-0.25-0.6-0.45c-0.8-0.8-1.5-1.75-2.1-2.85C1.483,3.617,1.033,2.667,0.5,1.4C0.233,0.767,0.3,0.367,0.7,0.2
		C1-0.033,1.367,0.083,1.8,0.55L4.6,3.7c0.3,0.333,0.617,0.517,0.95,0.55c0.367,0,0.667-0.184,0.9-0.55L9.2,0.55
		C9.667,0.083,10.05-0.033,10.35,0.2z"/>
</g>
</svg>
