<?xml version="1.0" encoding="utf-8"?>
<!-- Generator: Adobe Illustrator 16.0.0, SVG Export Plug-In . SVG Version: 6.00 Build 0)  -->
<!DOCTYPE svg PUBLIC "-//W3C//DTD SVG 1.1//EN" "http://www.w3.org/Graphics/SVG/1.1/DTD/svg11.dtd">
<svg version="1.1" id="Layer_1" xmlns="http://www.w3.org/2000/svg" xmlns:xlink="http://www.w3.org/1999/xlink" x="0px" y="0px"
	 width="71px" height="71px" viewBox="0 0 71 71" enable-background="new 0 0 71 71" xml:space="preserve">
<g>
	<path fill-rule="evenodd" clip-rule="evenodd" fill="#D7C3CD" d="M10.4,10.45C17.333,3.55,25.7,0.1,35.5,0.1
		s18.15,3.45,25.05,10.35c6.934,6.933,10.4,15.283,10.4,25.05c0,9.8-3.467,18.15-10.4,25.05c-6.899,6.934-15.25,10.4-25.05,10.4
		s-18.167-3.467-25.1-10.4C3.5,53.65,0.05,45.3,0.05,35.5C0.05,25.733,3.5,17.383,10.4,10.45z M35.5,1
		c-9.533,0-17.684,3.367-24.45,10.1C4.35,17.833,1,25.967,1,35.5c0,9.566,3.35,17.7,10.05,24.4
		C17.816,66.667,25.967,70.05,35.5,70.05S53.167,66.667,59.9,59.9C66.634,53.2,70,45.066,70,35.5c0-9.533-3.366-17.667-10.1-24.4
		S45.033,1,35.5,1z M52.25,26.6h5.05c0.8,0.1,1.2,0.55,1.2,1.35c-0.033,0.733-0.483,1.117-1.35,1.15H53.2L47.1,44.3
		c-0.767,1.601-2,2.434-3.699,2.5H24.85c-1.467,0.134-2.567-0.7-3.3-2.5l-4.05-10c-0.2-0.9,0.083-1.433,0.85-1.6
		c0.1-0.034,0.216-0.05,0.35-0.05c0.767-0.066,1.35,0.367,1.75,1.3l3.5,8.5c0.466,0.767,1.15,1.25,2.05,1.45l0.6,0.05h15.5
		c1.267-0.033,2.167-0.684,2.7-1.95l5.75-14.1C50.917,27.2,51.483,26.767,52.25,26.6z M36.45,26.25
		c0.133,0.467,0.184,0.833,0.149,1.1h3.45c0.733-1.533,0.684-2.567-0.149-3.1C38.833,23.617,37.684,24.283,36.45,26.25z
		 M41.55,22.35l0.05,0.05c0.2,0.1,0.367,0.233,0.5,0.4c1,0.9,1.084,2.417,0.25,4.55h2.601L42.7,42.3h-6.8V29.25h-3.05V42.3h-6.8
		L23.8,27.35h2.6c-0.833-2.133-0.75-3.65,0.25-4.55c0.133-0.167,0.3-0.3,0.5-0.4l0.05-0.05c1.933-0.934,4.3-0.167,7.1,2.3h0.15
		C37.25,22.184,39.616,21.417,41.55,22.35z M32.3,26.25c-1.233-1.967-2.383-2.633-3.45-2c-0.833,0.533-0.883,1.567-0.15,3.1h3.45
		C32.117,27.083,32.167,26.717,32.3,26.25z M24.4,52c0-1,0.35-1.85,1.05-2.55c0.7-0.7,1.566-1.05,2.6-1.05c1,0,1.85,0.35,2.55,1.05
		c0.7,0.7,1.05,1.55,1.05,2.55c0,1.033-0.35,1.9-1.05,2.6c-0.7,0.7-1.55,1.051-2.55,1.051c-1.033,0-1.9-0.351-2.6-1.051
		C24.75,53.9,24.4,53.033,24.4,52z M39.9,48.4c1,0,1.85,0.35,2.55,1.05S43.5,51,43.5,52c0,1.033-0.35,1.9-1.05,2.6
		c-0.7,0.7-1.55,1.051-2.55,1.051c-1.034,0-1.9-0.351-2.601-1.051c-0.7-0.699-1.05-1.566-1.05-2.6c0-1,0.35-1.85,1.05-2.55
		S38.866,48.4,39.9,48.4z"/>
</g>
</svg>
