<?xml version="1.0" encoding="utf-8"?>
<!-- Generator: Adobe Illustrator 16.0.0, SVG Export Plug-In . SVG Version: 6.00 Build 0)  -->
<!DOCTYPE svg PUBLIC "-//W3C//DTD SVG 1.1//EN" "http://www.w3.org/Graphics/SVG/1.1/DTD/svg11.dtd">
<svg version="1.1" id="Layer_1" xmlns="http://www.w3.org/2000/svg" xmlns:xlink="http://www.w3.org/1999/xlink" x="0px" y="0px"
	 width="24px" height="24px" viewBox="0 0 24 24" enable-background="new 0 0 24 24" xml:space="preserve">
<g>
	<g>
		<path fill-rule="evenodd" clip-rule="evenodd" fill="#D840AF" d="M21.45,8.25l-2,6.4c-0.4,1.133-1.101,1.716-2.101,1.75h-8.1
			c-0.133,0-0.283-0.017-0.45-0.051C8.267,16.25,7.867,16,7.6,15.6c-0.067-0.066-0.117-0.149-0.15-0.25l-3-9.6
			c0-0.3-0.067-0.55-0.2-0.75c-0.167-0.3-0.434-0.533-0.8-0.7c-0.2-0.1-0.4-0.167-0.6-0.2h-0.1C2.117,4,1.8,3.75,1.8,3.35
			S2.117,2.733,2.75,2.7h2.5C5.583,2.767,5.833,2.833,6,2.9c0.2,0.067,0.383,0.184,0.55,0.35L6.8,3.7l3.1,8.5
			c0.333,0.733,0.9,1.166,1.7,1.3h3.65c0.2-0.033,0.4-0.066,0.6-0.1c0.4-0.134,0.733-0.384,1-0.75c0.101-0.134,0.184-0.301,0.25-0.5
			l1.051-2.8c0.133-0.567-0.117-0.917-0.75-1.05l-3-0.3c-0.667-0.167-1-0.517-1-1.05c0-0.5,0.333-0.784,1-0.85h6.05
			c0.133,0,0.267,0.033,0.399,0.1c0.7,0.133,0.95,0.617,0.75,1.45C21.566,7.85,21.517,8.05,21.45,8.25z"/>
		<path fill-rule="evenodd" clip-rule="evenodd" fill="#CF44A7" d="M18.2,18.25c0.399,0.366,0.6,0.816,0.6,1.35
			c0,0.534-0.2,0.983-0.6,1.351c-0.367,0.399-0.817,0.6-1.351,0.6s-0.982-0.2-1.35-0.6c-0.367-0.367-0.55-0.816-0.55-1.351
			c0-0.533,0.183-0.983,0.55-1.35s0.816-0.55,1.35-0.55S17.833,17.884,18.2,18.25z M9.25,17.7c0.533,0,0.983,0.184,1.35,0.55
			c0.4,0.366,0.6,0.816,0.6,1.35c0,0.534-0.2,0.983-0.6,1.351c-0.367,0.399-0.817,0.6-1.35,0.6c-0.5,0-0.95-0.2-1.35-0.6
			c-0.367-0.367-0.55-0.816-0.55-1.351c0-0.533,0.183-0.983,0.55-1.35C8.3,17.884,8.75,17.7,9.25,17.7z"/>
	</g>
</g>
</svg>
