<?xml version="1.0" encoding="utf-8"?>
<!-- Generator: Adobe Illustrator 16.0.0, SVG Export Plug-In . SVG Version: 6.00 Build 0)  -->
<!DOCTYPE svg PUBLIC "-//W3C//DTD SVG 1.1//EN" "http://www.w3.org/Graphics/SVG/1.1/DTD/svg11.dtd">
<svg version="1.1" id="Layer_1" xmlns="http://www.w3.org/2000/svg" xmlns:xlink="http://www.w3.org/1999/xlink" x="0px" y="0px"
	 width="13px" height="13px" viewBox="0 0 13 13" enable-background="new 0 0 13 13" xml:space="preserve">
<g>
	<path fill-rule="evenodd" clip-rule="evenodd" fill="#D7C3CD" d="M0.75,0.75c0.3-0.3,0.65-0.433,1.05-0.4
		c0.4-0.033,0.75,0.1,1.05,0.4L6.5,4.4l3.65-3.65c0.3-0.3,0.649-0.433,1.05-0.4c0.399-0.033,0.75,0.1,1.05,0.4s0.434,0.65,0.4,1.05
		c0.033,0.4-0.101,0.75-0.4,1.05L8.6,6.5l3.601,3.6c0.3,0.301,0.45,0.65,0.45,1.051c0,0.399-0.15,0.75-0.45,1.05
		s-0.65,0.45-1.05,0.45c-0.4,0-0.75-0.15-1.051-0.45L6.5,8.6L2.9,12.2c-0.3,0.3-0.65,0.45-1.05,0.45S1.1,12.5,0.8,12.2
		c-0.3-0.3-0.45-0.65-0.45-1.05c0-0.4,0.15-0.75,0.45-1.051l3.6-3.6L0.75,2.85c-0.3-0.3-0.433-0.65-0.4-1.05
		C0.317,1.4,0.45,1.05,0.75,0.75z"/>
</g>
</svg>
