<?xml version="1.0" encoding="utf-8"?>
<!-- Generator: Adobe Illustrator 16.0.0, SVG Export Plug-In . SVG Version: 6.00 Build 0)  -->
<!DOCTYPE svg PUBLIC "-//W3C//DTD SVG 1.1//EN" "http://www.w3.org/Graphics/SVG/1.1/DTD/svg11.dtd">
<svg version="1.1" id="Layer_1" xmlns="http://www.w3.org/2000/svg" xmlns:xlink="http://www.w3.org/1999/xlink" x="0px" y="0px"
	 width="181px" height="59px" viewBox="0 0 181 59" enable-background="new 0 0 181 59" xml:space="preserve">
<g>
	<path fill-rule="evenodd" clip-rule="evenodd" fill="#AD7BFF" d="M171.1,12.75c0.634,0.167,1.367,0.3,2.2,0.4
		c1.767,0.2,2.917,0.8,3.45,1.8c0.633,0.933,0.583,2.216-0.15,3.85c-0.133,0.267-0.283,0.6-0.449,1
		c-0.101,0.3-0.283,0.75-0.551,1.35c-0.066,0.2-0.116,0.383-0.149,0.55c-0.134,0.633-0.067,1.25,0.2,1.85
		c0.3,0.4,0.666,0.85,1.1,1.35c0.467,0.467,1.033,0.95,1.7,1.45c1.467,1.033,2.167,2.133,2.1,3.3c0.067,1.1-0.633,2.183-2.1,3.25
		c-0.233,0.166-0.5,0.366-0.8,0.6c-0.268,0.233-0.65,0.566-1.15,1c-0.167,0.134-0.316,0.267-0.45,0.4
		c-0.433,0.466-0.667,1.017-0.7,1.649c0.033,0.5,0.117,1.066,0.25,1.7c0.167,0.634,0.434,1.333,0.801,2.1
		c0.699,1.634,0.767,2.934,0.199,3.9c-0.566,1-1.75,1.583-3.55,1.75c-0.267,0.066-0.6,0.116-1,0.15
		c-0.3,0.033-0.767,0.1-1.399,0.199c-0.033,0-0.067,0-0.101,0L170.5,46.4h-0.05c-0.7,0.166-1.2,0.449-1.5,0.85
		c-0.134,0.1-0.25,0.217-0.351,0.35c0,0.034-0.017,0.084-0.05,0.15c-0.167,0.3-0.316,0.65-0.45,1.05c-0.033,0.101-0.066,0.2-0.1,0.3
		c-0.033,0.067-0.05,0.117-0.05,0.15c-0.134,0.6-0.25,1.316-0.351,2.15c-0.199,1.8-0.8,2.966-1.8,3.5
		c-0.967,0.6-2.267,0.533-3.899-0.2c-0.233-0.101-0.551-0.233-0.95-0.4c-0.3-0.133-0.767-0.316-1.4-0.55h-0.05
		c-0.167-0.066-0.333-0.116-0.5-0.15c-0.1-0.033-0.2-0.05-0.3-0.05c-0.567-0.1-1.101-0.033-1.601,0.2
		c-0.399,0.3-0.85,0.667-1.35,1.1c-0.467,0.467-0.95,1.051-1.45,1.75c-1.033,1.434-2.116,2.134-3.25,2.101
		c-1.167,0.033-2.25-0.667-3.25-2.101c-0.2-0.233-0.417-0.5-0.649-0.8c-0.167-0.2-0.367-0.434-0.601-0.7
		c-1.467-1.466-3.066-1.466-4.8,0c-0.267,0.267-0.483,0.5-0.65,0.7c-0.267,0.3-0.5,0.566-0.699,0.8
		c-1.067,1.434-2.217,2.134-3.45,2.101c-1.2,0.033-2.351-0.667-3.45-2.101c-0.267-0.366-0.533-0.699-0.8-1
		c-2.167-2.5-4.384-2.5-6.65,0c-0.066,0.067-0.116,0.134-0.149,0.2c-0.268,0.3-0.5,0.566-0.7,0.8
		c-1.067,1.434-2.233,2.134-3.5,2.101c-1.2,0.033-2.351-0.667-3.45-2.101c-0.267-0.366-0.533-0.699-0.8-1
		c-2.101-2.5-4.367-2.5-6.8,0c-0.067,0.067-0.134,0.134-0.2,0.2c-0.233,0.3-0.45,0.566-0.65,0.8
		c-1.066,1.434-2.217,2.134-3.45,2.101c-1.232,0.033-2.399-0.667-3.5-2.101c-0.267-0.366-0.533-0.699-0.8-1
		c-2.3-2.5-4.583-2.5-6.85,0c-0.067,0.067-0.134,0.134-0.2,0.2c-0.233,0.3-0.45,0.566-0.65,0.8c-1.1,1.434-2.283,2.134-3.55,2.101
		c-1.2,0.033-2.35-0.667-3.45-2.101c-0.267-0.366-0.534-0.699-0.8-1c-2.366-2.399-4.616-2.399-6.75,0
		c-0.066,0.067-0.133,0.134-0.2,0.2c-0.233,0.3-0.467,0.566-0.7,0.8c-1.033,1.434-2.183,2.134-3.45,2.101
		c-1.2,0.033-2.367-0.667-3.5-2.101c-0.267-0.366-0.533-0.699-0.8-1c-2.133-2.5-4.316-2.5-6.55,0c-0.067,0.067-0.133,0.134-0.2,0.2
		c-0.233,0.3-0.483,0.566-0.75,0.8c-1.033,1.434-2.183,2.134-3.45,2.101c-1.2,0.033-2.35-0.667-3.45-2.101
		c-0.267-0.366-0.533-0.699-0.8-1c-2.333-2.166-4.6-2.166-6.8,0c-0.066,0.067-0.117,0.134-0.15,0.2c-0.267,0.3-0.5,0.566-0.7,0.8
		c-1.066,1.434-2.216,2.134-3.45,2.101c-1.233,0.033-2.4-0.667-3.5-2.101c-0.267-0.366-0.534-0.699-0.8-1
		c-2.366-2.233-4.55-2.233-6.55,0c-0.066,0.067-0.117,0.134-0.15,0.2c-0.233,0.3-0.45,0.566-0.65,0.8
		c-1,1.434-2.083,2.134-3.25,2.101c-1.134,0.033-2.217-0.667-3.25-2.101c-0.5-0.699-0.983-1.283-1.45-1.75
		c-0.5-0.433-0.95-0.8-1.35-1.1c-0.5-0.233-1.033-0.3-1.6-0.2c-0.1,0-0.2,0.017-0.3,0.05c-0.167,0.034-0.333,0.084-0.5,0.15h-0.05
		c-0.634,0.233-1.1,0.417-1.4,0.55c-0.4,0.167-0.716,0.3-0.95,0.4c-1.633,0.733-2.933,0.8-3.9,0.2c-1-0.534-1.6-1.7-1.8-3.5
		c-0.1-0.834-0.216-1.551-0.35-2.15c0-0.033-0.017-0.083-0.05-0.15c-0.033-0.1-0.066-0.199-0.1-0.3
		c-0.133-0.399-0.283-0.75-0.45-1.05c-0.034-0.066-0.05-0.116-0.05-0.15c-0.1-0.133-0.216-0.25-0.35-0.35
		c-0.3-0.4-0.8-0.684-1.5-0.85H10.5l-0.05-0.051c-0.034,0-0.067,0-0.1,0c-0.633-0.1-1.1-0.166-1.4-0.199
		c-0.4-0.034-0.733-0.084-1-0.15c-1.8-0.167-2.983-0.75-3.55-1.75c-0.566-0.967-0.5-2.267,0.2-3.9c0.367-0.767,0.633-1.466,0.8-2.1
		c0.133-0.634,0.217-1.2,0.25-1.7c-0.033-0.633-0.267-1.184-0.7-1.649c-0.133-0.134-0.284-0.267-0.45-0.4
		c-0.5-0.434-0.883-0.767-1.15-1c-0.3-0.233-0.567-0.434-0.8-0.6c-1.466-1.067-2.167-2.15-2.1-3.25
		c-0.067-1.167,0.633-2.267,2.1-3.3c0.667-0.5,1.233-0.983,1.7-1.45c0.434-0.5,0.8-0.95,1.1-1.35c0.267-0.6,0.333-1.216,0.2-1.85
		c-0.033-0.167-0.083-0.35-0.15-0.55c-0.267-0.6-0.45-1.05-0.55-1.35c-0.167-0.4-0.317-0.733-0.45-1
		c-0.733-1.633-0.783-2.917-0.15-3.85c0.533-1,1.684-1.6,3.45-1.8c0.833-0.1,1.566-0.233,2.2-0.4h0.05
		c0.633-0.067,1.25-0.35,1.85-0.85c0.2-0.167,0.384-0.367,0.55-0.6c0.2-0.367,0.333-0.783,0.4-1.25c0.067-0.566,0.133-1,0.2-1.3
		c0.033-0.4,0.066-0.75,0.1-1.05c0.167-1.8,0.75-2.95,1.75-3.45c0.967-0.6,2.267-0.533,3.9,0.2c0.8,0.366,1.5,0.616,2.1,0.75
		c0.034,0,0.067,0,0.1,0c0.434,0.2,0.9,0.3,1.4,0.3c0.233,0,0.467-0.017,0.7-0.05c0.367-0.1,0.733-0.284,1.1-0.55
		c0.167-0.167,0.333-0.367,0.5-0.6c0.367-0.433,0.667-0.783,0.9-1.05c0.233-0.333,0.434-0.6,0.6-0.8
		c1.067-1.467,2.15-2.184,3.25-2.15c1.167-0.033,2.267,0.684,3.3,2.15c0.434,0.566,0.85,1.066,1.25,1.5
		c1.633,1.733,3.483,1.733,5.55,0c0.233-0.267,0.433-0.5,0.6-0.7c0.267-0.333,0.483-0.6,0.65-0.8c1.133-1.467,2.283-2.184,3.45-2.15
		c1.267-0.033,2.45,0.684,3.55,2.15c0.467,0.566,0.917,1.066,1.35,1.5c1.8,1.767,3.733,1.767,5.8,0c0.233-0.267,0.45-0.5,0.65-0.7
		c0.233-0.333,0.434-0.6,0.6-0.8c1.167-1.467,2.333-2.184,3.5-2.15c1.233-0.033,2.4,0.684,3.5,2.15c0.5,0.566,0.966,1.066,1.4,1.5
		c2,1.7,3.85,1.7,5.55,0c0.233-0.267,0.45-0.5,0.65-0.7c0.233-0.333,0.433-0.6,0.6-0.8c1.167-1.467,2.35-2.184,3.55-2.15
		c1.233-0.033,2.4,0.684,3.5,2.15c0.466,0.566,0.917,1.066,1.35,1.5c1.8,1.8,3.717,1.8,5.75,0c0.233-0.267,0.45-0.5,0.65-0.7
		c0.233-0.333,0.45-0.6,0.65-0.8c1.133-1.467,2.283-2.184,3.45-2.15c1.233-0.033,2.417,0.684,3.55,2.15
		c0.467,0.566,0.917,1.066,1.35,1.5c1.934,1.667,3.884,1.667,5.851,0c0.233-0.267,0.433-0.5,0.6-0.7c0.233-0.333,0.45-0.6,0.65-0.8
		c1.167-1.467,2.333-2.184,3.5-2.15c1.233-0.033,2.399,0.684,3.5,2.15c0.467,0.566,0.917,1.066,1.35,1.5c2.067,1.767,4,1.767,5.8,0
		c0.233-0.267,0.434-0.5,0.601-0.7c0.267-0.333,0.483-0.6,0.649-0.8c1.134-1.467,2.283-2.184,3.45-2.15
		c1.267-0.033,2.45,0.684,3.55,2.15c0.467,0.566,0.917,1.066,1.351,1.5c1.967,1.6,3.833,1.6,5.6,0c0.233-0.267,0.45-0.5,0.65-0.7
		c0.267-0.333,0.483-0.6,0.649-0.8c1.134-1.467,2.283-2.184,3.45-2.15c1.233-0.033,2.4,0.684,3.5,2.15
		c0.467,0.566,0.917,1.066,1.351,1.5c2.033,1.8,4.017,1.8,5.949,0c0.4-0.434,0.817-0.934,1.25-1.5
		c1.033-1.467,2.134-2.184,3.301-2.15c1.1-0.033,2.183,0.684,3.25,2.15c0.166,0.2,0.366,0.466,0.6,0.8
		c0.233,0.267,0.533,0.617,0.9,1.05c0.166,0.233,0.333,0.434,0.5,0.6c0.366,0.267,0.732,0.45,1.1,0.55
		c0.233,0.033,0.467,0.05,0.7,0.05c0.5,0,0.967-0.1,1.399-0.3c0.033,0,0.067,0,0.101,0c0.6-0.134,1.3-0.384,2.1-0.75
		c1.634-0.733,2.934-0.8,3.9-0.2c1,0.5,1.583,1.65,1.75,3.45c0.033,0.3,0.066,0.65,0.1,1.05c0.067,0.3,0.134,0.733,0.2,1.3
		c0.066,0.467,0.2,0.883,0.4,1.25c0.166,0.233,0.35,0.434,0.55,0.6c0.6,0.5,1.217,0.783,1.85,0.85H171.1z"/>
</g>
</svg>
