<?xml version="1.0" encoding="utf-8"?>
<!-- Generator: Adobe Illustrator 16.0.0, SVG Export Plug-In . SVG Version: 6.00 Build 0)  -->
<!DOCTYPE svg PUBLIC "-//W3C//DTD SVG 1.1//EN" "http://www.w3.org/Graphics/SVG/1.1/DTD/svg11.dtd">
<svg version="1.1" id="Layer_1" xmlns="http://www.w3.org/2000/svg" xmlns:xlink="http://www.w3.org/1999/xlink" x="0px" y="0px"
	 width="71px" height="71px" viewBox="0 0 71 71" enable-background="new 0 0 71 71" xml:space="preserve">
<g>
	<g>
		<path fill-rule="evenodd" clip-rule="evenodd" fill="#D7C3CD" d="M60.55,10.45c6.934,6.933,10.4,15.283,10.4,25.05
			c0,9.8-3.467,18.15-10.4,25.05c-6.899,6.934-15.25,10.4-25.05,10.4s-18.167-3.467-25.1-10.4C3.5,53.65,0.05,45.3,0.05,35.5
			c0-9.767,3.45-18.117,10.35-25.05C17.333,3.55,25.7,0.1,35.5,0.1S53.65,3.55,60.55,10.45z M70,35.5
			c0-9.533-3.366-17.667-10.1-24.4S45.033,1,35.5,1S17.817,4.367,11.05,11.1C4.35,17.833,1,25.967,1,35.5
			c0,9.566,3.35,17.7,10.05,24.4C17.817,66.667,25.967,70.05,35.5,70.05S53.167,66.667,59.9,59.9C66.634,53.2,70,45.066,70,35.5z"/>
		<path fill-rule="evenodd" clip-rule="evenodd" fill="#D7C3CD" d="M42.25,29.05c-0.6,0.034-0.967,0.367-1.1,1v3.7
			c0.066,0.767,0.566,1.167,1.5,1.2h4.5c0.933,0.033,1.483-0.4,1.649-1.3C48.467,30.683,46.283,29.15,42.25,29.05z M40.85,26.1h0.75
			H42.9c2.833,0.066,5.25,0.883,7.25,2.45c2.199,1.767,3.35,4.083,3.449,6.95v1.2v2.649c0.834,0.367,1.267,1.117,1.301,2.25v0.851
			c-0.101,0.833-0.634,1.3-1.601,1.399h-1.25c-0.1-1.267-0.633-2.383-1.6-3.35c-0.5-0.5-1.033-0.884-1.601-1.15
			c-0.733-0.333-1.517-0.5-2.35-0.5s-1.6,0.167-2.3,0.5C43.6,39.616,43.05,40,42.55,40.5c-0.967,0.967-1.517,2.083-1.649,3.35H39.8
			c-1-0.033-1.517-0.6-1.55-1.699v-14.7c0.1-0.967,0.634-1.417,1.6-1.35H40.85z M27.35,22.75h6.6c1.366,0.233,2.1,0.883,2.2,1.95
			v17.45c-0.034,1.1-0.551,1.666-1.55,1.699h-2.35c-0.133-1.267-0.683-2.383-1.65-3.35c-1.1-1.1-2.417-1.65-3.95-1.65
			c-1.533,0-2.85,0.551-3.95,1.65c-0.967,0.967-1.5,2.083-1.6,3.35h-2.9c-1.3-0.1-2-0.716-2.1-1.85v-0.75V33.4v-0.6
			c0.066-2.767,1.083-5.117,3.05-7.05c1.967-1.933,4.383-2.933,7.25-3H27.35z M48.1,44.45c0-0.167-0.05-0.367-0.149-0.601
			c-0.066-0.166-0.184-0.333-0.351-0.5c-0.333-0.366-0.716-0.55-1.149-0.55c-0.467,0-0.851,0.184-1.15,0.55
			c-0.2,0.167-0.333,0.334-0.399,0.5c-0.067,0.233-0.101,0.434-0.101,0.601c0,0.5,0.167,0.916,0.5,1.25
			c0.3,0.333,0.684,0.5,1.15,0.5c0.434,0,0.816-0.167,1.149-0.5C47.934,45.366,48.1,44.95,48.1,44.45z M25.55,45.7
			c0.333,0.333,0.717,0.5,1.15,0.5c0.466,0,0.85-0.167,1.15-0.5c0.333-0.334,0.5-0.75,0.5-1.25c0-0.167-0.033-0.367-0.1-0.601
			c-0.066-0.166-0.2-0.333-0.4-0.5c-0.3-0.366-0.684-0.55-1.15-0.55c-0.434,0-0.817,0.184-1.15,0.55
			c-0.167,0.167-0.283,0.334-0.35,0.5c-0.1,0.233-0.15,0.434-0.15,0.601C25.05,44.95,25.217,45.366,25.55,45.7z M49.15,41.8
			c0.6,0.601,0.949,1.283,1.05,2.05c0.033,0.233,0.05,0.434,0.05,0.601c0,1.066-0.366,1.983-1.1,2.75
			c-0.733,0.733-1.617,1.1-2.65,1.1c-1.066,0-1.967-0.366-2.7-1.1c-0.7-0.767-1.05-1.684-1.05-2.75c0-0.167,0.017-0.367,0.05-0.601
			c0.066-0.767,0.4-1.449,1-2.05c0.733-0.733,1.634-1.1,2.7-1.1C47.533,40.7,48.417,41.066,49.15,41.8z M30.35,43.85
			c0.033,0.233,0.05,0.434,0.05,0.601c0,1.066-0.35,1.983-1.05,2.75c-0.733,0.733-1.633,1.1-2.7,1.1c-1.033,0-1.917-0.366-2.65-1.1
			c-0.733-0.767-1.1-1.684-1.1-2.75c0-0.167,0.017-0.367,0.05-0.601c0.1-0.767,0.45-1.449,1.05-2.05c0.733-0.733,1.617-1.1,2.65-1.1
			c1.067,0,1.967,0.366,2.7,1.1C29.95,42.4,30.283,43.083,30.35,43.85z"/>
	</g>
</g>
</svg>
