<?xml version="1.0" encoding="utf-8"?>
<!-- Generator: Adobe Illustrator 16.0.0, SVG Export Plug-In . SVG Version: 6.00 Build 0)  -->
<!DOCTYPE svg PUBLIC "-//W3C//DTD SVG 1.1//EN" "http://www.w3.org/Graphics/SVG/1.1/DTD/svg11.dtd">
<svg version="1.1" id="Layer_1" xmlns="http://www.w3.org/2000/svg" xmlns:xlink="http://www.w3.org/1999/xlink" x="0px" y="0px"
	 width="59px" height="59px" viewBox="0 0 59 59" enable-background="new 0 0 59 59" xml:space="preserve">
<g>
	<path fill-rule="evenodd" clip-rule="evenodd" fill="#F60001" d="M14.55,4.25c0.967-0.6,2.267-0.533,3.9,0.2
		c0.8,0.366,1.5,0.616,2.1,0.75c0.034,0,0.067,0,0.1,0c0.6,0.3,1.3,0.383,2.1,0.25c0.367-0.1,0.733-0.284,1.1-0.55
		c0.167-0.167,0.333-0.367,0.5-0.6c0.367-0.433,0.667-0.783,0.9-1.05c0.233-0.333,0.434-0.6,0.6-0.8C26.917,0.983,28,0.267,29.1,0.3
		c1.167-0.033,2.268,0.684,3.301,2.15c0.5,0.667,0.983,1.233,1.449,1.7c0.467,0.467,0.9,0.817,1.301,1.05
		c0.399,0.2,0.816,0.3,1.25,0.3c0.333,0.033,0.75-0.033,1.25-0.2c0.633-0.233,1.116-0.4,1.449-0.5c0.367-0.2,0.684-0.35,0.95-0.45
		c1.634-0.733,2.917-0.8,3.851-0.2c1,0.567,1.6,1.717,1.8,3.45c0.1,0.833,0.233,1.583,0.399,2.25c0.167,0.633,0.384,1.167,0.65,1.6
		c0.467,0.667,1.134,1.066,2,1.2c0.033,0,0.066,0,0.1,0c0.667,0.1,1.15,0.184,1.45,0.25c0.434,0.033,0.783,0.067,1.05,0.1
		c1.768,0.2,2.934,0.816,3.5,1.85c0.601,0.9,0.534,2.167-0.199,3.8c-0.367,0.833-0.634,1.55-0.801,2.15c0,0.034,0,0.067,0,0.1
		c-0.033,0.033-0.05,0.083-0.05,0.15c-0.066,0.467-0.116,0.9-0.149,1.3c-0.033,0.033-0.051,0.083-0.051,0.15
		c0.101,0.867,0.518,1.566,1.25,2.1c0.4,0.333,0.75,0.617,1.051,0.85c0.3,0.233,0.566,0.45,0.8,0.65c1.434,1,2.133,2.083,2.1,3.25
		c0.033,1.133-0.666,2.216-2.1,3.25c-0.7,0.534-1.267,1.017-1.7,1.45c-0.033,0.033-0.05,0.066-0.05,0.101
		c-0.167,0.166-0.316,0.333-0.45,0.5c-0.133,0.1-0.233,0.216-0.3,0.35c-0.134,0.134-0.25,0.267-0.351,0.4
		c-0.3,0.699-0.316,1.416-0.05,2.149c0,0.066,0.017,0.134,0.05,0.2v0.05c0.233,0.566,0.417,1.017,0.551,1.351
		c0.166,0.366,0.3,0.666,0.399,0.899c0.733,1.634,0.8,2.934,0.2,3.9c-0.533,1.033-1.7,1.633-3.5,1.8
		c-0.833,0.134-1.566,0.25-2.2,0.35c0,0.034-0.017,0.051-0.05,0.051c-0.667,0.066-1.3,0.35-1.9,0.85
		c-0.333,0.267-0.583,0.684-0.75,1.25c-0.066,0.134-0.116,0.267-0.149,0.4c0,0.066,0,0.133,0,0.199c-0.066,0.567-0.117,1-0.15,1.301
		c-0.033,0.399-0.083,0.733-0.149,1c-0.2,1.8-0.801,2.966-1.801,3.5c-0.966,0.6-2.267,0.55-3.899-0.15
		c-0.767-0.366-1.467-0.65-2.101-0.85c-0.633-0.134-1.199-0.2-1.699-0.2c-0.667,0.033-1.217,0.283-1.65,0.75
		c-0.167,0.133-0.316,0.283-0.45,0.45c-0.399,0.466-0.717,0.85-0.95,1.149c-0.232,0.3-0.449,0.566-0.649,0.8
		c-1,1.434-2.083,2.134-3.25,2.101c-1.133,0.033-2.217-0.667-3.25-2.101c-0.5-0.699-0.983-1.283-1.45-1.75
		c-0.5-0.433-0.95-0.8-1.35-1.1c-0.6-0.267-1.233-0.316-1.9-0.15c-0.167,0.034-0.333,0.084-0.5,0.15H21.2
		c-0.633,0.233-1.1,0.417-1.4,0.55c-0.4,0.167-0.716,0.3-0.95,0.4c-1.633,0.733-2.934,0.8-3.9,0.2c-1-0.534-1.6-1.7-1.8-3.5
		c-0.1-0.834-0.216-1.551-0.35-2.15c0-0.033-0.017-0.083-0.05-0.15c-0.033-0.1-0.066-0.199-0.1-0.3
		c-0.133-0.399-0.283-0.75-0.45-1.05c-0.034-0.066-0.05-0.116-0.05-0.15c-0.1-0.133-0.216-0.25-0.35-0.35
		c-0.3-0.4-0.8-0.684-1.5-0.85h-0.05L10.2,46.35c-0.034,0-0.067,0-0.1,0c-0.633-0.1-1.1-0.166-1.4-0.199
		c-0.4-0.034-0.733-0.084-1-0.15c-1.8-0.167-2.983-0.75-3.55-1.75c-0.566-0.967-0.5-2.267,0.2-3.9c0.367-0.767,0.633-1.466,0.8-2.1
		c0.133-0.634,0.217-1.2,0.25-1.7c-0.033-0.633-0.267-1.184-0.7-1.649c-0.133-0.134-0.284-0.267-0.45-0.4
		c-0.5-0.434-0.883-0.767-1.15-1c-0.3-0.233-0.567-0.434-0.8-0.6c-1.466-1.067-2.167-2.15-2.1-3.25
		c-0.067-1.167,0.633-2.267,2.1-3.3c0.667-0.5,1.233-0.983,1.7-1.45c0.434-0.5,0.8-0.95,1.1-1.35c0.267-0.6,0.333-1.216,0.2-1.85
		c-0.033-0.167-0.083-0.35-0.15-0.55C4.883,20.55,4.7,20.1,4.6,19.8c-0.167-0.4-0.317-0.733-0.45-1
		C3.417,17.167,3.367,15.883,4,14.95c0.533-1,1.684-1.6,3.45-1.8c0.833-0.1,1.566-0.233,2.2-0.4H9.7
		c0.633-0.067,1.25-0.35,1.85-0.85c0.2-0.167,0.384-0.367,0.55-0.6c0.2-0.367,0.333-0.783,0.4-1.25c0.067-0.566,0.133-1,0.2-1.3
		c0.033-0.4,0.066-0.75,0.1-1.05C12.967,5.9,13.55,4.75,14.55,4.25z"/>
</g>
</svg>
