<?xml version="1.0" encoding="utf-8"?>
<!-- Generator: Adobe Illustrator 16.0.0, SVG Export Plug-In . SVG Version: 6.00 Build 0)  -->
<!DOCTYPE svg PUBLIC "-//W3C//DTD SVG 1.1//EN" "http://www.w3.org/Graphics/SVG/1.1/DTD/svg11.dtd">
<svg version="1.1" id="Layer_1" xmlns="http://www.w3.org/2000/svg" xmlns:xlink="http://www.w3.org/1999/xlink" x="0px" y="0px"
	 width="46px" height="46px" viewBox="0 0 46 46" enable-background="new 0 0 46 46" xml:space="preserve">
<g>
	<g>
		<path fill-rule="evenodd" clip-rule="evenodd" fill="#3C599B" d="M23,0.05c6.333,0,11.733,2.233,16.2,6.7
			c4.5,4.5,6.75,9.917,6.75,16.25c0,6.333-2.25,11.733-6.75,16.2c-4.2,4.233-9.233,6.483-15.101,6.75c-0.366,0-0.732,0-1.1,0
			c-0.7,0-1.383-0.017-2.05-0.05c-5.467-0.467-10.2-2.7-14.2-6.7c-4.467-4.467-6.7-9.867-6.7-16.2c0-6.333,2.233-11.75,6.7-16.25
			C11.25,2.283,16.667,0.05,23,0.05z M24.85,17.6c0.033-1.2,0.717-1.833,2.051-1.9H29.8v-4.45c-6.6-1.133-9.966,1-10.1,6.4v3.55
			h-4.25v5h4.25v12.75h5.149V26.2H29l0.8-5h-4.95V17.6z"/>
		<path fill-rule="evenodd" clip-rule="evenodd" fill="#FEFFFA" d="M24.85,17.6v3.6h4.95l-0.8,5h-4.15v12.75H19.7V26.2h-4.25v-5
			h4.25v-3.55c0.133-5.4,3.5-7.533,10.1-6.4v4.45H26.9C25.566,15.767,24.883,16.4,24.85,17.6z"/>
	</g>
</g>
</svg>
