<?xml version="1.0" encoding="utf-8"?>
<!-- Generator: Adobe Illustrator 16.0.0, SVG Export Plug-In . SVG Version: 6.00 Build 0)  -->
<!DOCTYPE svg PUBLIC "-//W3C//DTD SVG 1.1//EN" "http://www.w3.org/Graphics/SVG/1.1/DTD/svg11.dtd">
<svg version="1.1" id="Layer_1" xmlns="http://www.w3.org/2000/svg" xmlns:xlink="http://www.w3.org/1999/xlink" x="0px" y="0px"
	 width="21px" height="18px" viewBox="0 0 21 18" enable-background="new 0 0 21 18" xml:space="preserve">
<g>
	<path fill-rule="evenodd" clip-rule="evenodd" fill="#D7C3CD" d="M20.9,2.4v1.95H13.1C12.954,4.748,12.721,5.098,12.4,5.4
		C11.833,6,11.15,6.3,10.35,6.3c-0.833,0-1.533-0.3-2.1-0.9c-0.321-0.302-0.554-0.652-0.7-1.05H0.1V2.4h7.45
		c0.137-0.417,0.37-0.8,0.7-1.15c0.567-0.533,1.267-0.8,2.1-0.8c0.801,0,1.483,0.267,2.051,0.8C12.729,1.6,12.963,1.983,13.1,2.4
		H20.9z M20.9,10H18.3c-0.126,0.481-0.376,0.898-0.75,1.25c-0.566,0.6-1.25,0.9-2.05,0.9c-0.833,0-1.533-0.301-2.1-0.9
		c-0.374-0.352-0.624-0.769-0.75-1.25H0.1V8.05h12.675c0.14-0.34,0.348-0.657,0.625-0.95c0.566-0.533,1.267-0.8,2.1-0.8
		c0.8,0,1.483,0.267,2.05,0.8c0.276,0.293,0.485,0.609,0.625,0.95H20.9V10z M20.9,15.6H8.6c-0.133,0.419-0.366,0.786-0.7,1.101
		C7.333,17.3,6.65,17.6,5.85,17.6c-0.833,0-1.533-0.3-2.1-0.899c-0.334-0.314-0.567-0.682-0.7-1.101H0.1V13.65h2.975
		c0.133-0.398,0.358-0.765,0.675-1.101c0.567-0.533,1.267-0.8,2.1-0.8c0.8,0,1.483,0.267,2.05,0.8
		c0.317,0.336,0.542,0.702,0.675,1.101H20.9V15.6z"/>
</g>
</svg>
