<?xml version="1.0" encoding="utf-8"?>
<!-- Generator: Adobe Illustrator 16.0.0, SVG Export Plug-In . SVG Version: 6.00 Build 0)  -->
<!DOCTYPE svg PUBLIC "-//W3C//DTD SVG 1.1//EN" "http://www.w3.org/Graphics/SVG/1.1/DTD/svg11.dtd">
<svg version="1.1" id="Layer_1" xmlns="http://www.w3.org/2000/svg" xmlns:xlink="http://www.w3.org/1999/xlink" x="0px" y="0px"
	 width="28px" height="24px" viewBox="0 0 28 24" enable-background="new 0 0 28 24" xml:space="preserve">
<g>
	<path fill-rule="evenodd" clip-rule="evenodd" fill="#D7C3CD" d="M15.7,0.2c3.133,0.267,5.833,1.333,8.1,3.2
		c2.733,2.2,4.101,4.867,4.101,8s-1.367,5.8-4.101,8c-1.833,1.5-3.934,2.5-6.3,3c-1.1,0.199-2.25,0.3-3.45,0.3
		c-0.3,0-0.583,0-0.85,0c-1.267-0.066-2.467-0.25-3.6-0.55C7.7,23.417,5.667,24,3.5,23.9c-1.133-0.167-1.317-0.467-0.55-0.9
		C3.817,22.1,4.5,21.1,5,20c-0.267-0.2-0.533-0.4-0.8-0.6c-2.7-2.2-4.05-4.867-4.05-8s1.35-5.8,4.05-8
		c2.433-1.967,5.3-3.05,8.6-3.25c0.4-0.033,0.817-0.05,1.25-0.05C14.616,0.1,15.167,0.133,15.7,0.2z M15.7,3.1
		c-0.5-0.067-1-0.1-1.5-0.1c-0.467,0-0.934,0.017-1.4,0.05c-2.5,0.233-4.683,1.034-6.55,2.4c-2.2,1.667-3.3,3.667-3.3,6
		c0,2.333,1.1,4.316,3.3,5.95c2.2,1.666,4.85,2.5,7.95,2.5c3.1,0,5.75-0.834,7.95-2.5c2.199-1.634,3.3-3.617,3.3-5.95
		c0-2.333-1.101-4.333-3.3-6C20.316,4.083,18.167,3.3,15.7,3.1z M7,12.9c-0.367-0.334-0.55-0.733-0.55-1.2
		c0-0.5,0.183-0.917,0.55-1.25c0.333-0.333,0.733-0.5,1.2-0.5c0.5,0,0.917,0.167,1.25,0.5c0.333,0.333,0.5,0.75,0.5,1.25
		c0,0.467-0.167,0.866-0.5,1.2c-0.333,0.366-0.75,0.55-1.25,0.55C7.733,13.45,7.333,13.267,7,12.9z M15.8,11.7
		c0,0.467-0.184,0.866-0.55,1.2c-0.333,0.366-0.733,0.55-1.2,0.55c-0.5,0-0.917-0.184-1.25-0.55c-0.333-0.334-0.5-0.733-0.5-1.2
		c0-0.5,0.167-0.917,0.5-1.25c0.333-0.333,0.75-0.5,1.25-0.5c0.467,0,0.867,0.167,1.2,0.5C15.616,10.783,15.8,11.2,15.8,11.7z
		 M18.6,12.9c-0.333-0.334-0.5-0.733-0.5-1.2c0-0.5,0.167-0.917,0.5-1.25c0.367-0.333,0.784-0.5,1.25-0.5
		c0.467,0,0.884,0.167,1.25,0.5c0.334,0.333,0.5,0.75,0.5,1.25c0,0.467-0.166,0.866-0.5,1.2c-0.366,0.366-0.783,0.55-1.25,0.55
		C19.384,13.45,18.967,13.267,18.6,12.9z"/>
</g>
</svg>
