<?xml version="1.0" encoding="utf-8"?>
<!-- Generator: Adobe Illustrator 16.0.0, SVG Export Plug-In . SVG Version: 6.00 Build 0)  -->
<!DOCTYPE svg PUBLIC "-//W3C//DTD SVG 1.1//EN" "http://www.w3.org/Graphics/SVG/1.1/DTD/svg11.dtd">
<svg version="1.1" id="Layer_1" xmlns="http://www.w3.org/2000/svg" xmlns:xlink="http://www.w3.org/1999/xlink" x="0px" y="0px"
	 width="25px" height="25px" viewBox="0 0 25 25" enable-background="new 0 0 25 25" xml:space="preserve">
<g>
	<path fill-rule="evenodd" clip-rule="evenodd" fill="#D7C3CD" d="M6.35,0.2c0.667-0.1,1.4-0.133,2.2-0.1h7.95
		c0.8-0.033,1.533,0,2.2,0.1c0.333,0.033,0.633,0.066,0.899,0.1c0.034,0,0.067,0.017,0.101,0.05c0.3,0.066,0.6,0.133,0.899,0.2
		c0.034,0,0.067,0.017,0.101,0.05c0.934,0.4,1.717,0.967,2.35,1.7c0.733,0.767,1.233,1.717,1.5,2.85c0.134,0.333,0.2,0.7,0.2,1.1
		c0.066,0.433,0.1,0.933,0.1,1.5c0,0.233,0,0.45,0,0.65v8.2c0,0.2,0,0.417,0,0.65c0,0.566-0.033,1.066-0.1,1.5
		c0,0.4-0.066,0.767-0.2,1.1c-0.267,1.134-0.767,2.084-1.5,2.851c-0.633,0.733-1.416,1.3-2.35,1.7
		c-0.033,0.033-0.066,0.05-0.101,0.05c-0.3,0.066-0.6,0.133-0.899,0.2c-0.033,0.033-0.066,0.05-0.101,0.05
		c-0.267,0.033-0.566,0.066-0.899,0.1c-0.667,0.101-1.4,0.134-2.2,0.101H8.55c-0.8,0.033-1.533,0-2.2-0.101
		c-0.333-0.033-0.633-0.066-0.9-0.1c-0.034,0-0.067-0.017-0.1-0.05c-0.3-0.067-0.6-0.134-0.9-0.2c-0.034,0-0.067-0.017-0.1-0.05
		c-0.434-0.2-0.833-0.417-1.2-0.65C2.717,23.45,2.333,23.1,2,22.7c-0.733-0.767-1.233-1.717-1.5-2.851
		c-0.133-0.333-0.2-0.699-0.2-1.1c-0.066-0.434-0.1-0.934-0.1-1.5c0-0.233,0-0.45,0-0.65V8.4c0-0.2,0-0.417,0-0.65
		c0-0.567,0.033-1.067,0.1-1.5c0-0.4,0.067-0.767,0.2-1.1C0.767,4.017,1.267,3.067,2,2.3C2.633,1.567,3.417,1,4.35,0.6
		c0.033-0.033,0.066-0.05,0.1-0.05c0.3-0.066,0.6-0.133,0.9-0.2C5.383,0.317,5.417,0.3,5.45,0.3C5.717,0.267,6.017,0.233,6.35,0.2z
		 M7.75,7.8L7.8,7.75c1.3-1.267,2.867-1.9,4.7-1.9c1.833,0,3.4,0.65,4.7,1.95c1.3,1.3,1.95,2.867,1.95,4.7
		c0,1.833-0.65,3.4-1.95,4.7s-2.867,1.95-4.7,1.95c-1.833,0-3.4-0.65-4.7-1.95c-1.3-1.3-1.95-2.867-1.95-4.7
		C5.85,10.667,6.483,9.1,7.75,7.8z M8.85,16.15c1,1,2.217,1.5,3.65,1.5c1.434,0,2.634-0.5,3.6-1.5L16.15,16.1
		c1-0.966,1.5-2.166,1.5-3.6c0-1.433-0.5-2.65-1.5-3.65s-2.217-1.5-3.65-1.5c-1.433,0-2.65,0.5-3.65,1.5s-1.5,2.217-1.5,3.65
		C7.35,13.934,7.85,15.15,8.85,16.15z M8.55,1.6c-0.7-0.033-1.35,0-1.95,0.1c-0.033,0-0.067,0-0.1,0C6.2,1.733,5.934,1.767,5.7,1.8
		C5.4,1.9,5.083,1.983,4.75,2.05c-0.633,0.3-1.167,0.717-1.6,1.25c-0.6,0.6-1,1.367-1.2,2.3v0.05C1.85,5.85,1.8,6.067,1.8,6.3
		c0,0.034,0,0.067,0,0.1s0,0.067,0,0.1C1.733,6.867,1.7,7.283,1.7,7.75c0,0.233,0,0.45,0,0.65v8.2c0,0.2,0,0.417,0,0.65
		c0,0.467,0.033,0.9,0.1,1.3v0.05c0,0.034,0,0.067,0,0.101c0,0.233,0.05,0.467,0.15,0.7v0.05c0.2,0.899,0.6,1.649,1.2,2.25v0.05
		c0.434,0.5,0.967,0.9,1.6,1.2C5.083,23.017,5.4,23.1,5.7,23.2c0.233,0.033,0.5,0.066,0.8,0.1c0.033,0,0.067,0,0.1,0
		C7.2,23.4,7.85,23.434,8.55,23.4h8c0.667,0.033,1.316,0,1.95-0.101h0.05c0.3-0.033,0.566-0.066,0.8-0.1
		c0.301-0.101,0.617-0.184,0.95-0.25h0.05c0.601-0.3,1.134-0.7,1.601-1.2V21.7c0.566-0.601,0.967-1.351,1.2-2.25V19.4
		c0.066-0.233,0.1-0.467,0.1-0.7c0-0.033,0-0.066,0-0.101v-0.05c0.066-0.399,0.1-0.833,0.1-1.3c0-0.233,0-0.45,0-0.65V8.4
		c0-0.2,0-0.417,0-0.65c0-0.467-0.033-0.883-0.1-1.25c0-0.033,0-0.067,0-0.1s0-0.066,0-0.1c0-0.233-0.033-0.45-0.1-0.65V5.6
		c-0.233-0.934-0.634-1.7-1.2-2.3c-0.467-0.533-1-0.95-1.601-1.25H20.3C19.967,1.983,19.65,1.9,19.35,1.8
		c-0.233-0.033-0.5-0.066-0.8-0.1H18.5c-0.634-0.1-1.283-0.133-1.95-0.1H8.55z M4.7,1.55H4.65L4.75,2L4.7,1.55z M18.3,5.7
		c0-0.4,0.117-0.733,0.351-1c0.233-0.233,0.55-0.35,0.949-0.35c0.367,0,0.667,0.117,0.9,0.35c0.3,0.267,0.45,0.6,0.45,1
		c0,0.333-0.15,0.633-0.45,0.9C20.267,6.867,19.967,7,19.6,7C19.2,7,18.884,6.867,18.65,6.6S18.3,6.033,18.3,5.7z M4.75,23
		l-0.1,0.45H4.7L4.75,23z"/>
</g>
</svg>
