<?xml version="1.0" encoding="utf-8"?>
<!-- Generator: Adobe Illustrator 16.0.0, SVG Export Plug-In . SVG Version: 6.00 Build 0)  -->
<!DOCTYPE svg PUBLIC "-//W3C//DTD SVG 1.1//EN" "http://www.w3.org/Graphics/SVG/1.1/DTD/svg11.dtd">
<svg version="1.1" id="Layer_1" xmlns="http://www.w3.org/2000/svg" xmlns:xlink="http://www.w3.org/1999/xlink" x="0px" y="0px"
	 width="24px" height="24px" viewBox="0 0 24 24" enable-background="new 0 0 24 24" xml:space="preserve">
<g>
	<path fill-rule="evenodd" clip-rule="evenodd" fill="#D840AF" d="M15.7,3.25c1.767,0.2,3.2,1.017,4.3,2.45
		c1.1,1.433,1.566,3.033,1.4,4.8c-0.233,1.8-1.067,3.267-2.5,4.4c-1.434,1.1-3.051,1.533-4.851,1.3c-0.933-0.101-1.783-0.4-2.55-0.9
		c-0.8-0.166-1.566,0.017-2.3,0.55l-0.35,0.2c-0.567,0.367-0.667,0.867-0.3,1.5c0.067,0.134,0.167,0.283,0.3,0.45
		c0.466,0.566,0.7,0.95,0.7,1.15c0,0.333-0.216,0.683-0.65,1.05c-0.433,0.399-0.867,0.6-1.3,0.6c-0.133,0-0.6-0.383-1.4-1.149
		c-0.534-0.534-0.95-0.834-1.25-0.9l-0.2,0.2l-0.6,0.35H4.2c-0.2,0.167-0.434,0.25-0.7,0.25c-0.3-0.066-0.55-0.217-0.75-0.45
		S2.5,18.616,2.6,18.35c0-0.267,0.117-0.483,0.35-0.649l4.65-3.9l0.05-0.05c0.633-0.566,0.967-1.25,1-2.05
		c-0.3-0.833-0.383-1.75-0.25-2.75c0.2-1.8,1-3.267,2.4-4.4C12.233,3.45,13.867,3.017,15.7,3.25z M18.35,10.15
		c0.067-0.967-0.183-1.816-0.75-2.55c-0.6-0.767-1.366-1.217-2.3-1.35c-0.967-0.1-1.833,0.167-2.6,0.8
		c-0.767,0.567-1.2,1.333-1.3,2.3c-0.1,0.933,0.133,1.783,0.7,2.55c0.601,0.734,1.384,1.167,2.351,1.3
		c0.899,0.133,1.733-0.101,2.5-0.7C17.75,11.9,18.217,11.117,18.35,10.15z"/>
</g>
</svg>
