<?xml version="1.0" encoding="utf-8"?>
<!-- Generator: Adobe Illustrator 16.0.0, SVG Export Plug-In . SVG Version: 6.00 Build 0)  -->
<!DOCTYPE svg PUBLIC "-//W3C//DTD SVG 1.1//EN" "http://www.w3.org/Graphics/SVG/1.1/DTD/svg11.dtd">
<svg version="1.1" id="Layer_1" xmlns="http://www.w3.org/2000/svg" xmlns:xlink="http://www.w3.org/1999/xlink" x="0px" y="0px"
	 width="24px" height="24px" viewBox="0 0 24 24" enable-background="new 0 0 24 24" xml:space="preserve">
<g>
	<path fill-rule="evenodd" clip-rule="evenodd" fill="#D840AF" d="M12,21.65h-0.25c-1.467-2.301-3.6-4.301-6.4-6
		c-2.5-1.5-3.917-3.684-4.25-6.55C0.934,7.333,1.45,5.783,2.65,4.45C3.717,3.217,5.1,2.6,6.8,2.6c1.767-0.033,3.467,0.633,5.1,2
		c1.6-1.367,3.284-2.033,5.05-2c1.7,0,3.1,0.617,4.2,1.85c1.166,1.333,1.666,2.883,1.5,4.65c-0.301,2.867-1.717,5.05-4.25,6.55
		C15.6,17.35,13.467,19.35,12,21.65z"/>
</g>
</svg>
