<?xml version="1.0" encoding="utf-8"?>
<!-- Generator: Adobe Illustrator 16.0.0, SVG Export Plug-In . SVG Version: 6.00 Build 0)  -->
<!DOCTYPE svg PUBLIC "-//W3C//DTD SVG 1.1//EN" "http://www.w3.org/Graphics/SVG/1.1/DTD/svg11.dtd">
<svg version="1.1" id="Layer_1" xmlns="http://www.w3.org/2000/svg" xmlns:xlink="http://www.w3.org/1999/xlink" x="0px" y="0px"
	 width="25px" height="34px" viewBox="0 0 25 34" enable-background="new 0 0 25 34" xml:space="preserve">
<g>
	<g>
		<path fill-rule="evenodd" clip-rule="evenodd" fill="#FFFFFF" d="M17.6,1.35c2.567,1.133,4.551,3.033,5.95,5.7
			c1.5,3.367,1.5,7.267,0,11.7c-1.566,4.5-4.649,9.116-9.25,13.85c-0.133,0.134-0.267,0.267-0.399,0.4
			c-0.9,0.767-1.784,0.767-2.65,0c-0.167-0.134-0.3-0.267-0.4-0.4c-4.667-4.733-7.767-9.35-9.3-13.85c-1.5-4.433-1.5-8.333,0-11.7
			c1.4-2.667,3.383-4.566,5.95-5.7C11.033,0.217,14.4,0.217,17.6,1.35z M19.55,12.4c0-1.933-0.7-3.6-2.1-5
			c-1.367-1.367-3.017-2.05-4.95-2.05c-1.967,0-3.633,0.683-5,2.05c-1.367,1.4-2.05,3.067-2.05,5c0,1.934,0.683,3.6,2.05,5
			c1.367,1.366,3.033,2.05,5,2.05c1.934,0,3.583-0.684,4.95-2.05C18.85,16,19.55,14.333,19.55,12.4z"/>
	</g>
</g>
</svg>
