<?xml version="1.0" encoding="utf-8"?>
<!-- Generator: Adobe Illustrator 16.0.0, SVG Export Plug-In . SVG Version: 6.00 Build 0)  -->
<!DOCTYPE svg PUBLIC "-//W3C//DTD SVG 1.1//EN" "http://www.w3.org/Graphics/SVG/1.1/DTD/svg11.dtd">
<svg version="1.1" id="Layer_1" xmlns="http://www.w3.org/2000/svg" xmlns:xlink="http://www.w3.org/1999/xlink" x="0px" y="0px"
	 width="187px" height="27px" viewBox="0 0 187 27" enable-background="new 0 0 187 27" xml:space="preserve">
<g>
	<g>
		<g>
			<path fill-rule="evenodd" clip-rule="evenodd" fill="#D043A9" d="M186.75,20.15c-0.2,0.433-0.533,0.75-1,0.949
				c-0.467,0.2-0.934,0.233-1.4,0.101c-0.466-0.134-0.833-0.483-1.1-1.05l-2.3-5.4l-2.351,5.4c-0.233,0.566-0.6,0.916-1.1,1.05
				c-0.467,0.133-0.934,0.1-1.4-0.101c-0.466-0.199-0.8-0.517-1-0.949c-0.199-0.434-0.183-0.934,0.051-1.5l4-9.25
				c0.233-0.533,0.583-0.883,1.05-1.05c0.233-0.067,0.483-0.083,0.75-0.05c0.233-0.033,0.467-0.017,0.7,0.05
				c0.466,0.167,0.816,0.517,1.05,1.05l4,9.25C186.967,19.217,186.983,19.717,186.75,20.15z M159.65,8.2
				c0.333,0.333,0.5,0.783,0.5,1.35c0,0.2-0.017,0.417-0.051,0.65c-0.066,0.2-0.183,0.383-0.35,0.55l-3.2,3.55l3.2,4.101
				c0.3,0.399,0.45,0.8,0.45,1.199c0,0.567-0.184,1.034-0.55,1.4c-0.367,0.333-0.834,0.5-1.4,0.5c-0.3,0-0.566-0.05-0.8-0.15
				c-0.267-0.133-0.483-0.316-0.65-0.55L153.65,16.4V19.6c0,0.634-0.184,1.117-0.551,1.45c-0.399,0.3-0.85,0.45-1.35,0.45
				c-0.533,0-0.983-0.15-1.35-0.45c-0.367-0.333-0.551-0.816-0.551-1.45V9.5c0-0.6,0.184-1.05,0.551-1.35
				c0.366-0.333,0.816-0.5,1.35-0.5c0.5,0,0.95,0.167,1.35,0.5c0.367,0.3,0.551,0.75,0.551,1.35v3.25l3.1-4.35
				c0.167-0.3,0.366-0.5,0.6-0.6c0.233-0.1,0.517-0.15,0.851-0.15C158.833,7.65,159.316,7.833,159.65,8.2z M167.55,7.6
				c1,0,1.934,0.167,2.8,0.5c0.834,0.367,1.567,0.867,2.2,1.5c0.634,0.667,1.134,1.417,1.5,2.25c0.367,0.833,0.55,1.75,0.55,2.75
				c0,0.967-0.183,1.867-0.55,2.7c-0.366,0.867-0.866,1.617-1.5,2.25c-0.633,0.601-1.366,1.101-2.2,1.5
				c-0.866,0.367-1.8,0.55-2.8,0.55c-0.967,0-1.866-0.183-2.7-0.55c-0.833-0.399-1.566-0.899-2.199-1.5
				c-0.634-0.633-1.15-1.383-1.551-2.25c-0.366-0.833-0.55-1.733-0.55-2.7c0-1,0.184-1.917,0.55-2.75
				c0.4-0.833,0.917-1.583,1.551-2.25c0.633-0.633,1.366-1.133,2.199-1.5C165.684,7.767,166.583,7.6,167.55,7.6z M141.1,7.9
				c0.267,0.167,0.5,0.4,0.7,0.7l1.45,2.65l1.5-2.65c0.366-0.633,0.9-0.95,1.6-0.95c0.233,0,0.483,0.05,0.75,0.15
				c0.233,0.1,0.45,0.233,0.65,0.4c0.167,0.2,0.316,0.417,0.45,0.65c0.1,0.2,0.149,0.433,0.149,0.7c0,0.167-0.033,0.333-0.1,0.5
				c-0.033,0.167-0.1,0.333-0.2,0.5l-6.25,10c-0.166,0.334-0.383,0.584-0.649,0.75c-0.267,0.134-0.551,0.2-0.851,0.2
				c-0.233,0-0.467-0.05-0.7-0.15c-0.267-0.1-0.5-0.216-0.699-0.35c-0.2-0.2-0.367-0.417-0.5-0.65
				c-0.101-0.233-0.15-0.483-0.15-0.75c0-0.3,0.1-0.616,0.3-0.949l2.75-4.051l-2.75-4.05c-0.1-0.133-0.184-0.283-0.25-0.45
				c-0.066-0.167-0.083-0.333-0.05-0.5c0-0.233,0.05-0.467,0.15-0.7c0.1-0.233,0.25-0.45,0.449-0.65
				c0.167-0.167,0.384-0.317,0.65-0.45c0.233-0.1,0.483-0.15,0.75-0.15C140.55,7.65,140.833,7.733,141.1,7.9z M136.95,10.2
				c-0.066,0.2-0.184,0.383-0.351,0.55L133.4,14.3L136.6,18.4c0.301,0.399,0.45,0.8,0.45,1.199c0,0.567-0.184,1.034-0.55,1.4
				c-0.366,0.333-0.833,0.5-1.4,0.5c-0.3,0-0.566-0.05-0.8-0.15c-0.267-0.133-0.483-0.316-0.649-0.55L130.5,16.4V19.6
				c0,0.634-0.184,1.117-0.55,1.45c-0.4,0.3-0.851,0.45-1.351,0.45c-0.533,0-0.983-0.15-1.35-0.45
				c-0.366-0.333-0.55-0.816-0.55-1.45V9.5c0-0.6,0.184-1.05,0.55-1.35c0.366-0.333,0.816-0.5,1.35-0.5c0.5,0,0.95,0.167,1.351,0.5
				c0.366,0.3,0.55,0.75,0.55,1.35v3.25l3.1-4.35c0.167-0.3,0.367-0.5,0.601-0.6c0.233-0.1,0.517-0.15,0.85-0.15
				c0.634,0,1.117,0.184,1.45,0.55c0.333,0.333,0.5,0.783,0.5,1.35C137,9.75,136.983,9.967,136.95,10.2z M166.35,11.7
				c-0.366,0.167-0.699,0.4-1,0.7c-0.3,0.267-0.517,0.6-0.649,1c-0.2,0.367-0.3,0.784-0.3,1.25c0,0.433,0.1,0.833,0.3,1.199
				c0.133,0.4,0.35,0.75,0.649,1.051c0.301,0.267,0.634,0.483,1,0.649c0.4,0.167,0.817,0.25,1.25,0.25
				c0.434,0,0.851-0.083,1.25-0.25c0.367-0.166,0.7-0.383,1-0.649c0.301-0.301,0.534-0.65,0.7-1.051
				c0.167-0.366,0.25-0.767,0.25-1.199c0-0.467-0.083-0.884-0.25-1.25c-0.166-0.4-0.399-0.733-0.7-1c-0.3-0.3-0.633-0.533-1-0.7
				c-0.399-0.167-0.816-0.25-1.25-0.25C167.167,11.45,166.75,11.533,166.35,11.7z"/>
			<path fill-rule="evenodd" clip-rule="evenodd" fill="#545454" d="M106.75,8.15c0.167,0.167,0.3,0.367,0.4,0.6
				c0.1,0.233,0.149,0.483,0.149,0.75v10.25c0,0.566-0.184,1-0.55,1.3c-0.333,0.3-0.75,0.45-1.25,0.45s-0.934-0.15-1.3-0.45
				c-0.367-0.3-0.55-0.733-0.55-1.3v-4.5l-3.5,5.3c-0.233,0.334-0.5,0.584-0.801,0.75c-0.3,0.134-0.6,0.2-0.899,0.2
				c-0.233,0-0.467-0.033-0.7-0.1c-0.2-0.101-0.384-0.217-0.55-0.351c-0.167-0.166-0.3-0.383-0.4-0.649
				c-0.1-0.2-0.149-0.467-0.149-0.801V9.45c0-0.6,0.166-1.05,0.5-1.35c0.366-0.3,0.783-0.45,1.25-0.45c0.533,0,0.983,0.15,1.35,0.45
				c0.333,0.3,0.5,0.75,0.5,1.35v4.45l3.55-5.3c0.233-0.333,0.483-0.567,0.75-0.7c0.3-0.167,0.617-0.25,0.95-0.25
				c0.233,0,0.45,0.033,0.65,0.1C106.35,7.85,106.55,7.983,106.75,8.15z M115.1,7.65l1.551,0.05c1.199,0,1.8,0.633,1.8,1.9v9.95
				c0,0.601-0.15,1.066-0.45,1.4c-0.3,0.333-0.783,0.5-1.45,0.5c-1,0-1.6-0.4-1.8-1.2V16.8l-1.95,3.65
				c-0.2,0.366-0.434,0.616-0.7,0.75c-0.3,0.166-0.6,0.25-0.899,0.25s-0.566-0.05-0.8-0.15c-0.267-0.133-0.467-0.267-0.601-0.399
				c-0.2-0.134-0.366-0.334-0.5-0.601c-0.1-0.2-0.149-0.45-0.149-0.75c0-0.133,0.033-0.316,0.1-0.55c0.033-0.2,0.116-0.4,0.25-0.6
				l1.85-2.851c-0.666-0.267-1.216-0.717-1.649-1.35c-0.467-0.667-0.7-1.467-0.7-2.4c0-0.533,0.1-1.05,0.3-1.55
				c0.167-0.5,0.45-0.933,0.851-1.3C110.517,8.55,111,8.233,111.6,8c0.567-0.267,1.267-0.4,2.101-0.4L115.1,7.65z M114.75,11.25h-1
				c-0.4,0-0.7,0.067-0.9,0.2c-0.199,0.167-0.3,0.417-0.3,0.75c0,0.767,0.367,1.15,1.101,1.15h0.25c0.333-0.033,0.616-0.033,0.85,0
				V11.25z M87.75,7.7H91c0.667,0.033,1.25,0.15,1.75,0.35c0.6,0.2,1.083,0.483,1.45,0.85c0.399,0.4,0.7,0.867,0.899,1.4
				c0.167,0.567,0.25,1.184,0.25,1.85c0,0.6-0.083,1.184-0.25,1.75c-0.166,0.534-0.416,0.984-0.75,1.35
				c-0.333,0.4-0.733,0.717-1.199,0.95c-0.467,0.233-1,0.35-1.601,0.35h-1.1c-0.267,0-0.517,0-0.75,0v3c0,1.3-0.617,1.95-1.85,1.95
				c-1.3,0-1.95-0.634-1.95-1.9v-10C85.9,8.333,86.517,7.7,87.75,7.7z M83.85,8.25c0.333,0.4,0.5,0.85,0.5,1.35
				c0,0.533-0.167,0.983-0.5,1.35c-0.333,0.4-0.8,0.6-1.4,0.6H77.9v1.3h3.8c0.533,0,0.95,0.167,1.25,0.5
				c0.333,0.367,0.5,0.784,0.5,1.25c0,0.434-0.167,0.834-0.5,1.2c-0.3,0.334-0.717,0.5-1.25,0.5h-3.8v1.351h4.55
				c0.6,0,1.066,0.183,1.4,0.55c0.333,0.366,0.5,0.816,0.5,1.35c0,0.5-0.167,0.95-0.5,1.351c-0.333,0.366-0.8,0.55-1.4,0.55H76
				c-1.233,0-1.85-0.634-1.85-1.9V9.6c0-1.267,0.617-1.9,1.85-1.9h6.45C83.05,7.7,83.517,7.883,83.85,8.25z M70.45,7.7
				c1.233,0,1.85,0.633,1.85,1.9v10c0,0.634-0.183,1.117-0.55,1.45c-0.367,0.3-0.8,0.45-1.3,0.45s-0.95-0.15-1.35-0.45
				c-0.367-0.333-0.55-0.816-0.55-1.45v-8.1h-3v8.1c0,0.634-0.183,1.117-0.55,1.45c-0.367,0.3-0.8,0.45-1.3,0.45
				c-0.534,0-0.983-0.15-1.35-0.45c-0.367-0.333-0.55-0.816-0.55-1.45v-10c0-1.267,0.633-1.9,1.9-1.9H70.45z M57.7,7.65
				c0.267,0,0.517,0.05,0.75,0.15c0.267,0.1,0.5,0.217,0.7,0.35c0.167,0.2,0.3,0.417,0.4,0.65c0.133,0.267,0.2,0.55,0.2,0.85v9.95
				c0,0.634-0.2,1.117-0.6,1.45c-0.367,0.3-0.816,0.45-1.35,0.45c-0.5,0-0.933-0.15-1.3-0.45c-0.367-0.333-0.55-0.816-0.55-1.45
				v-5.85l-1.4,1.85c-0.2,0.301-0.433,0.5-0.7,0.601c-0.2,0.133-0.434,0.2-0.7,0.2c-0.533,0-1-0.267-1.4-0.801l-1.4-1.85v5.85
				c0,0.634-0.184,1.117-0.55,1.45c-0.4,0.3-0.833,0.45-1.3,0.45c-0.533,0-0.983-0.15-1.35-0.45c-0.4-0.333-0.6-0.816-0.6-1.45V9.65
				c0-0.3,0.067-0.583,0.2-0.85c0.1-0.233,0.233-0.45,0.4-0.65c0.2-0.133,0.417-0.25,0.65-0.35c0.233-0.1,0.483-0.15,0.75-0.15
				c0.333,0,0.667,0.083,1,0.25c0.333,0.167,0.633,0.4,0.9,0.7l2.7,3.45l2.7-3.45c0.267-0.3,0.55-0.533,0.85-0.7
				C57.033,7.733,57.367,7.65,57.7,7.65z M92,12.45c0-0.4-0.1-0.684-0.3-0.85c-0.233-0.167-0.534-0.25-0.9-0.25h-1.1v2.1h1.1
				c0.134,0,0.267,0,0.4,0c0.233-0.034,0.417-0.1,0.55-0.2C91.917,13.05,92,12.783,92,12.45z M36.95,8.1
				c0.333,0.3,0.5,0.75,0.5,1.35v4.45L41,8.6c0.233-0.333,0.483-0.567,0.75-0.7c0.3-0.167,0.617-0.25,0.95-0.25
				c0.233,0,0.45,0.033,0.65,0.1c0.2,0.1,0.4,0.233,0.6,0.4c0.167,0.167,0.3,0.367,0.4,0.6S44.5,9.233,44.5,9.5v10.25
				c0,0.566-0.183,1-0.55,1.3s-0.784,0.45-1.25,0.45c-0.5,0-0.934-0.15-1.3-0.45s-0.55-0.733-0.55-1.3v-4.5l-3.5,5.3
				c-0.233,0.334-0.5,0.584-0.8,0.75c-0.3,0.134-0.6,0.2-0.9,0.2c-0.233,0-0.467-0.033-0.7-0.1c-0.233-0.101-0.417-0.217-0.55-0.351
				c-0.167-0.166-0.3-0.383-0.4-0.649c-0.133-0.2-0.2-0.467-0.2-0.801V9.45c0-0.6,0.184-1.05,0.55-1.35
				c0.367-0.3,0.783-0.45,1.25-0.45C36.1,7.65,36.55,7.8,36.95,8.1z"/>
		</g>
	</g>
	<g>
		<path fill-rule="evenodd" clip-rule="evenodd" fill="#D043A9" d="M19,6.75c1.733-3.767,3.767-5.85,6.1-6.25
			c1-0.233,1.633,0.133,1.9,1.1c0.133,0.333,0.2,0.733,0.2,1.2c0.1,0.7,0.1,1.684,0,2.95c-0.1,0.333-0.184,0.667-0.25,1
			c-0.067,1-0.217,1.9-0.45,2.7c-0.3,1.066-0.55,1.85-0.75,2.35c-0.1,0.267-0.167,0.45-0.2,0.55c-0.1,0.2-0.15,0.333-0.15,0.4
			l0.05-0.1c0.1,0,0.2,0.05,0.3,0.15c0.9,0.333,1.583,1.217,2.05,2.65c0.133,0.434,0.217,0.883,0.25,1.35
			c0.1,0.834,0.067,1.617-0.1,2.351L27.9,19.2c-0.133,0.934-0.85,1.366-2.15,1.3c-0.167-0.033-0.367-0.05-0.6-0.05
			c-0.133-0.066-0.3-0.101-0.5-0.101c-0.633-0.233-1.316-0.55-2.05-0.949c-0.1-0.067-0.2-0.15-0.3-0.25
			c-0.4-0.233-0.783-0.467-1.15-0.7c-0.233-0.267-0.45-0.467-0.65-0.601c-0.367-0.399-0.683-0.767-0.95-1.1
			c-0.1-0.1-0.167-0.184-0.2-0.25c-0.434-0.434-0.75-0.667-0.95-0.7h-0.05c-0.167-0.1-0.283-0.166-0.35-0.2
			c0.033,0.067,0.067,0.134,0.1,0.2c-0.033,0.033-0.033,0.084,0,0.15c0,0.033,0.017,0.066,0.05,0.1
			c0.133,0.167,0.233,0.367,0.3,0.601c0.533,1.199,0.883,1.949,1.05,2.25c-0.267-0.233-0.8-0.867-1.6-1.9
			c-0.1-0.233-0.217-0.434-0.35-0.6c-0.033-0.067-0.05-0.117-0.05-0.15h-0.05c-0.034-0.1-0.083-0.184-0.15-0.25v0.05
			c0,0.134-0.05,0.283-0.15,0.45c-0.033,0.2,0.05,0.566,0.25,1.1c0.033,0.101,0.083,0.217,0.15,0.351
			c0.133,0.399,0.267,0.866,0.4,1.399c0.1,0.2,0.167,0.5,0.2,0.9c0.1,0.366,0.167,0.8,0.2,1.3c0.033,0.134,0.05,0.283,0.05,0.45
			c0,0.767-0.033,1.483-0.1,2.15c-0.033,0.166-0.1,0.35-0.2,0.55c0,0.066-0.017,0.149-0.05,0.25c-0.6,1.467-1.483,1.967-2.65,1.5
			c-0.633-0.2-1.267-0.5-1.9-0.9c-0.333-0.267-0.717-0.566-1.15-0.899C11.417,23.55,11,22.517,11.1,21.55c0-0.1,0-0.184,0-0.25h0.1
			c-0.1-0.033-0.233-0.066-0.4-0.1c-0.133,0-0.3-0.033-0.5-0.101c-0.6-0.033-1.466-0.166-2.6-0.399
			c-0.767-0.2-1.617-0.483-2.55-0.851c-0.3-0.133-0.583-0.25-0.85-0.35c-1.233-0.467-2.133-0.9-2.7-1.3
			c-0.4-0.2-0.717-0.45-0.95-0.75c-0.7-0.7-0.75-1.417-0.15-2.15C2,13.367,4.833,12.533,9,12.8c0.267,0,0.533,0.034,0.8,0.1
			c2,0.367,3.684,0.767,5.05,1.2L14.9,14.2c0.7,0.267,1.267,0.533,1.7,0.8c-0.033-0.1-0.067-0.15-0.1-0.15
			c-0.1-0.166-0.15-0.316-0.15-0.449c-0.033,0-0.083,0-0.15,0c-0.167-0.034-0.317-0.134-0.45-0.301
			c-0.067-0.167-0.083-0.333-0.05-0.5c0.033-0.2,0.15-0.333,0.35-0.4c0.167-0.1,0.317-0.117,0.45-0.05
			c0.2,0.033,0.317,0.117,0.35,0.25c0.133,0.133,0.183,0.3,0.15,0.5c0,0.067,0,0.133,0,0.2c0.067,0.034,0.15,0.117,0.25,0.25
			c0.031,0.031,0.048,0.09,0.05,0.176c0.001-0.524,0.034-1.116,0.1-1.775c0.033-0.067,0.05-0.15,0.05-0.25c0.2-1.333,0.617-3,1.25-5
			C18.8,7.233,18.9,6.983,19,6.75z"/>
	</g>
</g>
</svg>
