<?xml version="1.0" encoding="utf-8"?>
<!-- Generator: Adobe Illustrator 16.0.0, SVG Export Plug-In . SVG Version: 6.00 Build 0)  -->
<!DOCTYPE svg PUBLIC "-//W3C//DTD SVG 1.1//EN" "http://www.w3.org/Graphics/SVG/1.1/DTD/svg11.dtd">
<svg version="1.1" id="Layer_1" xmlns="http://www.w3.org/2000/svg" xmlns:xlink="http://www.w3.org/1999/xlink" x="0px" y="0px"
	 width="27px" height="20px" viewBox="0 0 27 20" enable-background="new 0 0 27 20" xml:space="preserve">
<g>
	<g>
		<g>
			<path fill-rule="evenodd" clip-rule="evenodd" fill="#D7C3CD" d="M5.75,1.9c-0.767-0.033-1.434,0.05-2,0.25
				C3.45,2.283,3.184,2.5,2.95,2.8C2.483,3.333,2.267,3.983,2.3,4.75c0.2,2.1,1.367,3.783,3.5,5.05c1.733,0.967,3.833,1.5,6.3,1.601
				c0.133,0,0.25,0,0.35,0c0.066,0,0.116,0,0.15,0c0.167,0,0.333,0,0.5,0c0.233,0,0.483,0,0.75,0c0.167,0,0.334,0,0.5,0
				c0.033,0,0.084,0,0.15,0c0.133,0,0.267,0,0.4,0c2.433-0.101,4.517-0.634,6.25-1.601c2.133-1.267,3.3-2.933,3.5-5V4.75
				C24.684,3.983,24.5,3.333,24.1,2.8l-0.05-0.05c-0.267-0.267-0.55-0.467-0.85-0.6c-0.567-0.2-1.2-0.283-1.9-0.25H5.75z M3.15,0.6
				c1-0.267,1.983-0.4,2.95-0.4h15.1c0.167,0,0.316,0,0.45,0c1.366-0.1,2.433,0.167,3.199,0.8c0.233,0.167,0.467,0.367,0.7,0.6v0.05
				c0.467,0.533,0.817,1.167,1.05,1.9V3.6c0.033,0.167,0.051,0.367,0.051,0.6c0.066,0.333,0.1,0.683,0.1,1.05
				c0,0.167,0,0.317,0,0.45v9.149c-0.033,1.101-0.267,2.034-0.7,2.801c-0.167,0.267-0.35,0.533-0.55,0.8
				c-0.967,1.066-2.4,1.533-4.3,1.399H5.75c-1.9,0.134-3.316-0.333-4.25-1.399c-0.233-0.267-0.417-0.533-0.55-0.8
				c-0.467-0.767-0.7-1.717-0.7-2.851V5.7c0-0.133,0-0.284,0-0.45c0-0.333,0.017-0.65,0.05-0.95V4.25c0-0.267,0.05-0.5,0.15-0.7V3.6
				c0.167-0.767,0.5-1.417,1-1.95V1.6c0.267-0.3,0.566-0.55,0.9-0.75C2.617,0.75,2.883,0.667,3.15,0.6z M1.95,14.8
				c0,0.033,0.017,0.066,0.05,0.101c0.633-1.334,1.5-2.517,2.6-3.551C3.5,10.717,2.617,9.967,1.95,9.1V14.8z M24,15.95
				c-0.934-1.434-2.083-2.634-3.45-3.601c-1.566,0.567-3.316,0.9-5.25,1h-0.05c-0.167,0-0.316,0-0.45,0h-0.3
				c-0.066,0-0.117,0-0.15,0c-0.166,0-0.333,0-0.5,0c-0.267,0-0.517,0-0.75,0c-0.166,0-0.333,0-0.5,0c-0.034,0-0.083,0-0.15,0H12.2
				c-0.167,0-0.333,0-0.5,0c-1.967-0.1-3.733-0.449-5.3-1.05c-1.367,1-2.5,2.217-3.4,3.65H2.95c-0.2,0.267-0.367,0.55-0.5,0.85
				c0.1,0.167,0.216,0.334,0.35,0.5v-0.05c0.634,0.7,1.617,1,2.95,0.9H21.3c1.267,0.1,2.233-0.2,2.9-0.9
				c0.133-0.134,0.25-0.267,0.35-0.4C24.383,16.517,24.2,16.217,24,15.95z M25,14.95c0-0.066,0-0.117,0-0.15V9.1
				c-0.667,0.867-1.533,1.617-2.6,2.25C23.467,12.417,24.333,13.616,25,14.95z"/>
			<path fill-rule="evenodd" clip-rule="evenodd" fill="#FFFFFF" d="M5.75,1.9H21.3c0.7-0.033,1.333,0.05,1.9,0.25
				c0.3,0.133,0.583,0.333,0.85,0.6L24.1,2.8c0.4,0.534,0.584,1.184,0.551,1.95V4.8c-0.2,2.067-1.367,3.733-3.5,5
				c-1.733,0.967-3.817,1.5-6.25,1.601c-0.134,0-0.268,0-0.4,0c-0.066,0-0.117,0-0.15,0c-0.166,0-0.333,0-0.5,0
				c-0.267,0-0.517,0-0.75,0c-0.166,0-0.333,0-0.5,0c-0.034,0-0.083,0-0.15,0c-0.1,0-0.217,0-0.35,0
				C9.633,11.3,7.533,10.767,5.8,9.8C3.667,8.533,2.5,6.85,2.3,4.75C2.267,3.983,2.483,3.333,2.95,2.8c0.233-0.3,0.5-0.517,0.8-0.65
				C4.316,1.95,4.983,1.867,5.75,1.9z M25,14.95c-0.667-1.334-1.533-2.533-2.6-3.601c1.066-0.633,1.933-1.383,2.6-2.25v5.7
				C25,14.833,25,14.884,25,14.95z M24,15.95c0.2,0.267,0.383,0.566,0.55,0.899c-0.1,0.134-0.217,0.267-0.35,0.4
				c-0.667,0.7-1.634,1-2.9,0.9H5.75c-1.333,0.1-2.316-0.2-2.95-0.9v0.05c-0.133-0.166-0.25-0.333-0.35-0.5
				c0.133-0.3,0.3-0.583,0.5-0.85H3c0.9-1.434,2.033-2.65,3.4-3.65c1.567,0.601,3.333,0.95,5.3,1.05c0.167,0,0.333,0,0.5,0h0.25
				c0.066,0,0.116,0,0.15,0c0.167,0,0.333,0,0.5,0c0.233,0,0.483,0,0.75,0c0.167,0,0.334,0,0.5,0c0.033,0,0.084,0,0.15,0h0.3
				c0.134,0,0.283,0,0.45,0h0.05c1.934-0.1,3.684-0.433,5.25-1C21.917,13.316,23.066,14.517,24,15.95z M1.95,14.8V9.1
				c0.667,0.867,1.55,1.617,2.65,2.25C3.5,12.384,2.633,13.566,2,14.9C1.967,14.866,1.95,14.833,1.95,14.8z"/>
		</g>
	</g>
</g>
</svg>
