<?xml version="1.0" encoding="utf-8"?>
<!-- Generator: Adobe Illustrator 16.0.0, SVG Export Plug-In . SVG Version: 6.00 Build 0)  -->
<!DOCTYPE svg PUBLIC "-//W3C//DTD SVG 1.1//EN" "http://www.w3.org/Graphics/SVG/1.1/DTD/svg11.dtd">
<svg version="1.1" id="Layer_1" xmlns="http://www.w3.org/2000/svg" xmlns:xlink="http://www.w3.org/1999/xlink" x="0px" y="0px"
	 width="33px" height="33px" viewBox="0 0 33 33" enable-background="new 0 0 33 33" xml:space="preserve">
<g>
	<g>
		<path fill-rule="evenodd" clip-rule="evenodd" fill="#FFFFFF" d="M32.9,16.5c0,4.533-1.601,8.4-4.801,11.6
			C24.9,31.3,21.033,32.9,16.5,32.9c-4.566,0-8.433-1.601-11.6-4.801C1.7,24.9,0.1,21.033,0.1,16.5c0-4.567,1.6-8.433,4.8-11.6
			c3.167-3.2,7.034-4.8,11.6-4.8c4.533,0,8.4,1.6,11.6,4.8C31.3,8.067,32.9,11.933,32.9,16.5z"/>
	</g>
	<g>
		<path fill-rule="evenodd" clip-rule="evenodd" fill="#606060" d="M20,20.2c0.467,0.467,0.583,0.85,0.35,1.149
			c-0.166,0.367-0.566,0.417-1.199,0.15c-1.534-0.634-2.9-1.366-4.101-2.2c-0.433-0.3-0.816-0.583-1.15-0.85
			c-0.6-0.434-1.017-0.967-1.25-1.6c-0.1-0.467,0.017-0.9,0.35-1.3c0.1-0.2,0.25-0.4,0.45-0.6c0.8-0.8,1.75-1.5,2.85-2.1
			c0.634-0.367,1.584-0.817,2.851-1.35c0.633-0.267,1.033-0.2,1.199,0.2c0.233,0.3,0.117,0.667-0.35,1.1l-3.15,2.8
			c-0.333,0.3-0.517,0.617-0.55,0.95c0,0.367,0.184,0.667,0.55,0.9L20,20.2z"/>
	</g>
</g>
</svg>
