<?xml version="1.0" encoding="utf-8"?>
<!-- Generator: Adobe Illustrator 16.0.0, SVG Export Plug-In . SVG Version: 6.00 Build 0)  -->
<!DOCTYPE svg PUBLIC "-//W3C//DTD SVG 1.1//EN" "http://www.w3.org/Graphics/SVG/1.1/DTD/svg11.dtd">
<svg version="1.1" id="Layer_1" xmlns="http://www.w3.org/2000/svg" xmlns:xlink="http://www.w3.org/1999/xlink" x="0px" y="0px"
	 width="33px" height="33px" viewBox="0 0 33 33" enable-background="new 0 0 33 33" xml:space="preserve">
<g>
	<g>
		<path fill-rule="evenodd" clip-rule="evenodd" fill="#FFFFFF" d="M0.101,16.5c0,4.533,1.6,8.399,4.8,11.6s7.066,4.8,11.6,4.8
			c4.567,0,8.434-1.6,11.601-4.8c3.2-3.2,4.8-7.066,4.8-11.6c0-4.566-1.6-8.434-4.8-11.601C24.934,1.7,21.067,0.1,16.5,0.1
			c-4.533,0-8.399,1.601-11.6,4.8C1.7,8.066,0.101,11.934,0.101,16.5z"/>
	</g>
	<g>
		<path fill-rule="evenodd" clip-rule="evenodd" fill="#606060" d="M13,20.2c-0.466,0.466-0.583,0.85-0.35,1.149
			c0.167,0.367,0.566,0.417,1.2,0.15c1.533-0.634,2.899-1.367,4.1-2.2c0.434-0.3,0.816-0.583,1.15-0.85
			c0.6-0.434,1.017-0.967,1.25-1.601c0.1-0.467-0.017-0.899-0.351-1.3c-0.1-0.2-0.25-0.4-0.449-0.6
			c-0.801-0.801-1.75-1.5-2.851-2.101c-0.633-0.366-1.583-0.816-2.85-1.35c-0.634-0.267-1.033-0.2-1.2,0.2
			c-0.233,0.3-0.116,0.666,0.35,1.1l3.15,2.8c0.333,0.3,0.517,0.617,0.55,0.95c0,0.366-0.184,0.667-0.55,0.9L13,20.2z"/>
	</g>
</g>
</svg>
