<?xml version="1.0" encoding="utf-8"?>
<!-- Generator: Adobe Illustrator 16.0.0, SVG Export Plug-In . SVG Version: 6.00 Build 0)  -->
<!DOCTYPE svg PUBLIC "-//W3C//DTD SVG 1.1//EN" "http://www.w3.org/Graphics/SVG/1.1/DTD/svg11.dtd">
<svg version="1.1" id="Layer_1" xmlns="http://www.w3.org/2000/svg" xmlns:xlink="http://www.w3.org/1999/xlink" x="0px" y="0px"
	 width="22px" height="20px" viewBox="0 0 22 20" enable-background="new 0 0 22 20" xml:space="preserve">
<g>
	<path fill-rule="evenodd" clip-rule="evenodd" fill="#D840AF" d="M18.05,1.5c0.5,0.033,0.917,0.217,1.25,0.55
		c0.367,0.367,0.55,0.817,0.55,1.35s-0.183,0.983-0.55,1.35c-0.333,0.3-0.75,0.467-1.25,0.5H4.1c-0.533-0.033-0.967-0.2-1.3-0.5
		C2.4,4.383,2.2,3.933,2.2,3.4s0.2-0.983,0.6-1.35C3.133,1.717,3.567,1.533,4.1,1.5H18.05z M19.85,10c0,0.533-0.183,0.983-0.55,1.35
		c-0.333,0.367-0.75,0.551-1.25,0.551H4.1c-0.533,0-0.967-0.184-1.3-0.551C2.4,10.983,2.2,10.533,2.2,10c0-0.467,0.2-0.883,0.6-1.25
		c0.333-0.367,0.767-0.567,1.3-0.6h13.95c0.5,0.033,0.917,0.233,1.25,0.6C19.667,9.117,19.85,9.533,19.85,10z M19.85,16.7
		c0,0.5-0.183,0.95-0.55,1.35c-0.333,0.3-0.75,0.467-1.25,0.5H4.1c-0.533-0.033-0.967-0.2-1.3-0.5C2.4,17.65,2.2,17.2,2.2,16.7
		c0-0.533,0.2-0.983,0.6-1.351c0.333-0.333,0.767-0.517,1.3-0.55h13.95c0.5,0.033,0.917,0.217,1.25,0.55
		C19.667,15.717,19.85,16.167,19.85,16.7z"/>
</g>
</svg>
