<?xml version="1.0" encoding="utf-8"?>
<!-- Generator: Adobe Illustrator 16.0.0, SVG Export Plug-In . SVG Version: 6.00 Build 0)  -->
<!DOCTYPE svg PUBLIC "-//W3C//DTD SVG 1.1//EN" "http://www.w3.org/Graphics/SVG/1.1/DTD/svg11.dtd">
<svg version="1.1" id="Layer_1" xmlns="http://www.w3.org/2000/svg" xmlns:xlink="http://www.w3.org/1999/xlink" x="0px" y="0px"
	 width="53px" height="42px" viewBox="0 0 53 42" enable-background="new 0 0 53 42" xml:space="preserve">
<g>
	<g>
		<path fill-rule="evenodd" clip-rule="evenodd" fill-opacity="0.149" d="M52.35,9.55c0.101,0.367,0.15,0.784,0.15,1.25
			c0.1,0.6,0.15,1.25,0.15,1.95c0,0.3,0,0.6,0,0.9v18.6c-0.034,2.134-0.45,3.917-1.25,5.35c-0.301,0.5-0.65,0.967-1.051,1.4
			c-1.8,2-4.466,2.884-8,2.65H10.7C7.167,41.884,4.5,41,2.7,39c-0.4-0.434-0.733-0.9-1-1.4c-0.833-1.433-1.267-3.216-1.3-5.35v-18.6
			c0-0.3,0-0.6,0-0.9c0-0.7,0.05-1.35,0.15-1.95c0-0.466,0.05-0.883,0.15-1.25c0.367-1.4,1-2.583,1.9-3.55
			c0.8-0.9,1.783-1.567,2.95-2C5.917,3.867,6.3,3.75,6.7,3.65c0.4-0.1,0.816-0.167,1.25-0.2c0.867-0.133,1.783-0.167,2.75-0.1H42.35
			c0.967-0.067,1.884-0.033,2.75,0.1c0.434,0.033,0.851,0.1,1.25,0.2c0.4,0.1,0.784,0.217,1.15,0.35c1.167,0.433,2.15,1.1,2.95,2
			C51.35,6.967,51.983,8.15,52.35,9.55z"/>
	</g>
	<g>
		<g>
			<path fill-rule="evenodd" clip-rule="evenodd" fill="#B4B4B4" d="M52.65,9.75c0,0.3,0,0.6,0,0.9v18.6
				c-0.034,2.134-0.45,3.917-1.25,5.35c-0.301,0.5-0.65,0.967-1.051,1.4c-1.8,2-4.466,2.884-8,2.65H10.7C7.167,38.884,4.5,38,2.7,36
				c-0.4-0.434-0.733-0.9-1-1.4c-0.833-1.433-1.267-3.216-1.3-5.35v-18.6c0-0.3,0-0.6,0-0.9c0-0.7,0.05-1.35,0.15-1.95
				c0-0.466,0.05-0.883,0.15-1.25c0.367-1.4,1-2.583,1.9-3.55c0.8-0.9,1.783-1.567,2.95-2C5.917,0.867,6.3,0.75,6.7,0.65
				c0.4-0.1,0.816-0.167,1.25-0.2c0.867-0.133,1.783-0.167,2.75-0.1H42.35c0.967-0.067,1.884-0.033,2.75,0.1
				c0.434,0.033,0.851,0.1,1.25,0.2c0.4,0.1,0.784,0.217,1.15,0.35c1.167,0.433,2.15,1.1,2.95,2c0.899,0.967,1.533,2.15,1.899,3.55
				C52.45,6.917,52.5,7.333,52.5,7.8C52.6,8.4,52.65,9.05,52.65,9.75z M48.95,4c-0.634-0.733-1.367-1.283-2.2-1.65
				c-1.233-0.434-2.684-0.6-4.35-0.5L27.3,1.9h-1.55l-15.1-0.05c-1.667-0.1-3.117,0.066-4.35,0.5C5.467,2.717,4.733,3.267,4.1,4
				C3.033,5.267,2.533,6.85,2.6,8.75c0.433,4.7,3,8.417,7.7,11.15c3.7,2.1,8.15,3.234,13.35,3.4c0.267,0,0.533,0,0.8,0
				c0.1,0,0.2,0,0.3,0c0.333,0,0.667,0,1,0c0.5,0,1.017,0,1.55,0c0.334,0,0.667,0,1,0c0.101,0,0.2,0,0.3,0c0.267,0,0.534,0,0.801,0
				c5.199-0.166,9.649-1.3,13.35-3.4c4.7-2.733,7.267-6.45,7.7-11.15C50.517,6.85,50.017,5.267,48.95,4z M49.8,16.3
				c-1.434,2.067-3.45,3.85-6.05,5.351c-0.233,0.133-0.467,0.267-0.7,0.399c2.601,2.3,4.65,4.967,6.15,8
				c0.033,0.033,0.066,0.084,0.1,0.15c0.434,0.899,0.834,1.85,1.2,2.85c0.4-1.1,0.616-2.366,0.65-3.8v-15.3L51.1,14
				C50.733,14.8,50.3,15.567,49.8,16.3z M4.15,31.05c-0.467,0.634-0.9,1.316-1.3,2.05C2.817,33.2,2.767,33.3,2.7,33.4
				C3,34,3.367,34.533,3.8,35c1.534,1.634,3.817,2.35,6.85,2.15H42.4c3.033,0.199,5.316-0.517,6.85-2.15c0.434-0.467,0.8-1,1.1-1.6
				c-0.066-0.134-0.133-0.25-0.199-0.351c-0.367-0.7-0.784-1.366-1.25-2c-2.034-3.133-4.634-5.816-7.801-8.05
				c-3.199,1.333-6.85,2.1-10.949,2.3c-0.334,0-0.65,0-0.95,0H28.6c-0.1,0-0.199,0-0.3,0c-0.333,0-0.666,0-1,0
				c-0.533,0-1.05,0-1.55,0c-0.333,0-0.667,0-1,0c-0.1,0-0.2,0-0.3,0h-0.6c-0.3,0-0.617,0-0.95,0c-4.1-0.2-7.75-0.967-10.95-2.3
				C8.783,25.233,6.183,27.917,4.15,31.05z M3.25,16.3c-0.5-0.733-0.933-1.5-1.3-2.3L1.9,13.95v15.3c0.033,1.434,0.25,2.7,0.65,3.8
				c0.367-1,0.767-1.95,1.2-2.85c0.033-0.066,0.067-0.117,0.1-0.15c1.5-3.033,3.55-5.7,6.15-8c-0.233-0.133-0.467-0.267-0.7-0.399
				C6.7,20.15,4.683,18.367,3.25,16.3z"/>
			<path fill-rule="evenodd" clip-rule="evenodd" fill="#FFFFFF" d="M48.95,4c1.066,1.267,1.566,2.85,1.5,4.75
				c-0.434,4.7-3,8.417-7.7,11.15c-3.7,2.1-8.15,3.234-13.35,3.4c-0.267,0-0.534,0-0.801,0c-0.1,0-0.199,0-0.3,0
				c-0.333,0-0.666,0-1,0c-0.533,0-1.05,0-1.55,0c-0.333,0-0.667,0-1,0c-0.1,0-0.2,0-0.3,0c-0.267,0-0.534,0-0.8,0
				C18.45,23.134,14,22,10.3,19.9c-4.7-2.733-7.267-6.45-7.7-11.15C2.533,6.85,3.033,5.267,4.1,4c0.633-0.733,1.367-1.283,2.2-1.65
				c1.233-0.434,2.684-0.6,4.35-0.5l15.1,0.05h1.55L42.4,1.85c1.666-0.1,3.116,0.066,4.35,0.5C47.583,2.717,48.316,3.267,48.95,4z
				 M4.15,31.05c0.133,0.233,0.283,0.467,0.45,0.7c1.033-0.7,2.333-1.35,3.9-1.95c4.8-1.899,10.55-2.883,17.25-2.95
				c0.267,0,0.533,0,0.8,0c7.033,0,13.033,0.983,18,2.95c1.566,0.601,2.884,1.25,3.95,1.95c0.134-0.233,0.267-0.467,0.4-0.7
				c0.466,0.634,0.883,1.3,1.25,2c0.066,0.101,0.133,0.217,0.199,0.351c-0.3,0.6-0.666,1.133-1.1,1.6
				c-1.533,1.634-3.816,2.35-6.85,2.15H10.65C7.617,37.35,5.333,36.634,3.8,35c-0.433-0.467-0.8-1-1.1-1.6
				C2.767,33.3,2.817,33.2,2.85,33.1C3.25,32.366,3.683,31.684,4.15,31.05z M49.8,16.3c0.5-0.733,0.934-1.5,1.3-2.3l0.051-0.05v15.3
				c-0.034,1.434-0.25,2.7-0.65,3.8c-0.366-1-0.767-1.95-1.2-2.85c-0.033-0.066-0.066-0.117-0.1-0.15
				C47.833,26.05,48.033,21.467,49.8,16.3z M3.25,16.3c1.733,5.9,1.933,10.483,0.6,13.75c-0.033,0.033-0.067,0.084-0.1,0.15
				c-0.433,0.899-0.833,1.85-1.2,2.85c-0.4-1.1-0.617-2.366-0.65-3.8v-15.3L1.95,14C2.317,14.8,2.75,15.567,3.25,16.3z"/>
			
				<linearGradient id="SVGID_1_" gradientUnits="userSpaceOnUse" x1="-36.1885" y1="46.4268" x2="-21.6885" y2="46.4268" gradientTransform="matrix(6.896552e-005 -1 1 -0.001 1.816579e-004 -1.029018e-004)">
				<stop  offset="0" style="stop-color:#FFFFFF"/>
				<stop  offset="1" style="stop-color:#EFEFEF"/>
			</linearGradient>
			<path fill-rule="evenodd" clip-rule="evenodd" fill="url(#SVGID_1_)" d="M49.8,16.3c-1.767,5.167-1.967,9.75-0.6,13.75
				c-1.5-3.033-3.55-5.7-6.15-8c0.233-0.133,0.467-0.267,0.7-0.399C46.35,20.15,48.366,18.367,49.8,16.3z"/>
			
				<linearGradient id="SVGID_2_" gradientUnits="userSpaceOnUse" x1="-36.1885" y1="37.3281" x2="-21.6885" y2="37.3281" gradientTransform="matrix(6.896552e-005 -1 1 -0.001 1.816579e-004 -1.029018e-004)">
				<stop  offset="0" style="stop-color:#FFFFFF"/>
				<stop  offset="1" style="stop-color:#E9E9E9"/>
			</linearGradient>
			<path fill-rule="evenodd" clip-rule="evenodd" fill="url(#SVGID_2_)" d="M25.75,26.85V25.3c0.5,0,1.017,0,1.55,0
				c0.334,0,0.667,0,1,0c0.101,0,0.2,0,0.3,0H29.2c0.3,0,0.616,0,0.95,0c4.1-0.2,7.75-0.967,10.949-2.3
				c3.167,2.233,5.767,4.917,7.801,8.05c-0.134,0.233-0.267,0.467-0.4,0.7c-1.066-0.7-2.384-1.35-3.95-1.95
				c-4.967-1.967-10.967-2.95-18-2.95C26.283,26.85,26.017,26.85,25.75,26.85z"/>
			<linearGradient id="SVGID_3_" gradientUnits="userSpaceOnUse" x1="14.9497" y1="36.1504" x2="14.9497" y2="21.6504">
				<stop  offset="0" style="stop-color:#FFFFFF"/>
				<stop  offset="1" style="stop-color:#E9E9E9"/>
			</linearGradient>
			<path fill-rule="evenodd" clip-rule="evenodd" fill="url(#SVGID_3_)" d="M4.15,31.05c2.033-3.133,4.633-5.816,7.8-8.05
				c3.2,1.333,6.85,2.1,10.95,2.3c0.333,0,0.65,0,0.95,0h0.6c0.1,0,0.2,0,0.3,0c0.333,0,0.667,0,1,0v1.55
				C19.05,26.917,13.3,27.9,8.5,29.8c-1.567,0.601-2.867,1.25-3.9,1.95C4.433,31.517,4.283,31.283,4.15,31.05z"/>
			<linearGradient id="SVGID_4_" gradientUnits="userSpaceOnUse" x1="6.625" y1="36.1504" x2="6.625" y2="21.6504">
				<stop  offset="0" style="stop-color:#FFFFFF"/>
				<stop  offset="1" style="stop-color:#EFEFEF"/>
			</linearGradient>
			<path fill-rule="evenodd" clip-rule="evenodd" fill="url(#SVGID_4_)" d="M3.85,30.05c1.333-3.267,1.133-7.85-0.6-13.75
				c1.433,2.067,3.45,3.85,6.05,5.351c0.233,0.133,0.467,0.267,0.7,0.399C7.4,24.35,5.35,27.017,3.85,30.05z"/>
		</g>
	</g>
	<g>
		<path fill-rule="evenodd" clip-rule="evenodd" fill="#B4B4B4" d="M33.4,29.1c-0.268,0.434-0.584,0.834-0.95,1.2
			c-0.367,0.434-0.8,0.684-1.3,0.75c-0.067,0-0.134,0-0.2,0c-1.601-0.1-3.017-0.767-4.25-2c-0.367-0.399-0.7-0.783-1-1.149
			c-0.3,0.366-0.634,0.75-1,1.149c-1.233,1.233-2.65,1.9-4.25,2c-0.067,0-0.134,0-0.2,0c-0.5-0.066-0.934-0.316-1.3-0.75
			c-0.367-0.366-0.684-0.767-0.95-1.2c-1.467-2.133-2.2-3.966-2.2-5.5l9.9,0.25L35.6,23.6C35.6,25.134,34.866,26.967,33.4,29.1z"/>
	</g>
	<g>
		<path fill-rule="evenodd" clip-rule="evenodd" fill="#D043A9" d="M21.6,16.5c1.467,1.3,2.667,2.467,3.6,3.5l0.65,0.7
			c0.466-0.567,0.716-0.867,0.75-0.9c0.801-0.966,1.934-2.066,3.4-3.3c0.2-0.2,0.417-0.367,0.65-0.5c3.233-2.2,5.883-2.9,7.949-2.1
			c0.967,0.333,1.334,0.95,1.101,1.85c-0.101,0.333-0.25,0.7-0.45,1.1c-0.267,0.566-0.75,1.367-1.45,2.4
			c-0.233,0.2-0.45,0.417-0.649,0.65c-0.601,0.8-1.551,1.817-2.851,3.05c-0.5,0.434-0.883,0.783-1.149,1.05
			c0.466,1.167,0.583,2.316,0.35,3.45c-0.1,0.399-0.233,0.8-0.4,1.2c-0.366,0.699-0.8,1.333-1.3,1.899h-0.05
			c-0.5,0.566-1.116,0.667-1.85,0.3c-0.834-0.399-1.567-1.083-2.2-2.05c-0.667-0.934-1.283-2.533-1.85-4.8
			c-0.4,1.033-0.7,1.816-0.9,2.35c-0.167,0.5-0.317,0.884-0.45,1.15c-0.133,0.3-0.3,0.65-0.5,1.05c-0.267,0.334-0.6,0.767-1,1.3
			c-0.1,0.101-0.25,0.217-0.45,0.351c-0.033,0.066-0.083,0.1-0.15,0.1c-1.233,0.967-2.2,0.967-2.9,0
			c-0.4-0.467-0.75-1.017-1.05-1.649c-0.167-0.4-0.35-0.851-0.55-1.351c-0.233-1.333-0.05-2.383,0.55-3.149L18.5,24.1
			c-0.2-0.199-0.417-0.416-0.65-0.649c-1.7-1.667-2.85-2.883-3.45-3.65c-0.167-0.2-0.333-0.417-0.5-0.65c-0.767-1-1.3-1.8-1.6-2.4
			c-0.2-0.367-0.316-0.717-0.35-1.05c-0.233-0.934,0.066-1.567,0.9-1.9c2.167-0.8,4.9-0.083,8.2,2.15
			C21.25,16.117,21.433,16.3,21.6,16.5z"/>
	</g>
</g>
</svg>
