<?xml version="1.0" encoding="utf-8"?>
<!-- Generator: Adobe Illustrator 16.0.0, SVG Export Plug-In . SVG Version: 6.00 Build 0)  -->
<!DOCTYPE svg PUBLIC "-//W3C//DTD SVG 1.1//EN" "http://www.w3.org/Graphics/SVG/1.1/DTD/svg11.dtd">
<svg version="1.1" id="Layer_1" xmlns="http://www.w3.org/2000/svg" xmlns:xlink="http://www.w3.org/1999/xlink" x="0px" y="0px"
	 width="28px" height="25px" viewBox="0 0 28 25" enable-background="new 0 0 28 25" xml:space="preserve">
<g>
	<g>
		<path fill-rule="evenodd" clip-rule="evenodd" fill="#D7C3CD" d="M26,2.55c1.533,1.767,2.184,3.784,1.95,6.05
			c-0.4,3.7-2.233,6.534-5.5,8.5c-3.634,2.2-6.4,4.784-8.3,7.75h-0.3c-1.9-2.966-4.667-5.55-8.3-7.75c-3.267-1.966-5.1-4.8-5.5-8.5
			C-0.184,6.333,0.467,4.317,2,2.55c1.4-1.566,3.2-2.367,5.4-2.4c2.3-0.033,4.5,0.833,6.6,2.6c2.1-1.767,4.3-2.633,6.6-2.6
			C22.8,0.183,24.6,0.983,26,2.55z M23.3,8.35c0-1.233-0.366-2.167-1.1-2.8C21.533,4.917,20.583,4.6,19.35,4.6
			c-2.199,0-3.933,1.233-5.199,3.7h-0.3c-1.267-2.466-3-3.7-5.2-3.7c-1.233,0-2.183,0.316-2.85,0.95c-0.733,0.633-1.1,1.567-1.1,2.8
			c0,0.967,0.25,1.883,0.75,2.75c0.7,1.167,1.967,2.417,3.8,3.75c1.367,0.967,2.3,1.684,2.8,2.15c0.833,0.733,1.483,1.533,1.95,2.4
			c0.467-0.867,1.117-1.667,1.95-2.4c0.533-0.467,1.467-1.184,2.8-2.15c1.833-1.333,3.1-2.583,3.8-3.75
			C23.05,10.233,23.3,9.317,23.3,8.35z"/>
		<path fill-rule="evenodd" clip-rule="evenodd" fill="#FFFFFF" d="M23.3,8.35c0,0.967-0.25,1.883-0.75,2.75
			c-0.7,1.167-1.967,2.417-3.8,3.75c-1.333,0.967-2.267,1.684-2.8,2.15c-0.833,0.733-1.483,1.533-1.95,2.4
			c-0.467-0.867-1.117-1.667-1.95-2.4c-0.5-0.467-1.433-1.184-2.8-2.15c-1.833-1.333-3.1-2.583-3.8-3.75
			C4.95,10.233,4.7,9.317,4.7,8.35c0-1.233,0.366-2.167,1.1-2.8C6.467,4.917,7.417,4.6,8.65,4.6c2.2,0,3.934,1.233,5.2,3.7h0.3
			c1.267-2.466,3-3.7,5.199-3.7c1.233,0,2.184,0.316,2.851,0.95C22.934,6.183,23.3,7.117,23.3,8.35z"/>
	</g>
</g>
</svg>
