<?xml version="1.0" encoding="utf-8"?>
<!-- Generator: Adobe Illustrator 16.0.0, SVG Export Plug-In . SVG Version: 6.00 Build 0)  -->
<!DOCTYPE svg PUBLIC "-//W3C//DTD SVG 1.1//EN" "http://www.w3.org/Graphics/SVG/1.1/DTD/svg11.dtd">
<svg version="1.1" id="Layer_1" xmlns="http://www.w3.org/2000/svg" xmlns:xlink="http://www.w3.org/1999/xlink" x="0px" y="0px"
	 width="30px" height="29px" viewBox="0 0 30 29" enable-background="new 0 0 30 29" xml:space="preserve">
<g>
	<g>
		<path fill-rule="evenodd" clip-rule="evenodd" fill="#D840AF" d="M0.1,1.35c0-0.6,0.466-0.934,1.4-1h3.75
			c0.5,0.1,0.883,0.2,1.15,0.3c0.3,0.1,0.567,0.283,0.8,0.55l0.4,0.65l4.65,12.8c0.5,1.1,1.35,1.75,2.55,1.95h5.5
			c0.3-0.033,0.601-0.083,0.9-0.149c0.6-0.2,1.1-0.566,1.5-1.101c0.167-0.199,0.3-0.466,0.399-0.8l1.551-4.2
			C24.85,9.517,24.483,9,23.55,8.8l-8.3-0.45c-1-0.267-1.5-0.783-1.5-1.55c0-0.8,0.5-1.233,1.5-1.3H28.1c0.2,0,0.4,0.05,0.601,0.15
			c1.066,0.2,1.45,0.917,1.149,2.15C29.783,8.1,29.7,8.4,29.6,8.7l-3,9.649c-0.6,1.7-1.649,2.567-3.149,2.601H11.3
			c-0.2,0-0.433-0.017-0.7-0.05c-0.8-0.167-1.4-0.551-1.8-1.15c-0.1-0.1-0.183-0.217-0.25-0.35L4.05,4.95c0-0.434-0.1-0.8-0.3-1.1
			c-0.233-0.467-0.633-0.833-1.2-1.1c-0.3-0.133-0.6-0.233-0.9-0.3H1.5C0.566,2.317,0.1,1.95,0.1,1.35z"/>
		<path fill-rule="evenodd" clip-rule="evenodd" fill="#CF44A7" d="M19.85,25.75c0-0.8,0.268-1.467,0.801-2
			c0.566-0.566,1.25-0.85,2.05-0.85s1.483,0.283,2.05,0.85c0.6,0.533,0.9,1.2,0.9,2c0,0.833-0.301,1.517-0.9,2.05
			c-0.566,0.601-1.25,0.9-2.05,0.9s-1.483-0.3-2.05-0.9C20.117,27.267,19.85,26.583,19.85,25.75z M13.3,23.75
			c0.6,0.533,0.9,1.2,0.9,2c0,0.833-0.3,1.517-0.9,2.05c-0.533,0.601-1.2,0.9-2,0.9c-0.767,0-1.45-0.3-2.05-0.9
			c-0.566-0.533-0.85-1.217-0.85-2.05c0-0.8,0.284-1.467,0.85-2c0.6-0.566,1.283-0.85,2.05-0.85C12.1,22.9,12.767,23.184,13.3,23.75
			z"/>
	</g>
</g>
</svg>
