<?xml version="1.0" encoding="utf-8"?>
<!-- Generator: Adobe Illustrator 16.0.0, SVG Export Plug-In . SVG Version: 6.00 Build 0)  -->
<!DOCTYPE svg PUBLIC "-//W3C//DTD SVG 1.1//EN" "http://www.w3.org/Graphics/SVG/1.1/DTD/svg11.dtd">
<svg version="1.1" id="Layer_1" xmlns="http://www.w3.org/2000/svg" xmlns:xlink="http://www.w3.org/1999/xlink" x="0px" y="0px"
	 width="71px" height="71px" viewBox="0 0 71 71" enable-background="new 0 0 71 71" xml:space="preserve">
<g>
	<g>
		<path fill-rule="evenodd" clip-rule="evenodd" fill="#D7C3CD" d="M60.55,10.45c6.934,6.933,10.4,15.283,10.4,25.05
			c0,9.8-3.467,18.15-10.4,25.05c-6.899,6.934-15.25,10.4-25.05,10.4s-18.167-3.467-25.1-10.4C3.5,53.65,0.05,45.3,0.05,35.5
			c0-9.767,3.45-18.117,10.35-25.05C17.333,3.55,25.7,0.1,35.5,0.1S53.65,3.55,60.55,10.45z M70,35.5
			c0-9.533-3.366-17.667-10.1-24.4S45.033,1,35.5,1S17.817,4.367,11.05,11.1C4.35,17.833,1,25.967,1,35.5
			c0,9.566,3.35,17.7,10.05,24.4C17.817,66.667,25.967,70.05,35.5,70.05S53.167,66.667,59.9,59.9C66.634,53.2,70,45.066,70,35.5z"/>
		<path fill-rule="evenodd" clip-rule="evenodd" fill="#D7C3CD" d="M26.95,25.9l-0.75,7.95l7.95-0.75l-2.25-2.25
			c0.934-0.667,2-1,3.2-1c1.567,0,2.917,0.566,4.051,1.7c1.1,1.1,1.649,2.417,1.649,3.95c0,1.566-0.55,2.917-1.649,4.05
			c-1.134,1.101-2.483,1.65-4.051,1.65c-1.533,0-2.833-0.517-3.899-1.55c-0.4-0.4-0.867-0.601-1.4-0.601
			c-0.566,0-1.033,0.2-1.4,0.601c-0.4,0.399-0.6,0.883-0.6,1.449c0,0.534,0.2,1,0.6,1.4c1.867,1.8,4.1,2.7,6.7,2.7
			c2.7,0,5-0.934,6.9-2.8c1.866-1.9,2.8-4.2,2.8-6.9c0-2.667-0.934-4.933-2.8-6.8c-1.9-1.9-4.2-2.85-6.9-2.85
			c-2.3,0-4.316,0.717-6.05,2.15L26.95,25.9z M23.95,23.95c3.2-3.167,7.05-4.75,11.55-4.75s8.333,1.583,11.5,4.75
			c3.2,3.2,4.8,7.05,4.8,11.55S50.2,43.833,47,47c-3.167,3.2-7,4.8-11.5,4.8s-8.35-1.6-11.55-4.8c-3.167-3.167-4.75-7-4.75-11.5
			S20.783,27.15,23.95,23.95z"/>
	</g>
</g>
</svg>
