<?xml version="1.0" encoding="utf-8"?>
<!-- Generator: Adobe Illustrator 16.0.0, SVG Export Plug-In . SVG Version: 6.00 Build 0)  -->
<!DOCTYPE svg PUBLIC "-//W3C//DTD SVG 1.1//EN" "http://www.w3.org/Graphics/SVG/1.1/DTD/svg11.dtd">
<svg version="1.1" id="Layer_1" xmlns="http://www.w3.org/2000/svg" xmlns:xlink="http://www.w3.org/1999/xlink" x="0px" y="0px"
	 width="71px" height="71px" viewBox="0 0 71 71" enable-background="new 0 0 71 71" xml:space="preserve">
<g>
	<g>
		<path fill-rule="evenodd" clip-rule="evenodd" fill="#D7C3CD" d="M70,35.5c0-9.533-3.366-17.667-10.1-24.4S45.033,1,35.5,1
			S17.816,4.367,11.05,11.1C4.35,17.833,1,25.967,1,35.5c0,9.566,3.35,17.7,10.05,24.4C17.816,66.667,25.967,70.05,35.5,70.05
			S53.167,66.667,59.9,59.9C66.634,53.2,70,45.066,70,35.5z M60.55,10.45c6.934,6.933,10.4,15.283,10.4,25.05
			c0,9.8-3.467,18.15-10.4,25.05c-6.899,6.934-15.25,10.4-25.05,10.4s-18.167-3.467-25.1-10.4C3.5,53.65,0.05,45.3,0.05,35.5
			c0-9.767,3.45-18.117,10.35-25.05C17.333,3.55,25.7,0.1,35.5,0.1S53.65,3.55,60.55,10.45z"/>
		<path fill-rule="evenodd" clip-rule="evenodd" fill="#D7C3CD" d="M32.55,17.1c0.167-0.233,0.3-0.434,0.4-0.6
			c0.733-1.033,1.5-1.533,2.3-1.5c0.8-0.033,1.566,0.467,2.3,1.5c0.367,0.467,0.717,0.867,1.05,1.2
			c0.334,0.333,0.65,0.583,0.95,0.75c0.267,0.133,0.533,0.2,0.8,0.2c0.267,0.033,0.567,0,0.9-0.1l0.05-0.05
			c0.434-0.167,0.75-0.283,0.95-0.35c0.267-0.133,0.5-0.233,0.7-0.3c1.133-0.5,2.033-0.55,2.7-0.15
			c0.733,0.367,1.166,1.183,1.3,2.45c0.066,0.6,0.149,1.117,0.25,1.55c0.133,0.433,0.283,0.816,0.45,1.15
			c0.333,0.467,0.8,0.75,1.399,0.85c0.033,0,0.066,0,0.101,0c0.433,0.066,0.783,0.117,1.05,0.15s0.5,0.066,0.7,0.1
			c1.267,0.133,2.083,0.55,2.449,1.25c0.434,0.667,0.384,1.583-0.149,2.75c-0.233,0.533-0.417,1.017-0.55,1.45
			c0,0.033,0,0.067,0,0.1s0,0.067,0,0.1c-0.067,0.333-0.117,0.633-0.15,0.9c0,0.033,0,0.067,0,0.1c0.033,0.6,0.316,1.083,0.85,1.45
			c0.301,0.267,0.551,0.483,0.75,0.65c0.2,0.167,0.384,0.3,0.551,0.4c1.033,0.767,1.533,1.533,1.5,2.3
			c0.033,0.8-0.467,1.567-1.5,2.3c-0.467,0.366-0.867,0.717-1.2,1.05c-0.033,0-0.05,0.017-0.05,0.05
			C53.3,38.9,53.2,39.017,53.1,39.15c-0.066,0.1-0.133,0.183-0.199,0.25c-0.101,0.1-0.167,0.199-0.2,0.3
			c-0.233,0.467-0.267,0.967-0.101,1.5c0.034,0.033,0.051,0.083,0.051,0.149L52.7,41.4C52.833,41.8,52.934,42.1,53,42.3
			c0.134,0.267,0.233,0.5,0.3,0.7c0.533,1.134,0.584,2.033,0.15,2.7c-0.367,0.7-1.184,1.116-2.45,1.25c-0.6,0.1-1.116,0.2-1.55,0.3
			H49.4c-0.467,0.033-0.9,0.233-1.301,0.6c-0.233,0.2-0.416,0.5-0.55,0.9C47.517,48.816,47.5,48.9,47.5,49
			c-0.033,0.033-0.05,0.083-0.05,0.15c-0.066,0.366-0.117,0.666-0.15,0.899c0,0.267-0.017,0.517-0.05,0.75
			c-0.134,1.233-0.566,2.033-1.3,2.4c-0.667,0.434-1.566,0.399-2.7-0.101c-0.566-0.267-1.066-0.449-1.5-0.55
			c-0.467-0.1-0.866-0.166-1.2-0.2C40.083,52.417,39.7,52.6,39.4,52.9c-0.101,0.066-0.2,0.166-0.301,0.3
			c-0.3,0.333-0.533,0.6-0.699,0.8c-0.167,0.233-0.301,0.434-0.4,0.6c-0.767,1-1.533,1.483-2.3,1.45
			c-0.8,0.033-1.583-0.45-2.35-1.45c-0.333-0.5-0.667-0.899-1-1.199C32.017,53.066,31.7,52.8,31.4,52.6
			c-0.433-0.199-0.883-0.233-1.35-0.1c-0.1,0-0.2,0.033-0.3,0.1H29.7c-0.434,0.167-0.767,0.284-1,0.351
			c-0.267,0.133-0.483,0.233-0.65,0.3c-1.167,0.533-2.083,0.583-2.75,0.15c-0.7-0.367-1.117-1.184-1.25-2.45
			c-0.066-0.601-0.167-1.117-0.3-1.55V49.35c-0.033-0.1-0.05-0.183-0.05-0.25c-0.134-0.267-0.25-0.517-0.35-0.75
			c0-0.033-0.017-0.066-0.05-0.1c-0.066-0.066-0.133-0.15-0.2-0.25c-0.233-0.267-0.6-0.467-1.1-0.6h-0.1
			c-0.433-0.067-0.767-0.117-1-0.15c-0.267-0.033-0.5-0.066-0.7-0.1c-1.267-0.134-2.083-0.551-2.45-1.25
			c-0.434-0.667-0.4-1.567,0.1-2.7c0.267-0.566,0.45-1.066,0.55-1.5c0.1-0.467,0.167-0.867,0.2-1.2c-0.034-0.467-0.2-0.85-0.5-1.15
			c-0.1-0.133-0.217-0.233-0.35-0.3c-0.333-0.3-0.6-0.533-0.8-0.7c-0.233-0.166-0.417-0.316-0.55-0.449
			c-1.033-0.733-1.533-1.5-1.5-2.3c-0.033-0.8,0.467-1.567,1.5-2.3c0.467-0.333,0.867-0.667,1.2-1c0.3-0.333,0.55-0.65,0.75-0.95
			c0.2-0.4,0.25-0.833,0.15-1.3c-0.033-0.133-0.067-0.25-0.1-0.35c-0.167-0.434-0.3-0.767-0.4-1c-0.1-0.267-0.2-0.483-0.3-0.65
			c-0.5-1.167-0.534-2.083-0.1-2.75c0.367-0.7,1.183-1.117,2.45-1.25c0.567-0.066,1.067-0.167,1.5-0.3h0.05
			c0.466-0.033,0.917-0.233,1.35-0.6c0.133-0.1,0.25-0.233,0.35-0.4c0.133-0.267,0.217-0.567,0.25-0.9
			c0.067-0.367,0.117-0.667,0.15-0.9c0.033-0.267,0.05-0.5,0.05-0.7c0.133-1.267,0.566-2.083,1.3-2.45
			c0.667-0.433,1.567-0.4,2.7,0.1c0.566,0.267,1.066,0.45,1.5,0.55h0.05c0.434,0.2,0.917,0.25,1.45,0.15
			c0.267-0.033,0.533-0.167,0.8-0.4c0.133-0.1,0.25-0.233,0.35-0.4C32.167,17.5,32.383,17.267,32.55,17.1z M28,38.3l3.55,3.351
			c1.367,1.267,2.75,1.267,4.15,0l7-6.7c0.533-0.567,0.816-1.167,0.85-1.8c0.033-0.7-0.233-1.283-0.8-1.75
			c-1.033-0.8-2.15-0.683-3.35,0.35l-5.8,5.6l-2.45-2.399c-0.733-0.6-1.383-0.95-1.95-1.05c-0.6-0.066-1.167,0.167-1.7,0.7
			c-0.4,0.533-0.583,1.1-0.55,1.7c0.033,0.601,0.283,1.167,0.75,1.7C27.767,38.066,27.867,38.167,28,38.3z M35.5,20.55
			c-4.133,0-7.667,1.45-10.6,4.35c-2.9,2.934-4.35,6.467-4.35,10.6c0,4.134,1.45,7.65,4.35,10.55c2.934,2.934,6.467,4.4,10.6,4.4
			c4.134,0,7.65-1.467,10.55-4.4c2.934-2.899,4.4-6.416,4.4-10.55c0-4.133-1.467-7.667-4.4-10.6C43.15,22,39.634,20.55,35.5,20.55z
			 M35.5,22.95c3.467,0,6.417,1.216,8.85,3.65c2.467,2.467,3.7,5.433,3.7,8.9s-1.233,6.434-3.7,8.9
			c-2.433,2.433-5.383,3.649-8.85,3.649s-6.434-1.217-8.9-3.649c-2.434-2.467-3.65-5.434-3.65-8.9s1.216-6.433,3.65-8.9
			C29.066,24.167,32.033,22.95,35.5,22.95z"/>
	</g>
</g>
</svg>
