<?xml version="1.0" encoding="utf-8"?>
<!-- Generator: Adobe Illustrator 16.0.0, SVG Export Plug-In . SVG Version: 6.00 Build 0)  -->
<!DOCTYPE svg PUBLIC "-//W3C//DTD SVG 1.1//EN" "http://www.w3.org/Graphics/SVG/1.1/DTD/svg11.dtd">
<svg version="1.1" id="Layer_1" xmlns="http://www.w3.org/2000/svg" xmlns:xlink="http://www.w3.org/1999/xlink" x="0px" y="0px"
	 width="16px" height="14px" viewBox="0 0 16 14" enable-background="new 0 0 16 14" xml:space="preserve">
<g>
	<path fill-rule="evenodd" clip-rule="evenodd" fill="#D840AF" d="M8,1.6c1.167-1,2.383-1.483,3.65-1.45
		c1.232,0,2.25,0.434,3.05,1.3c0.833,0.966,1.183,2.1,1.05,3.4c-0.2,2.066-1.217,3.633-3.05,4.7c-2,1.233-3.533,2.667-4.601,4.3H7.9
		c-1.066-1.633-2.6-3.066-4.6-4.3c-1.8-1.066-2.816-2.633-3.05-4.7c-0.133-1.3,0.233-2.434,1.1-3.4c0.767-0.867,1.767-1.3,3-1.3
		C5.617,0.117,6.833,0.6,8,1.6z"/>
</g>
</svg>
