<?xml version="1.0" encoding="utf-8"?>
<!-- Generator: Adobe Illustrator 16.0.0, SVG Export Plug-In . SVG Version: 6.00 Build 0)  -->
<!DOCTYPE svg PUBLIC "-//W3C//DTD SVG 1.1//EN" "http://www.w3.org/Graphics/SVG/1.1/DTD/svg11.dtd">
<svg version="1.1" id="Layer_1" xmlns="http://www.w3.org/2000/svg" xmlns:xlink="http://www.w3.org/1999/xlink" x="0px" y="0px"
	 width="16px" height="14px" viewBox="0 0 16 14" enable-background="new 0 0 16 14" xml:space="preserve">
<g>
	<path fill-rule="evenodd" clip-rule="evenodd" fill="#D7C3CD" d="M1.35,1.5c0.767-0.9,1.767-1.35,3-1.35
		C5.617,0.15,6.833,0.633,8,1.6h0.05c1.134-0.967,2.333-1.45,3.601-1.45c1.232,0,2.25,0.45,3.05,1.35
		c0.833,0.967,1.2,2.083,1.1,3.35c-0.233,2.066-1.267,3.633-3.1,4.7c-2,1.233-3.533,2.667-4.601,4.3H7.9
		c-1.033-1.633-2.566-3.066-4.6-4.3c-1.8-1.066-2.816-2.633-3.05-4.7C0.117,3.583,0.483,2.467,1.35,1.5z"/>
</g>
</svg>
