<?xml version="1.0" encoding="utf-8"?>
<!-- Generator: Adobe Illustrator 16.0.0, SVG Export Plug-In . SVG Version: 6.00 Build 0)  -->
<!DOCTYPE svg PUBLIC "-//W3C//DTD SVG 1.1//EN" "http://www.w3.org/Graphics/SVG/1.1/DTD/svg11.dtd">
<svg version="1.1" id="Layer_1" xmlns="http://www.w3.org/2000/svg" xmlns:xlink="http://www.w3.org/1999/xlink" x="0px" y="0px"
	 width="16px" height="14px" viewBox="0 0 16 14" enable-background="new 0 0 16 14" xml:space="preserve">
<g>
	<g>
		<path fill-rule="evenodd" clip-rule="evenodd" fill="#D840AF" d="M8,1.6v12.25H7.9c-1.066-1.633-2.6-3.066-4.6-4.3
			c-1.8-1.066-2.816-2.633-3.05-4.7c-0.133-1.3,0.233-2.434,1.1-3.4c0.767-0.867,1.767-1.3,3-1.3C5.583,0.117,6.8,0.583,8,1.55V1.6z
			"/>
		<path fill-rule="evenodd" clip-rule="evenodd" fill="#D7C3CD" d="M8,13.85V1.6c1.167-1,2.384-1.483,3.65-1.45
			c1.233,0,2.25,0.434,3.05,1.3c0.833,0.966,1.184,2.1,1.05,3.4c-0.233,2.066-1.25,3.633-3.05,4.7c-2,1.233-3.533,2.667-4.601,4.3H8
			z"/>
	</g>
</g>
</svg>
