<?xml version="1.0" encoding="utf-8"?>
<!-- Generator: Adobe Illustrator 16.0.0, SVG Export Plug-In . SVG Version: 6.00 Build 0)  -->
<!DOCTYPE svg PUBLIC "-//W3C//DTD SVG 1.1//EN" "http://www.w3.org/Graphics/SVG/1.1/DTD/svg11.dtd">
<svg version="1.1" id="Layer_7" xmlns="http://www.w3.org/2000/svg" xmlns:xlink="http://www.w3.org/1999/xlink" x="0px" y="0px"
	 width="22px" height="20px" viewBox="0 0 22 20" enable-background="new 0 0 22 20" xml:space="preserve">
<g>
	<path fill-rule="evenodd" clip-rule="evenodd" fill="#D840AF" d="M14.25,3.75c1.233,1.3,1.816,2.867,1.75,4.7
		c-0.033,0.966-0.25,1.85-0.65,2.649c-0.1,0.801,0.117,1.534,0.65,2.2l0.05,0.05l2.8,3.301c0.2,0.199,0.267,0.433,0.2,0.699
		c0.033,0.267-0.05,0.5-0.25,0.7c-0.233,0.2-0.5,0.3-0.8,0.3c-0.233,0-0.45-0.1-0.65-0.3L14.15,15.1c-0.667-0.6-1.4-0.883-2.2-0.85
		c-0.834,0.366-1.717,0.533-2.65,0.5c-1.833-0.033-3.367-0.717-4.6-2.05C3.5,11.4,2.917,9.833,2.95,8C3.017,6.233,3.7,4.717,5,3.45
		C6.333,2.217,7.883,1.633,9.65,1.7C11.483,1.733,13.017,2.417,14.25,3.75z M11.85,10.8c0.7-0.7,1.067-1.517,1.101-2.45
		c0.033-0.967-0.267-1.8-0.9-2.5c-0.666-0.7-1.483-1.067-2.45-1.1S7.8,5.033,7.1,5.7C6.433,6.333,6.067,7.133,6,8.1
		c0,0.967,0.333,1.816,1,2.55c0.633,0.666,1.417,1.033,2.35,1.1C10.317,11.75,11.15,11.434,11.85,10.8z"/>
</g>
</svg>
