<?xml version="1.0" encoding="utf-8"?>
<!-- Generator: Adobe Illustrator 16.0.0, SVG Export Plug-In . SVG Version: 6.00 Build 0)  -->
<!DOCTYPE svg PUBLIC "-//W3C//DTD SVG 1.1//EN" "http://www.w3.org/Graphics/SVG/1.1/DTD/svg11.dtd">
<svg version="1.1" id="Layer_1" xmlns="http://www.w3.org/2000/svg" xmlns:xlink="http://www.w3.org/1999/xlink" x="0px" y="0px"
	 width="17px" height="17px" viewBox="0 0 17 17" enable-background="new 0 0 17 17" xml:space="preserve">
<g>
	<path fill-rule="evenodd" clip-rule="evenodd" fill="#D7C3CD" d="M7.1,3.25C6.133,3.217,5.3,3.533,4.6,4.2
		C3.934,4.833,3.567,5.633,3.5,6.6c0,0.967,0.333,1.816,1,2.55c0.633,0.666,1.417,1.033,2.35,1.1c0.967,0,1.8-0.316,2.5-0.95
		c0.7-0.7,1.067-1.517,1.101-2.45c0.033-0.967-0.267-1.8-0.9-2.5C8.884,3.65,8.066,3.283,7.1,3.25z M2.2,11.2
		C1,9.9,0.417,8.333,0.45,6.5C0.517,4.733,1.2,3.217,2.5,1.95C3.833,0.717,5.383,0.133,7.15,0.2c1.833,0.033,3.367,0.716,4.6,2.05
		c1.233,1.3,1.816,2.867,1.75,4.7C13.467,7.917,13.25,8.8,12.85,9.6c-0.1,0.801,0.117,1.534,0.65,2.2l0.05,0.05l2.8,3.301
		c0.2,0.199,0.268,0.433,0.2,0.699c0.033,0.267-0.05,0.5-0.25,0.7c-0.233,0.2-0.5,0.3-0.8,0.3c-0.233,0-0.45-0.1-0.65-0.3
		L11.65,13.6c-0.667-0.6-1.4-0.883-2.2-0.85c-0.833,0.366-1.717,0.533-2.65,0.5C4.967,13.217,3.434,12.533,2.2,11.2z"/>
</g>
</svg>
