<?xml version="1.0" encoding="utf-8"?>
<!-- Generator: Adobe Illustrator 16.0.0, SVG Export Plug-In . SVG Version: 6.00 Build 0)  -->
<!DOCTYPE svg PUBLIC "-//W3C//DTD SVG 1.1//EN" "http://www.w3.org/Graphics/SVG/1.1/DTD/svg11.dtd">
<svg version="1.1" id="Layer_1" xmlns="http://www.w3.org/2000/svg" xmlns:xlink="http://www.w3.org/1999/xlink" x="0px" y="0px"
	 width="53px" height="39px" viewBox="0 0 53 39" enable-background="new 0 0 53 39" xml:space="preserve">
<g>
	<g>
		<path fill-rule="evenodd" clip-rule="evenodd" fill="#B4B4B4" d="M30.1,30.95c-1.255-0.255-2.388-0.889-3.399-1.9
			c-0.367-0.399-0.7-0.783-1-1.149c-0.3,0.366-0.633,0.75-1,1.149c-1.033,1.033-2.191,1.666-3.475,1.9
			c0.356-0.099,0.748-0.315,1.175-0.65c0.067,0,0.117-0.033,0.15-0.1c0.2-0.134,0.35-0.25,0.45-0.351c0.4-0.533,0.733-0.966,1-1.3
			c0.2-0.399,0.367-0.75,0.5-1.05c0.133-0.267,0.283-0.65,0.45-1.15c0.2-0.533,0.5-1.316,0.9-2.35c0.567,2.267,1.183,3.866,1.85,4.8
			c0.633,0.967,1.366,1.65,2.2,2.05C29.97,30.885,30.036,30.918,30.1,30.95z M30.95,31.05c0.293-0.061,0.56-0.228,0.8-0.5h0.05
			c0.5-0.566,0.934-1.2,1.3-1.899c0.167-0.4,0.301-0.801,0.4-1.2c0.233-1.134,0.116-2.283-0.35-3.45
			c0.267-0.267,0.649-0.616,1.149-1.05c0.057-0.054,0.115-0.104,0.175-0.15c3.081-0.551,5.84-1.518,8.275-2.9
			c4.7-2.733,7.267-6.45,7.7-11.15c0.066-1.9-0.434-3.483-1.5-4.75c-0.634-0.733-1.367-1.283-2.2-1.65
			c-1.233-0.434-2.684-0.6-4.35-0.5L27.3,1.9h-1.55l-15.1-0.05c-1.667-0.1-3.117,0.066-4.35,0.5C5.467,2.717,4.733,3.267,4.1,4
			C3.033,5.267,2.533,6.85,2.6,8.75c0.433,4.7,3,8.417,7.7,11.15c1.962,1.114,4.137,1.956,6.525,2.525
			c0.313,0.32,0.654,0.662,1.025,1.025c0.233,0.233,0.45,0.45,0.65,0.649l-0.05,0.051c-0.6,0.767-0.784,1.816-0.55,3.149
			c0.2,0.5,0.383,0.95,0.55,1.351c0.3,0.633,0.65,1.183,1.05,1.649c0.354,0.489,0.779,0.73,1.275,0.726
			c-0.109,0.01-0.217,0.018-0.325,0.024c-0.067,0-0.133,0-0.2,0c-0.5-0.066-0.933-0.316-1.3-0.75c-0.367-0.366-0.684-0.767-0.95-1.2
			c-0.372-0.54-0.697-1.065-0.975-1.574c-0.658-1.186-1.049-2.261-1.175-3.226c-1.368-0.354-2.668-0.786-3.9-1.3
			c-3.167,2.233-5.767,4.917-7.8,8.05c-0.467,0.634-0.9,1.316-1.3,2.05C2.817,33.2,2.767,33.3,2.7,33.4C3,34,3.367,34.533,3.8,35
			c1.534,1.634,3.817,2.35,6.85,2.15H42.4c3.033,0.199,5.316-0.517,6.85-2.15c0.434-0.467,0.8-1,1.1-1.6
			c-0.066-0.134-0.133-0.25-0.199-0.351c-0.367-0.7-0.784-1.366-1.25-2c-2.034-3.133-4.634-5.816-7.801-8.05
			c-1.736,0.724-3.604,1.282-5.6,1.675c-0.163,0.811-0.497,1.693-1,2.65c-0.309,0.565-0.675,1.157-1.1,1.774
			c-0.267,0.434-0.584,0.834-0.95,1.2c-0.367,0.434-0.8,0.684-1.3,0.75C31.083,31.05,31.017,31.05,30.95,31.05z M6.7,0.65
			c0.4-0.1,0.816-0.167,1.25-0.2c0.867-0.133,1.783-0.167,2.75-0.1H42.35c0.967-0.067,1.884-0.033,2.75,0.1
			c0.434,0.033,0.851,0.1,1.25,0.2c0.4,0.1,0.784,0.217,1.15,0.35c1.167,0.433,2.15,1.1,2.95,2c0.899,0.967,1.533,2.15,1.899,3.55
			C52.45,6.917,52.5,7.333,52.5,7.8c0.1,0.6,0.15,1.25,0.15,1.95c0,0.3,0,0.6,0,0.9v18.6c-0.034,2.134-0.45,3.917-1.25,5.35
			c-0.301,0.5-0.65,0.967-1.051,1.4c-1.8,2-4.466,2.884-8,2.65H10.7C7.167,38.884,4.5,38,2.7,36c-0.4-0.434-0.733-0.9-1-1.4
			c-0.833-1.433-1.267-3.216-1.3-5.35v-18.6c0-0.3,0-0.6,0-0.9c0-0.7,0.05-1.35,0.15-1.95c0-0.466,0.05-0.883,0.15-1.25
			c0.367-1.4,1-2.583,1.9-3.55c0.8-0.9,1.783-1.567,2.95-2C5.917,0.867,6.3,0.75,6.7,0.65z M3.85,30.05c1.5-3.033,3.55-5.7,6.15-8
			c-0.233-0.133-0.467-0.267-0.7-0.399c-2.6-1.5-4.617-3.284-6.05-5.351c-0.5-0.733-0.933-1.5-1.3-2.3L1.9,13.95v15.3
			c0.033,1.434,0.25,2.7,0.65,3.8c0.367-1,0.767-1.95,1.2-2.85C3.783,30.134,3.817,30.083,3.85,30.05z M49.8,16.3
			c-1.434,2.067-3.45,3.851-6.05,5.351c-0.233,0.133-0.467,0.267-0.7,0.399c2.601,2.3,4.65,4.967,6.15,8
			c0.033,0.033,0.066,0.084,0.1,0.15c0.434,0.899,0.834,1.85,1.2,2.85c0.4-1.1,0.616-2.366,0.65-3.8v-15.3L51.1,14
			C50.733,14.8,50.3,15.567,49.8,16.3z"/>
		<path fill-rule="evenodd" clip-rule="evenodd" fill="#FFFFFF" d="M34.475,22.8c1.21-1.168,2.102-2.135,2.676-2.9
			c0.199-0.233,0.416-0.45,0.649-0.65c0.7-1.033,1.184-1.833,1.45-2.4c0.2-0.4,0.35-0.767,0.45-1.1
			c0.233-0.9-0.134-1.517-1.101-1.85c-2.066-0.8-4.716-0.1-7.949,2.1c-0.233,0.133-0.45,0.3-0.65,0.5
			c-1.467,1.233-2.6,2.333-3.4,3.3c-0.033,0.034-0.283,0.334-0.75,0.9L25.2,20c-0.934-1.033-2.133-2.2-3.6-3.5
			c-0.167-0.2-0.35-0.383-0.55-0.55c-3.3-2.233-6.033-2.95-8.2-2.15c-0.833,0.333-1.133,0.967-0.9,1.9
			c0.033,0.333,0.15,0.683,0.35,1.05c0.3,0.6,0.833,1.4,1.6,2.4c0.167,0.233,0.333,0.45,0.5,0.65c0.469,0.6,1.278,1.475,2.425,2.625
			c-2.389-0.569-4.563-1.411-6.525-2.525c-4.7-2.733-7.267-6.45-7.7-11.15C2.533,6.85,3.033,5.267,4.1,4
			c0.633-0.733,1.367-1.283,2.2-1.65c1.233-0.434,2.684-0.6,4.35-0.5l15.1,0.05h1.55L42.4,1.85c1.666-0.1,3.116,0.066,4.35,0.5
			c0.833,0.367,1.566,0.917,2.2,1.65c1.066,1.267,1.566,2.85,1.5,4.75c-0.434,4.7-3,8.417-7.7,11.15
			C40.314,21.282,37.556,22.249,34.475,22.8z M3.25,16.3c1.733,5.9,1.933,10.483,0.6,13.75c-0.033,0.033-0.067,0.084-0.1,0.15
			c-0.433,0.899-0.833,1.85-1.2,2.85c-0.4-1.1-0.617-2.366-0.65-3.8v-15.3L1.95,14C2.317,14.8,2.75,15.567,3.25,16.3z M49.2,30.05
			c-1.367-4-1.167-8.583,0.6-13.75c0.5-0.733,0.934-1.5,1.3-2.3l0.051-0.05v15.3c-0.034,1.434-0.25,2.7-0.65,3.8
			c-0.366-1-0.767-1.95-1.2-2.85C49.267,30.134,49.233,30.083,49.2,30.05z M4.15,31.05c0.133,0.233,0.283,0.467,0.45,0.7
			c1.033-0.7,2.333-1.35,3.9-1.95c2.57-1.018,5.412-1.775,8.525-2.274C17.303,28.034,17.628,28.56,18,29.1
			c0.267,0.434,0.583,0.834,0.95,1.2c0.367,0.434,0.8,0.684,1.3,0.75c0.067,0,0.133,0,0.2,0c0.107-0.007,0.216-0.015,0.325-0.024
			c0.15-0.021,0.3-0.046,0.45-0.075c1.284-0.234,2.442-0.867,3.475-1.9c0.367-0.399,0.7-0.783,1-1.149c0.3,0.366,0.633,0.75,1,1.149
			c1.012,1.012,2.145,1.646,3.399,1.9c0.272,0.048,0.547,0.081,0.825,0.1h0.025c0.066,0,0.133,0,0.2,0
			c0.5-0.066,0.933-0.316,1.3-0.75c0.366-0.366,0.684-0.767,0.95-1.2c0.425-0.617,0.791-1.209,1.1-1.774
			c3.719,0.47,7.069,1.295,10.05,2.475c1.566,0.601,2.884,1.25,3.95,1.95c0.134-0.233,0.267-0.467,0.4-0.7
			c0.466,0.634,0.883,1.3,1.25,2c0.066,0.101,0.133,0.217,0.199,0.351c-0.3,0.6-0.666,1.133-1.1,1.6
			c-1.533,1.634-3.816,2.35-6.85,2.15H10.65C7.617,37.35,5.333,36.634,3.8,35c-0.433-0.467-0.8-1-1.1-1.6
			C2.767,33.3,2.817,33.2,2.85,33.1C3.25,32.366,3.683,31.684,4.15,31.05z"/>
		
			<linearGradient id="SVGID_1_" gradientUnits="userSpaceOnUse" x1="-36.1885" y1="46.4268" x2="-21.6885" y2="46.4268" gradientTransform="matrix(6.896552e-005 -1 1 -0.001 1.817772e-004 -1.263395e-004)">
			<stop  offset="0" style="stop-color:#FFFFFF"/>
			<stop  offset="1" style="stop-color:#EFEFEF"/>
		</linearGradient>
		<path fill-rule="evenodd" clip-rule="evenodd" fill="url(#SVGID_1_)" d="M49.2,30.05c-1.5-3.033-3.55-5.7-6.15-8
			c0.233-0.133,0.467-0.267,0.7-0.399c2.6-1.5,4.616-3.284,6.05-5.351C48.033,21.467,47.833,26.05,49.2,30.05z"/>
		
			<linearGradient id="SVGID_2_" gradientUnits="userSpaceOnUse" x1="-36.1885" y1="41.7031" x2="-21.6885" y2="41.7031" gradientTransform="matrix(6.896552e-005 -1 1 -0.001 1.817772e-004 -1.263395e-004)">
			<stop  offset="0" style="stop-color:#FFFFFF"/>
			<stop  offset="1" style="stop-color:#E9E9E9"/>
		</linearGradient>
		<path fill-rule="evenodd" clip-rule="evenodd" fill="url(#SVGID_2_)" d="M48.9,31.05c-0.134,0.233-0.267,0.467-0.4,0.7
			c-1.066-0.7-2.384-1.35-3.95-1.95c-2.98-1.18-6.331-2.005-10.05-2.475c0.503-0.957,0.837-1.84,1-2.65
			c1.996-0.393,3.863-0.951,5.6-1.675C44.267,25.233,46.866,27.917,48.9,31.05z"/>
		<linearGradient id="SVGID_3_" gradientUnits="userSpaceOnUse" x1="10.5874" y1="36.1504" x2="10.5874" y2="21.6504">
			<stop  offset="0" style="stop-color:#FFFFFF"/>
			<stop  offset="1" style="stop-color:#E9E9E9"/>
		</linearGradient>
		<path fill-rule="evenodd" clip-rule="evenodd" fill="url(#SVGID_3_)" d="M17.025,27.525C13.912,28.024,11.07,28.782,8.5,29.8
			c-1.567,0.601-2.867,1.25-3.9,1.95c-0.167-0.233-0.317-0.467-0.45-0.7c2.033-3.133,4.633-5.816,7.8-8.05
			c1.232,0.514,2.532,0.946,3.9,1.3C15.976,25.265,16.367,26.34,17.025,27.525z"/>
		<linearGradient id="SVGID_4_" gradientUnits="userSpaceOnUse" x1="6.625" y1="36.1504" x2="6.625" y2="21.6504">
			<stop  offset="0" style="stop-color:#FFFFFF"/>
			<stop  offset="1" style="stop-color:#EFEFEF"/>
		</linearGradient>
		<path fill-rule="evenodd" clip-rule="evenodd" fill="url(#SVGID_4_)" d="M3.85,30.05c1.333-3.267,1.133-7.85-0.6-13.75
			C4.683,18.367,6.7,20.15,9.3,21.65c0.233,0.133,0.467,0.267,0.7,0.399C7.4,24.35,5.35,27.017,3.85,30.05z"/>
		<path fill-rule="evenodd" clip-rule="evenodd" fill="#D043A9" d="M34.475,22.8c-0.06,0.047-0.118,0.097-0.175,0.15
			c-0.5,0.434-0.883,0.783-1.149,1.05c0.466,1.167,0.583,2.316,0.35,3.45c-0.1,0.399-0.233,0.8-0.4,1.2
			c-0.366,0.699-0.8,1.333-1.3,1.899h-0.05c-0.24,0.272-0.507,0.439-0.8,0.5h-0.025c-0.278-0.019-0.553-0.052-0.825-0.1
			c-0.063-0.032-0.13-0.065-0.199-0.101c-0.834-0.399-1.567-1.083-2.2-2.05c-0.667-0.934-1.283-2.533-1.85-4.8
			c-0.4,1.033-0.7,1.816-0.9,2.35c-0.167,0.5-0.317,0.884-0.45,1.15c-0.133,0.3-0.3,0.65-0.5,1.05c-0.267,0.334-0.6,0.767-1,1.3
			c-0.1,0.101-0.25,0.217-0.45,0.351c-0.033,0.066-0.083,0.1-0.15,0.1c-0.427,0.335-0.818,0.552-1.175,0.65
			c-0.15,0.029-0.3,0.055-0.45,0.075c-0.496,0.005-0.921-0.236-1.275-0.726c-0.4-0.467-0.75-1.017-1.05-1.649
			c-0.167-0.4-0.35-0.851-0.55-1.351c-0.233-1.333-0.05-2.383,0.55-3.149L18.5,24.1c-0.2-0.199-0.417-0.416-0.65-0.649
			c-0.371-0.363-0.712-0.705-1.025-1.025c-1.147-1.15-1.956-2.025-2.425-2.625c-0.167-0.2-0.333-0.417-0.5-0.65
			c-0.767-1-1.3-1.8-1.6-2.4c-0.2-0.367-0.316-0.717-0.35-1.05c-0.233-0.934,0.066-1.567,0.9-1.9c2.167-0.8,4.9-0.083,8.2,2.15
			c0.2,0.167,0.383,0.35,0.55,0.55c1.467,1.3,2.667,2.467,3.6,3.5l0.65,0.7c0.466-0.566,0.716-0.867,0.75-0.9
			c0.801-0.966,1.934-2.066,3.4-3.3c0.2-0.2,0.417-0.367,0.65-0.5c3.233-2.2,5.883-2.9,7.949-2.1c0.967,0.333,1.334,0.95,1.101,1.85
			c-0.101,0.333-0.25,0.7-0.45,1.1c-0.267,0.566-0.75,1.367-1.45,2.4c-0.233,0.2-0.45,0.417-0.649,0.65
			C36.576,20.665,35.685,21.632,34.475,22.8z"/>
	</g>
</g>
</svg>
