<?xml version="1.0" encoding="utf-8"?>
<!-- Generator: Adobe Illustrator 16.0.0, SVG Export Plug-In . SVG Version: 6.00 Build 0)  -->
<!DOCTYPE svg PUBLIC "-//W3C//DTD SVG 1.1//EN" "http://www.w3.org/Graphics/SVG/1.1/DTD/svg11.dtd">
<svg version="1.1" id="Layer_1" xmlns="http://www.w3.org/2000/svg" xmlns:xlink="http://www.w3.org/1999/xlink" x="0px" y="0px"
	 width="24px" height="24px" viewBox="0 0 24 24" enable-background="new 0 0 24 24" xml:space="preserve">
<g>
	<g>
		<path fill-rule="evenodd" clip-rule="evenodd" fill="#FFFFFF" d="M11.85,16.4V16.35l-1.9-1.5V14.7l6.3-5.75
			c0.033-0.034,0.066-0.05,0.1-0.05c0-0.033,0.017-0.05,0.051-0.05V8.6c0-0.033-0.018-0.05-0.051-0.05H16.2V8.6h-0.05
			c-0.034,0-0.084,0-0.15,0v0.05h-0.05l-8,5.2l-0.55-0.3L4.05,12.4C4.017,12.4,4,12.384,4,12.35H3.9L3.85,12.3h-0.1
			c0-0.033-0.017-0.05-0.05-0.05V12.2c-0.034,0-0.05-0.017-0.05-0.05c-0.033,0-0.05-0.034-0.05-0.101L3.55,12v-0.05
			c-0.033,0-0.05-0.017-0.05-0.05v-0.1c0-0.033,0-0.083,0-0.15l0.05-0.05v-0.05c0.033,0,0.05-0.017,0.05-0.05l0.1-0.1h0.05
			c0-0.033,0.033-0.05,0.1-0.05L3.9,11.3H4c0-0.066,0.017-0.1,0.05-0.1l13.2-5.1c0.1-0.033,0.184-0.067,0.25-0.1
			c0.767-0.367,1.116-0.15,1.05,0.65l-2.35,11.7V18.4L16.1,18.5v0.05c-0.066,0-0.1,0.017-0.1,0.05c-0.033,0-0.066,0.034-0.1,0.101
			c0,0.033-0.018,0.05-0.051,0.05c-0.033,0.033-0.066,0.05-0.1,0.05s-0.083,0.017-0.15,0.05H15.45c-0.033,0-0.067,0-0.101,0H15.3
			c-0.133,0-0.25-0.033-0.35-0.1L11.85,16.4z"/>
		<linearGradient id="SVGID_1_" gradientUnits="userSpaceOnUse" x1="11.9995" y1="0.25" x2="11.9995" y2="23.65">
			<stop  offset="0" style="stop-color:#42BDE9"/>
			<stop  offset="1" style="stop-color:#23A8DD"/>
		</linearGradient>
		<path fill-rule="evenodd" clip-rule="evenodd" fill="url(#SVGID_1_)" d="M9.3,18.3V18.4h0.1v0.05h0.05V18.4h0.1
			c0.033,0,0.067-0.017,0.1-0.051l2.2-1.949l3.1,2.35c0.1,0.066,0.217,0.1,0.35,0.1h0.05c0.033,0,0.067,0,0.101,0H15.6
			c0.067-0.033,0.117-0.05,0.15-0.05s0.066-0.017,0.1-0.05c0.033,0,0.051-0.017,0.051-0.05c0.033-0.066,0.066-0.101,0.1-0.101
			c0-0.033,0.033-0.05,0.1-0.05V18.5l0.101-0.1V18.35l2.35-11.7c0.066-0.8-0.283-1.017-1.05-0.65c-0.066,0.033-0.15,0.067-0.25,0.1
			l-13.2,5.1C4.017,11.2,4,11.233,4,11.3H3.9l-0.05,0.05c-0.067,0-0.1,0.017-0.1,0.05H3.7l-0.1,0.1c0,0.033-0.017,0.05-0.05,0.05
			v0.05L3.5,11.65c0,0.067,0,0.117,0,0.15v0.1c0,0.033,0.017,0.05,0.05,0.05V12l0.05,0.05c0,0.066,0.017,0.101,0.05,0.101
			c0,0.033,0.017,0.05,0.05,0.05v0.05c0.033,0,0.05,0.017,0.05,0.05h0.1l0.05,0.05H4C4,12.384,4.017,12.4,4.05,12.4L7.4,13.55
			l0.55,0.3H7.9l0.05,0.101l0.15,0.7l0.25,0.55l0.05,0.35L8.85,16.9l0.1,0.55l0.1,0.2v0.1l0.1,0.15c0,0.033,0.017,0.066,0.05,0.1
			v0.1c0.033,0,0.05,0.017,0.05,0.051v0.05C9.283,18.2,9.3,18.233,9.3,18.3z M20.3,3.7c2.3,2.3,3.45,5.066,3.45,8.3
			s-1.15,6-3.45,8.3s-5.066,3.45-8.3,3.45S6,22.6,3.7,20.3C1.4,18,0.25,15.233,0.25,12S1.4,6,3.7,3.7C6,1.4,8.767,0.25,12,0.25
			S18,1.4,20.3,3.7z"/>
		<path fill-rule="evenodd" clip-rule="evenodd" fill="#D3E6F2" d="M9.3,18.3c0-0.066-0.017-0.1-0.05-0.1v-0.05
			c0-0.034-0.017-0.051-0.05-0.051V18c-0.034-0.033-0.05-0.066-0.05-0.1l-0.1-0.15v-0.1l-0.1-0.2l-0.1-0.55L8.4,15.55L8.35,15.2
			L8.1,14.65l-0.15-0.7L7.9,13.85h0.05l8-5.2H16V8.6c0.066,0,0.116,0,0.15,0h0.05V8.55h0.149c0.033,0,0.051,0.017,0.051,0.05v0.25
			c-0.034,0-0.051,0.017-0.051,0.05c-0.033,0-0.066,0.017-0.1,0.05l-6.3,5.75v0.149L9.7,14.7L9.3,18.3z M9.45,18.4v0.05H9.4V18.4
			H9.45z"/>
		<path fill-rule="evenodd" clip-rule="evenodd" fill="#B6D0E5" d="M11.85,16.4l-2.2,1.949C9.617,18.384,9.583,18.4,9.55,18.4h-0.1
			H9.4H9.3V18.3l0.4-3.6l0.25,0.149l1.9,1.5V16.4z"/>
	</g>
</g>
</svg>
