<?xml version="1.0" encoding="utf-8"?>
<!-- Generator: Adobe Illustrator 16.0.0, SVG Export Plug-In . SVG Version: 6.00 Build 0)  -->
<!DOCTYPE svg PUBLIC "-//W3C//DTD SVG 1.1//EN" "http://www.w3.org/Graphics/SVG/1.1/DTD/svg11.dtd">
<svg version="1.1" id="Layer_1" xmlns="http://www.w3.org/2000/svg" xmlns:xlink="http://www.w3.org/1999/xlink" x="0px" y="0px"
	 width="24px" height="24px" viewBox="0 0 24 24" enable-background="new 0 0 24 24" xml:space="preserve">
<g>
	<g>
		<path fill-rule="evenodd" clip-rule="evenodd" fill="#7341A0" d="M19.2,2.7c0.399,0.3,0.783,0.633,1.149,1
			C20.684,4.067,21,4.45,21.3,4.85c0.167,0.2,0.317,0.4,0.45,0.6c0.167,0.2,0.3,0.417,0.4,0.65c0.133,0.2,0.267,0.417,0.399,0.65
			c0.101,0.233,0.2,0.467,0.3,0.7c0.101,0.233,0.2,0.466,0.301,0.7c0.066,0.233,0.133,0.483,0.199,0.75
			c0.067,0.233,0.117,0.483,0.15,0.75c0.066,0.267,0.117,0.533,0.15,0.8c0.033,0.233,0.066,0.483,0.1,0.75c0,0.267,0,0.533,0,0.8
			s0,0.533,0,0.8c-0.033,0.3-0.066,0.566-0.1,0.8c-0.033,0.267-0.084,0.534-0.15,0.801c-0.033,0.267-0.083,0.517-0.15,0.75
			c-0.066,0.233-0.133,0.483-0.199,0.75c-0.101,0.233-0.2,0.466-0.301,0.699c-0.1,0.233-0.199,0.467-0.3,0.7
			c-0.133,0.233-0.267,0.45-0.399,0.65c-0.101,0.2-0.233,0.416-0.4,0.649c-0.133,0.2-0.283,0.4-0.45,0.601
			c-0.3,0.399-0.616,0.783-0.95,1.149C19.983,20.684,19.6,21,19.2,21.3c-0.2,0.167-0.4,0.316-0.601,0.45
			c-0.232,0.167-0.449,0.3-0.649,0.4c-0.2,0.133-0.417,0.267-0.65,0.399c-0.233,0.101-0.467,0.2-0.7,0.3
			c-0.232,0.101-0.466,0.2-0.699,0.301c-0.267,0.066-0.517,0.133-0.75,0.199c-0.233,0.067-0.483,0.117-0.75,0.15
			c-0.267,0.066-0.533,0.116-0.801,0.15c-0.232,0.033-0.5,0.066-0.8,0.1c-0.267,0-0.533,0-0.8,0c-0.4,0-0.8-0.017-1.2-0.05
			c-0.4-0.033-0.783-0.101-1.15-0.2c-0.367-0.066-0.75-0.15-1.15-0.25c-0.333-0.134-0.683-0.267-1.05-0.4
			c-0.367-0.166-0.717-0.333-1.05-0.5c-0.333-0.199-0.65-0.399-0.95-0.6c-0.3-0.2-0.6-0.417-0.9-0.65
			c-0.3-0.267-0.583-0.517-0.85-0.75c-0.267-0.267-0.517-0.55-0.75-0.85S2.5,18.9,2.3,18.6c-0.233-0.333-0.433-0.649-0.6-0.949
			c-0.2-0.367-0.367-0.717-0.5-1.051c-0.167-0.366-0.3-0.733-0.4-1.1c-0.1-0.366-0.2-0.733-0.3-1.1C0.434,14,0.383,13.6,0.35,13.2
			c-0.067-0.4-0.1-0.8-0.1-1.2c0-0.267,0.017-0.533,0.05-0.8c0-0.267,0.017-0.517,0.05-0.75c0.067-0.267,0.117-0.534,0.15-0.8
			C0.567,9.383,0.633,9.133,0.7,8.9c0.066-0.267,0.133-0.517,0.2-0.75C1,7.917,1.1,7.683,1.2,7.45c0.1-0.233,0.2-0.467,0.3-0.7
			C1.633,6.517,1.75,6.3,1.85,6.1C1.983,5.867,2.133,5.65,2.3,5.45c0.134-0.2,0.267-0.4,0.4-0.6c0.3-0.4,0.633-0.783,1-1.15
			s0.75-0.7,1.15-1c0.2-0.133,0.4-0.267,0.6-0.4c0.2-0.167,0.417-0.316,0.65-0.45c0.2-0.1,0.417-0.217,0.65-0.35
			c0.233-0.1,0.467-0.2,0.7-0.3C7.684,1.1,7.917,1,8.15,0.9C8.383,0.833,8.633,0.767,8.9,0.7c0.233-0.067,0.483-0.133,0.75-0.2
			c0.267-0.033,0.534-0.083,0.8-0.15c0.233-0.033,0.483-0.05,0.75-0.05c0.267-0.033,0.533-0.05,0.8-0.05s0.533,0.017,0.8,0.05
			c0.3,0,0.567,0.017,0.8,0.05c0.268,0.066,0.534,0.117,0.801,0.15c0.267,0.067,0.517,0.133,0.75,0.2
			c0.233,0.066,0.483,0.133,0.75,0.2C16.134,1,16.367,1.1,16.6,1.2c0.233,0.1,0.467,0.2,0.7,0.3c0.233,0.133,0.45,0.25,0.65,0.35
			c0.2,0.133,0.417,0.283,0.649,0.45C18.8,2.433,19,2.567,19.2,2.7z"/>
	</g>
	<g>
		<path fill-rule="evenodd" clip-rule="evenodd" fill="#FFFFFF" d="M18.75,6.3c0.066,0.067,0.134,0.15,0.2,0.25
			c0.1,0.1,0.184,0.2,0.25,0.3c0.033,0.1,0.083,0.2,0.149,0.3c0.067,0.1,0.134,0.2,0.2,0.3c0.033,0.1,0.084,0.2,0.15,0.3
			c0.033,0.1,0.066,0.2,0.1,0.3c0.067,0.1,0.117,0.2,0.15,0.3s0.066,0.217,0.1,0.35c0.033,0.1,0.05,0.216,0.05,0.35
			c0.034,0.1,0.067,0.2,0.101,0.3c0,0.133,0.017,0.25,0.05,0.35c0,0.133,0,0.267,0,0.4c0.033,0.1,0.05,0.217,0.05,0.35
			s0,0.267,0,0.4c0.033,0.133,0.05,0.267,0.05,0.4s0,0.283,0,0.45c0,0.1,0,0.216,0,0.35c0,0.101-0.017,0.217-0.05,0.351
			c0,0.1,0,0.216,0,0.35c0,0.1,0,0.217,0,0.35c-0.033,0.134-0.05,0.267-0.05,0.4c-0.033,0.1-0.05,0.217-0.05,0.35
			c-0.033,0.134-0.066,0.25-0.101,0.351c-0.033,0.133-0.066,0.267-0.1,0.399c-0.033,0.134-0.066,0.267-0.1,0.4
			c-0.033,0.1-0.067,0.217-0.101,0.35c-0.066,0.101-0.116,0.217-0.149,0.351c-0.067,0.133-0.134,0.25-0.2,0.35
			c-0.134,0.233-0.267,0.467-0.4,0.7c-0.166,0.2-0.366,0.4-0.6,0.6c-0.267,0.301-0.617,0.551-1.05,0.75
			c-0.2,0.101-0.417,0.2-0.65,0.301c-0.233,0.066-0.483,0.133-0.75,0.199c-0.3,0.101-0.6,0.167-0.9,0.2
			c-0.3,0.066-0.633,0.117-1,0.15c-0.333,0.033-0.683,0.066-1.05,0.1c-0.399,0-0.8,0-1.2,0L9.8,20.8
			c-0.033,0.033-0.066,0.066-0.1,0.101c-0.033,0-0.05,0.017-0.05,0.05c-0.033,0-0.066,0-0.1,0L9.5,21H9.4c-0.033,0-0.066,0-0.1,0
			H9.25c-0.033,0-0.066,0-0.1,0H9.1c-0.033,0-0.05-0.017-0.05-0.05c-0.033,0-0.066,0-0.1,0L8.9,20.9
			c-0.033-0.034-0.066-0.051-0.1-0.051c0-0.033-0.017-0.05-0.05-0.05l-0.1-0.1C8.617,20.667,8.6,20.634,8.6,20.6l-0.05-0.05
			c0-0.033,0-0.066,0-0.1C8.517,20.417,8.5,20.384,8.5,20.35L8.25,18.95c-0.233-0.066-0.483-0.134-0.75-0.2
			c-0.267-0.1-0.533-0.233-0.8-0.4c-0.267-0.133-0.517-0.3-0.75-0.5c-0.267-0.166-0.5-0.366-0.7-0.6S4.867,16.767,4.7,16.5
			c-0.167-0.267-0.3-0.55-0.4-0.85c0-0.101-0.017-0.184-0.05-0.25C4.217,15.3,4.2,15.217,4.2,15.15
			c-0.033-0.101-0.05-0.2-0.05-0.301c-0.033-0.1-0.05-0.199-0.05-0.3c-0.033-0.1-0.05-0.2-0.05-0.3C4.017,14.15,4,14.05,4,13.95
			c0-0.134,0-0.25,0-0.351c0-0.1-0.017-0.216-0.05-0.35L3.9,10.4c0-0.233,0.017-0.467,0.05-0.7c0-0.2,0.017-0.4,0.05-0.6
			c0.067-0.4,0.167-0.783,0.3-1.15C4.434,7.583,4.617,7.233,4.85,6.9c0.2-0.3,0.433-0.583,0.7-0.85c0.3-0.267,0.617-0.5,0.95-0.7
			c0.333-0.2,0.7-0.383,1.1-0.55c0.267-0.1,0.55-0.183,0.85-0.25c0.1,0,0.217-0.017,0.35-0.05c0.1,0,0.217-0.017,0.35-0.05
			c0.133,0,0.267-0.017,0.4-0.05c0.134,0,0.284-0.017,0.45-0.05c0.133,0,0.283,0,0.45,0c0.167-0.033,0.333-0.05,0.5-0.05
			c0.167,0,0.35,0,0.55,0c0.167,0,0.35,0,0.55,0c0.2,0,0.417,0,0.65,0c0.333,0,0.667,0,1,0c0.333,0.034,0.649,0.067,0.95,0.1
			c0.3,0.033,0.583,0.083,0.85,0.15c0.3,0.067,0.583,0.15,0.85,0.25c0.233,0.067,0.467,0.15,0.7,0.25
			C17.283,5.183,17.5,5.3,17.7,5.4C18.1,5.667,18.45,5.967,18.75,6.3z M17.55,7.35c-0.233-0.267-0.5-0.483-0.8-0.65
			c-0.3-0.167-0.667-0.317-1.1-0.45c-0.4-0.133-0.851-0.233-1.351-0.3c-0.5-0.067-1.033-0.1-1.6-0.1L9.65,6
			C9.55,6,9.467,6.017,9.4,6.05c-0.1,0-0.2,0-0.3,0C9,6.083,8.917,6.1,8.85,6.1C8.75,6.133,8.667,6.15,8.6,6.15
			c-0.1,0.033-0.183,0.067-0.25,0.1c-0.067,0-0.133,0.017-0.2,0.05C7.717,6.467,7.333,6.683,7,6.95
			c-0.333,0.233-0.617,0.533-0.85,0.9C5.917,8.183,5.75,8.567,5.65,9c-0.133,0.4-0.2,0.933-0.2,1.6l0.1,2.9
			c0,0.1,0.017,0.2,0.05,0.3c0,0.101,0.017,0.2,0.05,0.3c0,0.101,0,0.2,0,0.301C5.684,14.5,5.7,14.6,5.7,14.7
			c0.033,0.066,0.05,0.149,0.05,0.25c0.033,0.066,0.067,0.133,0.1,0.2c0.033,0.166,0.1,0.333,0.2,0.5
			c0.034,0.066,0.083,0.133,0.15,0.199C6.233,15.917,6.283,16,6.35,16.1c0.067,0.067,0.133,0.134,0.2,0.2
			c0.067,0.033,0.134,0.084,0.2,0.15c0.033,0.066,0.083,0.116,0.15,0.149c0.067,0.067,0.133,0.117,0.2,0.15
			c0.1,0.066,0.183,0.116,0.25,0.15c0.067,0.033,0.133,0.083,0.2,0.149c0.067,0.033,0.134,0.066,0.2,0.101
			C7.85,17.184,7.934,17.2,8,17.2c0.067,0.033,0.133,0.066,0.2,0.1c0.066,0,0.133,0.017,0.2,0.05c0.067,0,0.133,0,0.2,0
			c0.033,0,0.083,0,0.15,0h0.2c0.033,0,0.083,0.017,0.15,0.051c0.033,0,0.067,0,0.1,0c0.066,0.033,0.117,0.066,0.15,0.1
			c0.033,0,0.067,0.017,0.1,0.05c0.066,0.066,0.117,0.134,0.15,0.2s0.067,0.116,0.1,0.15c0,0.033,0,0.066,0,0.1l0.15,0.7l1.2-1
			c0.034-0.033,0.067-0.066,0.1-0.101c0.034,0,0.067-0.017,0.1-0.05h0.05c0-0.033,0.017-0.05,0.05-0.05s0.067,0,0.1,0h0.1
			c0.333,0,0.634-0.017,0.9-0.05c0.267,0,0.533,0,0.8,0c0.267-0.033,0.5-0.066,0.7-0.101c0.233,0,0.45-0.017,0.649-0.05
			c0.4-0.066,0.75-0.149,1.051-0.25c0.3-0.066,0.566-0.149,0.8-0.25c0.2-0.1,0.383-0.184,0.55-0.25c0.134-0.133,0.25-0.233,0.35-0.3
			c0.268-0.233,0.467-0.5,0.601-0.8c0.2-0.3,0.35-0.634,0.45-1c0.066-0.2,0.116-0.4,0.149-0.601
			c0.033-0.199,0.067-0.416,0.101-0.649s0.05-0.483,0.05-0.75c0.033-0.233,0.05-0.483,0.05-0.75c0-0.167,0-0.333,0-0.5
			c0-0.167-0.017-0.317-0.05-0.45c0-0.133,0-0.283,0-0.45c-0.033-0.4-0.101-0.767-0.2-1.1c-0.066-0.333-0.184-0.65-0.35-0.95
			C17.983,7.917,17.783,7.617,17.55,7.35z M15.2,9.55c0.1,0.167,0.2,0.367,0.3,0.6c0.066,0.2,0.117,0.417,0.15,0.65l0.1,0.9
			c0,0.033,0,0.066,0,0.1c0,0.034,0,0.067,0,0.1c-0.033,0-0.05,0.017-0.05,0.05c-0.033,0-0.066,0.017-0.101,0.05h-0.05
			c-0.033,0-0.066,0-0.1,0c0-0.033-0.017-0.05-0.05-0.05L15.35,11.9c0-0.033,0-0.066,0-0.1l-0.05-0.05l-0.05-0.8
			c-0.033-0.233-0.083-0.45-0.15-0.65C15,10.067,14.9,9.867,14.8,9.7c-0.133-0.2-0.283-0.383-0.45-0.55
			c-0.133-0.167-0.3-0.316-0.5-0.45c-0.166-0.133-0.366-0.233-0.6-0.3c-0.2-0.1-0.417-0.167-0.65-0.2l-0.7-0.05
			c-0.033-0.033-0.066-0.05-0.1-0.05c-0.033,0-0.066-0.017-0.1-0.05c-0.033-0.033-0.05-0.066-0.05-0.1c0-0.034,0-0.067,0-0.1
			L11.7,7.8c0-0.033,0.017-0.05,0.05-0.05c0-0.033,0.017-0.05,0.05-0.05c0.034,0,0.067,0,0.1,0h0.3
			c0.069,0.001,0.137,0.018,0.2,0.05c0.1,0,0.183,0,0.25,0c0.1,0.033,0.199,0.067,0.3,0.1c0.133,0.033,0.25,0.066,0.35,0.1
			c0.2,0.066,0.384,0.15,0.55,0.25c0.2,0.1,0.384,0.216,0.551,0.35C14.566,8.717,14.717,8.867,14.85,9
			C14.983,9.167,15.1,9.35,15.2,9.55z M12.65,8.75c0.066,0,0.116,0,0.149,0C12.867,8.783,12.934,8.8,13,8.8
			c0.033,0.034,0.083,0.05,0.15,0.05c0.033,0.033,0.066,0.05,0.1,0.05c0.066,0.033,0.117,0.067,0.15,0.1
			c0.267,0.133,0.483,0.3,0.649,0.5c0.2,0.167,0.351,0.367,0.45,0.6c0.134,0.233,0.217,0.5,0.25,0.8V11l0.05,0.3l-0.05,0.1v0.05
			c0,0.033-0.017,0.05-0.05,0.05c0,0.033-0.017,0.067-0.05,0.1c-0.033,0-0.067,0-0.101,0H14.5c-0.033-0.033-0.066-0.05-0.1-0.05
			c0-0.033-0.017-0.066-0.051-0.1V11.3c0-0.066,0-0.117,0-0.15c0-0.066-0.017-0.117-0.05-0.15c0-0.033,0-0.083,0-0.15
			c0-0.033-0.017-0.083-0.05-0.15c0-0.034,0-0.067,0-0.1c-0.033-0.067-0.05-0.117-0.05-0.15c-0.033-0.067-0.066-0.117-0.101-0.15
			c0-0.033-0.017-0.083-0.05-0.15c-0.033-0.033-0.066-0.066-0.1-0.1c0-0.033-0.017-0.083-0.05-0.15
			c-0.033-0.033-0.067-0.066-0.101-0.1c-0.066-0.033-0.1-0.066-0.1-0.1c-0.033-0.034-0.083-0.067-0.15-0.1
			c-0.033-0.033-0.066-0.067-0.1-0.1s-0.083-0.05-0.15-0.05c-0.033-0.034-0.066-0.067-0.1-0.1c-0.033,0-0.066-0.017-0.101-0.05
			c-0.066,0-0.116-0.017-0.149-0.05c-0.033,0-0.066,0-0.101,0c-0.033-0.033-0.066-0.05-0.1-0.05L12.2,9.1
			c-0.066,0-0.117-0.017-0.15-0.05C12.017,9.05,12,9.033,12,9V8.95c0-0.034,0-0.067,0-0.1V8.8c0-0.033,0.017-0.066,0.05-0.1h0.05
			c0.034-0.034,0.067-0.05,0.101-0.05c0.066,0.033,0.116,0.05,0.149,0.05c0.067,0,0.117,0,0.15,0
			C12.566,8.7,12.617,8.717,12.65,8.75z M12.65,9.7c0.066,0,0.133,0.017,0.199,0.05c0.034,0,0.084,0,0.15,0
			c0.033,0.033,0.083,0.067,0.15,0.1c0.033,0,0.083,0.017,0.149,0.05c0.033,0.033,0.067,0.067,0.101,0.1s0.066,0.083,0.1,0.15
			c0.033,0.033,0.066,0.067,0.1,0.1c0.034,0.033,0.051,0.083,0.051,0.15c0.033,0.067,0.05,0.117,0.05,0.15
			c0.033,0.067,0.05,0.133,0.05,0.2c0.033,0.067,0.05,0.133,0.05,0.2v0.15c0,0.033-0.017,0.066-0.05,0.1l-0.05,0.05H13.6
			c-0.033,0-0.066,0-0.1,0c-0.033-0.033-0.066-0.067-0.1-0.1v-0.1l-0.051-0.2c0-0.033,0-0.067,0-0.1L13.3,10.6l-0.05-0.05V10.5
			c-0.033-0.033-0.066-0.067-0.1-0.1c-0.033-0.066-0.067-0.1-0.101-0.1c-0.033-0.033-0.066-0.05-0.1-0.05
			c0-0.033-0.017-0.05-0.05-0.05H12.85l-0.05-0.05c-0.033,0-0.066,0-0.1,0l-0.2-0.05h-0.05c-0.033,0-0.066-0.017-0.101-0.05
			c-0.033,0-0.05-0.017-0.05-0.05l-0.05-0.05c0-0.034,0-0.067,0-0.1L12.3,9.8V9.75l0.05-0.05c0.034,0,0.067,0,0.101,0
			c0-0.034,0.017-0.05,0.05-0.05V9.7C12.566,9.7,12.617,9.7,12.65,9.7z M13.7,12.9c0.033,0,0.066,0,0.1,0s0.067,0.017,0.101,0.05
			c0.033,0,0.066,0.017,0.1,0.05l1.3,0.9c0.101,0.1,0.167,0.199,0.2,0.3c0.033,0.133,0.017,0.25-0.05,0.35
			c-0.101,0.233-0.233,0.434-0.4,0.601c-0.133,0.166-0.3,0.3-0.5,0.399c-0.033,0-0.066,0.017-0.1,0.05c-0.033,0-0.066,0-0.101,0
			L14.15,15.7L13.8,15.6c-0.033-0.033-0.066-0.05-0.1-0.05c-0.101-0.066-0.217-0.116-0.351-0.149c-0.1-0.067-0.216-0.117-0.35-0.15
			c-0.1-0.066-0.217-0.116-0.35-0.15C12.35,14.9,12.033,14.7,11.7,14.5c-0.3-0.2-0.6-0.417-0.9-0.65c-0.3-0.233-0.566-0.5-0.8-0.8
			C9.9,12.983,9.817,12.9,9.75,12.8c-0.066-0.1-0.133-0.184-0.2-0.25c-0.033-0.1-0.083-0.184-0.15-0.25
			c-0.066-0.1-0.133-0.2-0.2-0.3c-0.067-0.067-0.133-0.15-0.2-0.25c-0.033-0.1-0.083-0.2-0.15-0.3c-0.033-0.1-0.083-0.2-0.15-0.3
			c-0.067-0.1-0.117-0.183-0.15-0.25l-0.5-1.2C8.017,9.633,8,9.55,8,9.45c0-0.034,0.017-0.067,0.05-0.1c0-0.033,0-0.083,0-0.15
			c0.034-0.034,0.067-0.067,0.1-0.1c0-0.067,0.017-0.117,0.05-0.15c0-0.034,0.017-0.067,0.05-0.1s0.067-0.067,0.1-0.1
			C8.45,8.617,8.567,8.5,8.7,8.4c0.066-0.033,0.133-0.066,0.2-0.1c0.067-0.033,0.133-0.066,0.2-0.1
			c0.067-0.034,0.117-0.05,0.15-0.05s0.067,0,0.1,0s0.067,0,0.1,0c0.1,0.033,0.2,0.083,0.3,0.15L10,8.65
			c0.033,0.033,0.083,0.083,0.15,0.15c0.034,0.067,0.067,0.117,0.1,0.15c0.033,0.066,0.067,0.133,0.1,0.2
			c0.033,0.033,0.083,0.083,0.15,0.15c0.033,0.067,0.067,0.133,0.1,0.2c0.033,0.033,0.067,0.083,0.1,0.15
			c0.033,0.033,0.05,0.067,0.05,0.1s0.017,0.083,0.05,0.15c0,0.033,0,0.067,0,0.1s0,0.067,0,0.1c-0.033,0.066-0.05,0.117-0.05,0.15
			s-0.017,0.067-0.05,0.1c-0.033,0.066-0.1,0.117-0.2,0.15c0,0.033-0.017,0.067-0.05,0.1l-0.2,0.15c-0.033,0-0.05,0.017-0.05,0.05
			c-0.033,0-0.05,0.017-0.05,0.05c-0.033,0.033-0.05,0.066-0.05,0.1c0,0.033,0,0.066,0,0.1c0,0.034,0,0.067,0,0.1s0,0.067,0,0.1
			c0.1,0.233,0.217,0.467,0.35,0.7s0.283,0.434,0.45,0.6c0.133,0.2,0.317,0.367,0.55,0.5c0.2,0.167,0.433,0.3,0.7,0.4l0.199,0.1
			h0.15c0,0.033,0.017,0.05,0.05,0.05s0.067-0.017,0.101-0.05c0.066,0,0.116-0.017,0.149-0.05s0.067-0.05,0.101-0.05
			c0.033-0.033,0.066-0.066,0.1-0.101l0.1-0.199c0.034,0,0.067-0.017,0.101-0.051c0-0.033,0.017-0.066,0.05-0.1
			c0.033,0,0.066-0.017,0.1-0.05c0.034-0.033,0.067-0.05,0.101-0.05s0.066,0,0.1,0c0-0.034,0.017-0.051,0.05-0.051h0.051
			C13.684,12.85,13.7,12.866,13.7,12.9z"/>
	</g>
</g>
</svg>
