<?xml version="1.0" encoding="utf-8"?>
<!-- Generator: Adobe Illustrator 16.0.0, SVG Export Plug-In . SVG Version: 6.00 Build 0)  -->
<!DOCTYPE svg PUBLIC "-//W3C//DTD SVG 1.1//EN" "http://www.w3.org/Graphics/SVG/1.1/DTD/svg11.dtd">
<svg version="1.1" id="Layer_1" xmlns="http://www.w3.org/2000/svg" xmlns:xlink="http://www.w3.org/1999/xlink" x="0px" y="0px"
	 width="46px" height="46px" viewBox="0 0 46 46" enable-background="new 0 0 46 46" xml:space="preserve">
<g>
	<g>
		<path fill-rule="evenodd" clip-rule="evenodd" fill="#4D76A4" d="M39.2,6.75c4.5,4.5,6.75,9.917,6.75,16.25
			c0,6.333-2.25,11.733-6.75,16.2c-4.467,4.5-9.867,6.75-16.2,6.75S11.25,43.7,6.75,39.2c-4.467-4.467-6.7-9.867-6.7-16.2
			c0-6.333,2.233-11.75,6.7-16.25c4.5-4.467,9.917-6.7,16.25-6.7S34.733,2.283,39.2,6.75z"/>
	</g>
	<g>
		<path fill-rule="evenodd" clip-rule="evenodd" fill="#FFFFFF" d="M7.7,16.75l4.55-0.05l0.05,0.05h0.1
			c0.034,0,0.067,0.017,0.1,0.05c0.033,0,0.083,0.017,0.15,0.05c0.034,0,0.067,0.017,0.1,0.05s0.067,0.067,0.1,0.1
			c0.033,0,0.067,0.017,0.1,0.05L13,17.1c0.033,0.033,0.067,0.066,0.1,0.1c0,0.033,0.017,0.066,0.05,0.1v0.05l0.1,0.1v0.1l1.55,3.25
			c0.134,0.167,0.25,0.35,0.35,0.55c0.1,0.167,0.2,0.316,0.3,0.45c0.1,0.167,0.183,0.317,0.25,0.45c0.1,0.133,0.2,0.267,0.3,0.4
			c0.067,0.133,0.15,0.25,0.25,0.35c0.067,0.1,0.133,0.2,0.2,0.3c0.066,0.101,0.133,0.184,0.2,0.25c0.067,0.066,0.133,0.134,0.2,0.2
			s0.133,0.134,0.2,0.2c0.067,0.033,0.117,0.066,0.15,0.1c0.066,0.033,0.117,0.066,0.15,0.101c0.067,0.033,0.117,0.066,0.15,0.1
			c0.067,0,0.117,0,0.15,0c0.034,0,0.067,0,0.1,0h0.05c0.034,0,0.067,0,0.1,0c0.034-0.033,0.067-0.05,0.1-0.05
			c0.033-0.033,0.067-0.05,0.1-0.05c0.033-0.034,0.05-0.067,0.05-0.101c0.034-0.033,0.067-0.066,0.1-0.1
			c0-0.033,0.017-0.066,0.05-0.101c0.034-0.033,0.05-0.066,0.05-0.1c0.033-0.033,0.05-0.083,0.05-0.15
			c0-0.033,0.017-0.083,0.05-0.149c0-0.033,0.017-0.084,0.05-0.15V23.15l0.1-0.351v-0.4l0.05-0.15v-2.6L18.6,19.5v-0.4l-0.05-0.2
			v-0.15c-0.033-0.067-0.05-0.117-0.05-0.15c0-0.067-0.017-0.133-0.05-0.2c0-0.033-0.017-0.083-0.05-0.15
			c0-0.067-0.017-0.117-0.05-0.15s-0.067-0.083-0.1-0.15c0-0.034-0.017-0.067-0.05-0.1c-0.033-0.067-0.067-0.117-0.1-0.15
			c-0.033-0.034-0.067-0.067-0.1-0.1c-0.033,0-0.066-0.017-0.1-0.05c-0.066-0.033-0.117-0.066-0.15-0.1
			c-0.033-0.034-0.066-0.05-0.1-0.05c-0.033-0.033-0.083-0.05-0.15-0.05c-0.033-0.033-0.066-0.05-0.1-0.05
			c-0.033-0.033-0.083-0.05-0.15-0.05l-0.1-0.05h-0.2l-0.05-0.05c-0.066,0-0.1-0.017-0.1-0.05s0.017-0.067,0.05-0.1
			c0-0.033,0-0.067,0-0.1c0.033,0,0.067-0.017,0.1-0.05c0-0.033,0.017-0.067,0.05-0.1s0.067-0.067,0.1-0.1s0.067-0.066,0.1-0.1
			c0.033-0.033,0.066-0.05,0.1-0.05c0.034-0.033,0.067-0.067,0.1-0.1c0.034-0.033,0.083-0.05,0.15-0.05
			c0.167-0.1,0.384-0.184,0.65-0.25c0.133-0.033,0.283-0.05,0.45-0.05C18.783,16.017,18.934,16,19.1,16c0.133,0,0.3-0.017,0.5-0.05
			c0.167,0,0.333,0,0.5,0h1.95L22.2,16h0.35l0.15,0.05h0.2L23,16.1h0.15l0.199,0.05c0.167,0.067,0.317,0.133,0.45,0.2
			c0.134,0.066,0.233,0.167,0.3,0.3c0.067,0.1,0.134,0.233,0.2,0.4c0,0.067,0.017,0.15,0.05,0.25c0,0.067,0,0.15,0,0.25
			c0.034,0.1,0.051,0.217,0.051,0.35c0,0.1,0,0.217,0,0.35l-0.101,4.2c0,0.066,0,0.133,0,0.2c0,0.067,0,0.133,0,0.2
			c0,0.1,0.017,0.183,0.05,0.25c0,0.067,0,0.134,0,0.2c0.034,0.033,0.051,0.084,0.051,0.15c0.033,0.066,0.05,0.133,0.05,0.2
			c0.033,0.033,0.066,0.083,0.1,0.149s0.067,0.117,0.101,0.15c0.066,0.066,0.133,0.133,0.199,0.2c0.067,0.033,0.117,0.05,0.15,0.05
			c0.033,0.033,0.066,0.05,0.1,0.05l0.051-0.05h0.05c0.033,0,0.083-0.017,0.149-0.05c0.034,0,0.067-0.017,0.101-0.051
			c0.066-0.033,0.133-0.066,0.2-0.1c0.033-0.066,0.083-0.116,0.149-0.15c0.067-0.066,0.134-0.133,0.2-0.199
			c0.066-0.067,0.134-0.15,0.2-0.25c0.066-0.067,0.149-0.15,0.25-0.25c0.066-0.101,0.149-0.217,0.25-0.351
			c0.1-0.133,0.2-0.267,0.3-0.4s0.2-0.283,0.3-0.45c0.101-0.167,0.2-0.35,0.3-0.55c0.134-0.167,0.268-0.367,0.4-0.6
			c0.033-0.1,0.083-0.2,0.15-0.3c0.066-0.1,0.116-0.2,0.149-0.3l0.2-0.3l0.3-0.6L28.9,19l0.149-0.25l0.55-1.35l0.051-0.05V17.3
			c0.033-0.033,0.066-0.083,0.1-0.15c0-0.033,0.017-0.066,0.05-0.1L29.85,17c0.034-0.033,0.067-0.067,0.101-0.1
			c0.033,0,0.066-0.017,0.1-0.05l0.05-0.05c0.034,0,0.067,0,0.101,0c0.033-0.033,0.066-0.05,0.1-0.05s0.067,0,0.101,0h4.649
			l0.101-0.05c0.033,0,0.083,0,0.149,0h0.45c0.066,0.033,0.117,0.05,0.15,0.05c0.066,0,0.116,0,0.149,0
			c0.033,0.033,0.084,0.05,0.15,0.05c0.033,0,0.066,0.017,0.1,0.05c0.033,0,0.067,0.017,0.101,0.05s0.066,0.067,0.1,0.1
			c0.066,0.033,0.117,0.083,0.15,0.15c0.033,0.133,0.033,0.3,0,0.5c-0.033,0.2-0.101,0.434-0.2,0.7
			c-0.101,0.267-0.25,0.566-0.45,0.9c-0.1,0.167-0.217,0.35-0.35,0.55c-0.101,0.2-0.233,0.4-0.4,0.6
			c-0.066,0.133-0.15,0.267-0.25,0.4c-0.1,0.167-0.217,0.317-0.35,0.45c-0.101,0.167-0.217,0.333-0.351,0.5l-1.399,1.8l-0.15,0.25
			l-0.2,0.2L32.4,24.2L32.3,24.4c-0.066,0.066-0.116,0.133-0.149,0.199c-0.033,0.034-0.067,0.084-0.101,0.15S32,24.866,32,24.9
			c-0.033,0.066-0.066,0.116-0.1,0.149c0,0.066-0.017,0.117-0.051,0.15c0,0.033,0,0.083,0,0.149c-0.033,0.034-0.05,0.067-0.05,0.101
			s0,0.083,0,0.149c0,0.034,0,0.067,0,0.101c0.033,0.033,0.05,0.083,0.05,0.149c0,0.034,0.018,0.067,0.051,0.101
			c0,0.033,0.017,0.066,0.05,0.1c0.033,0.066,0.066,0.117,0.1,0.15s0.067,0.066,0.101,0.1c0.033,0.066,0.066,0.117,0.1,0.15
			c0.033,0.066,0.066,0.116,0.1,0.149l0.5,0.5l0.2,0.15l0.4,0.4c0.167,0.133,0.316,0.267,0.45,0.399
			c0.133,0.134,0.25,0.267,0.35,0.4c0.134,0.1,0.25,0.217,0.35,0.35c0.134,0.101,0.233,0.2,0.301,0.3C35,29.2,35.1,29.3,35.2,29.4
			c0.066,0.1,0.149,0.199,0.25,0.3c0.066,0.066,0.133,0.149,0.2,0.25c0.033,0.066,0.083,0.133,0.149,0.2
			c0.067,0.066,0.117,0.133,0.15,0.199c0.033,0.067,0.083,0.117,0.149,0.15l0.101,0.15l0.05,0.149l0.15,0.3
			c0.133,0.2,0.217,0.367,0.25,0.5c0.033,0.167,0.033,0.317,0,0.45c-0.033,0.134-0.084,0.233-0.15,0.3
			c-0.066,0.101-0.15,0.184-0.25,0.25c-0.066,0-0.116,0.017-0.15,0.051c-0.066,0.033-0.116,0.05-0.149,0.05
			c-0.066,0.033-0.117,0.05-0.15,0.05c-0.066,0.033-0.116,0.05-0.149,0.05H35.5l-0.1,0.05L30.8,32.9
			c-0.066,0-0.116-0.017-0.149-0.051c-0.067,0-0.117,0-0.15,0c-0.066-0.033-0.116-0.05-0.15-0.05
			c-0.066-0.033-0.133-0.066-0.199-0.1c-0.067,0-0.117-0.017-0.15-0.05c-0.066-0.034-0.133-0.067-0.2-0.101
			c-0.066-0.033-0.133-0.066-0.2-0.1c-0.066-0.066-0.133-0.117-0.199-0.15c-0.101-0.066-0.2-0.133-0.301-0.2
			C29,32,28.9,31.917,28.8,31.85c-0.066-0.1-0.149-0.183-0.25-0.25c-0.1-0.1-0.183-0.199-0.25-0.3c-0.1-0.1-0.2-0.2-0.3-0.3
			c-0.066-0.1-0.15-0.2-0.25-0.3l-0.5-0.601c-0.1-0.066-0.184-0.149-0.25-0.25c-0.1-0.1-0.184-0.183-0.25-0.25
			c-0.066-0.066-0.15-0.133-0.25-0.199c-0.066-0.067-0.15-0.134-0.25-0.2c-0.133-0.101-0.283-0.184-0.45-0.25
			c-0.033,0-0.066,0-0.1,0s-0.066,0-0.101,0c-0.033,0-0.066,0-0.1,0s-0.066,0-0.1,0c-0.134,0.066-0.25,0.149-0.351,0.25
			c-0.1,0.1-0.2,0.217-0.3,0.35c-0.033,0.066-0.066,0.134-0.1,0.2S24.6,29.9,24.6,30c-0.033,0.066-0.066,0.15-0.1,0.25
			c0,0.066-0.017,0.134-0.05,0.2c0,0.1-0.017,0.184-0.05,0.25c0,0.066,0,0.149,0,0.25l-0.051,0.2V31.8
			c0,0.033-0.017,0.066-0.05,0.101V32c0,0.033,0,0.066,0,0.1c-0.033,0.067-0.05,0.117-0.05,0.15c-0.033,0.033-0.066,0.083-0.1,0.15
			c0,0.033-0.017,0.066-0.051,0.1c-0.033,0.033-0.083,0.066-0.149,0.1c-0.033,0.034-0.066,0.051-0.101,0.051
			c-0.033,0.033-0.083,0.066-0.149,0.1c-0.033,0-0.066,0.017-0.101,0.05H23.45c-0.033,0-0.066,0.017-0.101,0.05H21.3
			c-0.066,0-0.133,0-0.2,0h-0.25c-0.133-0.033-0.25-0.05-0.35-0.05c-0.133-0.033-0.283-0.05-0.45-0.05
			c-0.133-0.033-0.283-0.066-0.45-0.1c-0.167-0.034-0.333-0.084-0.5-0.15c-0.367-0.1-0.75-0.217-1.15-0.35
			c-0.4-0.167-0.8-0.367-1.2-0.601c-0.433-0.267-0.867-0.566-1.3-0.899c-0.467-0.334-0.917-0.717-1.35-1.15
			c-0.1-0.134-0.217-0.267-0.35-0.4c-0.1-0.133-0.217-0.267-0.35-0.399c-0.1-0.134-0.216-0.267-0.35-0.4
			c-0.1-0.133-0.2-0.283-0.3-0.45c-0.133-0.133-0.25-0.283-0.35-0.449c-0.1-0.134-0.216-0.284-0.35-0.45
			c-0.1-0.167-0.2-0.316-0.3-0.45c-0.1-0.167-0.2-0.333-0.3-0.5c-0.133-0.167-0.25-0.333-0.35-0.5c-0.1-0.134-0.2-0.283-0.3-0.45
			c-0.1-0.166-0.2-0.333-0.3-0.5c-0.1-0.166-0.2-0.333-0.3-0.5l-0.25-0.5l-0.3-0.45L7.6,19.05L7.45,18.8L7.2,18.1l-0.15-0.25V17.8
			L7,17.7c0-0.034,0-0.067,0-0.1l-0.05-0.1c0-0.033,0-0.083,0-0.15c0-0.033,0-0.067,0-0.1c0-0.1,0.033-0.183,0.1-0.25
			c0.034-0.033,0.067-0.05,0.1-0.05c0.034-0.034,0.083-0.067,0.15-0.1h0.05L7.4,16.8h0.1l0.05-0.05
			C7.617,16.75,7.667,16.75,7.7,16.75z"/>
	</g>
</g>
</svg>
