<?xml version="1.0" encoding="utf-8"?>
<!-- Generator: Adobe Illustrator 16.0.0, SVG Export Plug-In . SVG Version: 6.00 Build 0)  -->
<!DOCTYPE svg PUBLIC "-//W3C//DTD SVG 1.1//EN" "http://www.w3.org/Graphics/SVG/1.1/DTD/svg11.dtd">
<svg version="1.1" id="Layer_1" xmlns="http://www.w3.org/2000/svg" xmlns:xlink="http://www.w3.org/1999/xlink" x="0px" y="0px"
	 width="24px" height="24px" viewBox="0 0 24 24" enable-background="new 0 0 24 24" xml:space="preserve">
<g>
	<g>
		<path fill-rule="evenodd" clip-rule="evenodd" fill="#30BF39" d="M10.6,4.55c-0.567,0.133-1.133,0.367-1.7,0.7
			C8.367,5.517,7.883,5.9,7.45,6.4c-0.434,0.4-0.8,0.867-1.1,1.4C6.017,8.333,5.767,8.917,5.6,9.55c-0.133,0.567-0.2,1.184-0.2,1.85
			c0,0.233,0,0.467,0,0.7c0.034,0.2,0.067,0.417,0.1,0.65s0.083,0.434,0.15,0.6C5.684,13.583,5.733,13.8,5.8,14
			c0.067,0.2,0.167,0.384,0.3,0.55c0.067,0.2,0.15,0.384,0.25,0.55L5.1,18.95l4-1.25c0.133,0.066,0.317,0.166,0.55,0.3
			c0.133,0.066,0.284,0.134,0.45,0.2c0.2,0.066,0.4,0.116,0.6,0.149c0.2,0.034,0.4,0.067,0.6,0.101c0.2,0.033,0.4,0.083,0.6,0.149
			c0.233,0,0.433,0,0.6,0c0.667,0,1.3-0.083,1.9-0.25c0.633-0.166,1.217-0.416,1.75-0.75c0.566-0.3,1.05-0.666,1.449-1.1
			c0.434-0.434,0.801-0.917,1.101-1.45c0.333-0.566,0.583-1.133,0.75-1.7c0.167-0.633,0.25-1.283,0.25-1.95
			c0-1-0.184-1.933-0.55-2.8C18.75,7.733,18.233,7,17.6,6.4c-0.666-0.7-1.416-1.233-2.25-1.6c-0.866-0.367-1.816-0.55-2.85-0.55
			C11.867,4.25,11.233,4.35,10.6,4.55z M9.5,6.25c0.434-0.233,0.917-0.433,1.45-0.6c0.5-0.133,1.017-0.2,1.55-0.2
			c0.566,0,1.1,0.066,1.6,0.2c0.5,0.167,0.967,0.367,1.4,0.6c0.467,0.267,0.867,0.583,1.2,0.95c0.366,0.367,0.7,0.783,1,1.25
			c0.233,0.433,0.433,0.9,0.6,1.4c0.134,0.467,0.2,0.983,0.2,1.55c0,0.567-0.066,1.1-0.2,1.6c-0.167,0.5-0.366,0.983-0.6,1.45
			c-0.3,0.434-0.634,0.833-1,1.2c-0.333,0.366-0.733,0.666-1.2,0.899c-0.434,0.267-0.9,0.467-1.4,0.601
			c-0.5,0.166-1.033,0.25-1.6,0.25S11.367,17.3,10.8,17.1C10.233,16.934,9.717,16.7,9.25,16.4L6.95,17.1L7.7,14.95
			c-0.333-0.533-0.6-1.084-0.8-1.65c-0.2-0.633-0.3-1.267-0.3-1.9c0-0.566,0.067-1.083,0.2-1.55c0.134-0.5,0.333-0.967,0.6-1.4
			C7.667,7.983,7.967,7.567,8.3,7.2C8.667,6.833,9.066,6.517,9.5,6.25z M12,0.25c3.267,0,6.05,1.15,8.35,3.45
			c2.268,2.3,3.4,5.066,3.4,8.3s-1.133,6-3.4,8.3c-2.3,2.3-5.083,3.45-8.35,3.45c-3.233,0-6-1.15-8.3-3.45
			C1.4,18,0.25,15.233,0.25,12S1.4,6,3.7,3.7C6,1.4,8.767,0.25,12,0.25z M14.35,12.35c-0.033,0.034-0.066,0.084-0.1,0.15l-0.6,0.7
			c-0.033,0.033-0.067,0.05-0.101,0.05s-0.066,0-0.1,0H13.4c-0.033,0-0.084-0.017-0.15-0.05l-0.2-0.101
			c-0.1-0.066-0.2-0.133-0.3-0.199c-0.167-0.067-0.316-0.15-0.45-0.25c-0.066-0.067-0.133-0.117-0.2-0.15
			c-0.1-0.1-0.2-0.184-0.3-0.25c-0.133-0.134-0.233-0.267-0.3-0.4c-0.133-0.133-0.25-0.267-0.35-0.4c-0.066-0.1-0.117-0.2-0.15-0.3
			l-0.2-0.2v-0.1c0-0.033,0-0.067,0-0.1s0.034-0.067,0.1-0.1l0.3-0.4c0.033-0.033,0.066-0.05,0.1-0.05l0.1-0.25
			c0-0.034,0.034-0.067,0.1-0.1c0-0.033-0.033-0.067-0.1-0.1c0-0.033,0-0.067,0-0.1l-0.45-1.4c-0.033-0.1-0.083-0.167-0.15-0.2
			c-0.033-0.066-0.066-0.1-0.1-0.1c-0.033-0.034-0.083-0.034-0.15,0H10.5L10.4,7.9h-0.3c-0.067,0-0.133,0.017-0.2,0.05
			C9.833,7.95,9.75,8,9.65,8.1l-0.2,0.2c-0.067,0.067-0.134,0.167-0.2,0.3c-0.033,0.033-0.066,0.1-0.1,0.2
			c-0.033,0.067-0.066,0.15-0.1,0.25C8.983,9.117,8.95,9.2,8.95,9.3c0,0.1,0,0.217,0,0.35c-0.033,0.1-0.033,0.2,0,0.3
			c0,0.133,0.033,0.25,0.1,0.35c0.034,0.1,0.067,0.217,0.1,0.35c0.034,0.067,0.067,0.15,0.1,0.25c0.066,0.133,0.133,0.283,0.2,0.45
			l0.45,0.6c0.034,0.1,0.1,0.217,0.2,0.35c0.133,0.134,0.267,0.283,0.4,0.45l0.45,0.45c0.066,0.066,0.133,0.133,0.2,0.2l0.25,0.3
			c0.1,0.066,0.2,0.133,0.3,0.2c0.1,0.066,0.183,0.116,0.25,0.149c0.133,0.066,0.25,0.15,0.35,0.25c0.101,0.033,0.2,0.084,0.3,0.15
			c0.268,0.066,0.483,0.133,0.65,0.2c0.167,0.1,0.316,0.166,0.45,0.199c0.167,0.067,0.283,0.117,0.35,0.15c0.101,0,0.184,0,0.25,0
			l0.15,0.05c0.066,0,0.116-0.017,0.149-0.05c0.067,0,0.15,0,0.25,0c0.033,0,0.084-0.017,0.15-0.05c0.1-0.066,0.2-0.117,0.3-0.15
			c0.067-0.033,0.134-0.066,0.2-0.1c0.1-0.066,0.2-0.117,0.3-0.15c0.067-0.066,0.134-0.133,0.2-0.2c0.033-0.1,0.066-0.166,0.1-0.199
			c0.033-0.101,0.067-0.2,0.101-0.301c0-0.1,0.017-0.199,0.05-0.3c0-0.066,0-0.133,0-0.2c0-0.033-0.017-0.066-0.05-0.1l-0.05-0.05
			c-0.033-0.033-0.067-0.05-0.101-0.05l-1.6-0.851H14.4C14.367,12.3,14.35,12.316,14.35,12.35z"/>
		<path fill-rule="evenodd" clip-rule="evenodd" fill="#FFFFFF" d="M9.5,6.25C9.066,6.517,8.667,6.833,8.3,7.2
			C7.967,7.567,7.667,7.983,7.4,8.45c-0.267,0.433-0.466,0.9-0.6,1.4c-0.133,0.467-0.2,0.983-0.2,1.55c0,0.633,0.1,1.267,0.3,1.9
			c0.2,0.566,0.467,1.117,0.8,1.65L6.95,17.1l2.3-0.699c0.467,0.3,0.983,0.533,1.55,0.699c0.567,0.2,1.134,0.301,1.7,0.301
			s1.1-0.084,1.6-0.25c0.5-0.134,0.967-0.334,1.4-0.601c0.467-0.233,0.867-0.533,1.2-0.899c0.366-0.367,0.7-0.767,1-1.2
			c0.233-0.467,0.433-0.95,0.6-1.45c0.134-0.5,0.2-1.033,0.2-1.6c0-0.566-0.066-1.083-0.2-1.55c-0.167-0.5-0.366-0.967-0.6-1.4
			c-0.3-0.467-0.634-0.883-1-1.25c-0.333-0.367-0.733-0.684-1.2-0.95c-0.434-0.233-0.9-0.433-1.4-0.6c-0.5-0.133-1.033-0.2-1.6-0.2
			c-0.533,0-1.05,0.066-1.55,0.2C10.417,5.817,9.934,6.017,9.5,6.25z M10.6,4.55c0.633-0.2,1.267-0.3,1.9-0.3
			c1.033,0,1.983,0.183,2.85,0.55c0.834,0.367,1.584,0.9,2.25,1.6c0.634,0.6,1.15,1.333,1.551,2.2c0.366,0.867,0.55,1.8,0.55,2.8
			c0,0.667-0.083,1.317-0.25,1.95c-0.167,0.567-0.417,1.134-0.75,1.7c-0.3,0.533-0.667,1.017-1.101,1.45
			c-0.399,0.434-0.883,0.8-1.449,1.1c-0.533,0.334-1.117,0.584-1.75,0.75c-0.601,0.167-1.233,0.25-1.9,0.25c-0.167,0-0.367,0-0.6,0
			c-0.2-0.066-0.4-0.116-0.6-0.149c-0.2-0.033-0.4-0.066-0.6-0.101c-0.2-0.033-0.4-0.083-0.6-0.149
			c-0.167-0.066-0.317-0.134-0.45-0.2c-0.233-0.134-0.417-0.233-0.55-0.3l-4,1.25L6.35,15.1c-0.1-0.166-0.183-0.35-0.25-0.55
			C5.967,14.384,5.867,14.2,5.8,14c-0.066-0.2-0.116-0.417-0.15-0.65c-0.066-0.166-0.117-0.366-0.15-0.6S5.434,12.3,5.4,12.1
			c0-0.233,0-0.466,0-0.7c0-0.667,0.067-1.283,0.2-1.85C5.767,8.917,6.017,8.333,6.35,7.8c0.3-0.533,0.667-1,1.1-1.4
			C7.883,5.9,8.367,5.517,8.9,5.25C9.467,4.917,10.033,4.683,10.6,4.55z M14.35,12.35c0-0.033,0.018-0.05,0.051-0.05h0.05l1.6,0.851
			c0.033,0,0.067,0.017,0.101,0.05l0.05,0.05c0.033,0.033,0.05,0.066,0.05,0.1c0,0.067,0,0.134,0,0.2
			c-0.033,0.101-0.05,0.2-0.05,0.3c-0.033,0.101-0.067,0.2-0.101,0.301c-0.033,0.033-0.066,0.1-0.1,0.199
			c-0.066,0.067-0.133,0.134-0.2,0.2c-0.1,0.033-0.2,0.084-0.3,0.15c-0.066,0.033-0.133,0.066-0.2,0.1
			c-0.1,0.033-0.2,0.084-0.3,0.15C14.934,14.983,14.883,15,14.85,15c-0.1,0-0.183,0-0.25,0c-0.033,0.033-0.083,0.05-0.149,0.05
			L14.3,15c-0.066,0-0.149,0-0.25,0c-0.066-0.033-0.183-0.083-0.35-0.15c-0.134-0.033-0.283-0.1-0.45-0.199
			c-0.167-0.067-0.383-0.134-0.65-0.2c-0.1-0.066-0.199-0.117-0.3-0.15c-0.1-0.1-0.217-0.184-0.35-0.25
			c-0.067-0.033-0.15-0.083-0.25-0.149c-0.1-0.067-0.2-0.134-0.3-0.2l-0.25-0.3c-0.066-0.067-0.133-0.134-0.2-0.2l-0.45-0.45
			c-0.133-0.167-0.267-0.316-0.4-0.45c-0.1-0.133-0.167-0.25-0.2-0.35l-0.45-0.6c-0.067-0.167-0.134-0.317-0.2-0.45
			c-0.033-0.1-0.066-0.183-0.1-0.25c-0.033-0.133-0.066-0.25-0.1-0.35c-0.066-0.1-0.1-0.216-0.1-0.35c-0.033-0.1-0.033-0.2,0-0.3
			c0-0.133,0-0.25,0-0.35c0-0.1,0.033-0.183,0.1-0.25c0.034-0.1,0.067-0.183,0.1-0.25c0.034-0.1,0.067-0.167,0.1-0.2
			c0.066-0.133,0.133-0.233,0.2-0.3l0.2-0.2C9.75,8,9.833,7.95,9.9,7.95c0.067-0.034,0.133-0.05,0.2-0.05h0.3l0.1,0.05h0.05
			c0.067-0.034,0.117-0.034,0.15,0c0.033,0,0.066,0.033,0.1,0.1c0.067,0.034,0.117,0.1,0.15,0.2l0.45,1.4c0,0.033,0,0.067,0,0.1
			c0.067,0.033,0.1,0.067,0.1,0.1c-0.066,0.033-0.1,0.066-0.1,0.1l-0.1,0.25c-0.033,0-0.066,0.017-0.1,0.05l-0.3,0.4
			c-0.066,0.033-0.1,0.067-0.1,0.1s0,0.067,0,0.1v0.1l0.2,0.2c0.033,0.1,0.083,0.2,0.15,0.3c0.1,0.133,0.217,0.267,0.35,0.4
			c0.066,0.133,0.167,0.266,0.3,0.4c0.1,0.066,0.2,0.15,0.3,0.25c0.067,0.033,0.134,0.083,0.2,0.15c0.134,0.1,0.283,0.183,0.45,0.25
			c0.1,0.066,0.2,0.133,0.3,0.199l0.2,0.101c0.066,0.033,0.117,0.05,0.15,0.05h0.05c0.033,0,0.066,0,0.1,0s0.067-0.017,0.101-0.05
			l0.6-0.7C14.283,12.434,14.316,12.384,14.35,12.35z"/>
	</g>
</g>
</svg>
