<?xml version="1.0" encoding="utf-8"?>
<!-- Generator: Adobe Illustrator 16.0.0, SVG Export Plug-In . SVG Version: 6.00 Build 0)  -->
<!DOCTYPE svg PUBLIC "-//W3C//DTD SVG 1.1//EN" "http://www.w3.org/Graphics/SVG/1.1/DTD/svg11.dtd">
<svg version="1.1" id="Layer_2" xmlns="http://www.w3.org/2000/svg" xmlns:xlink="http://www.w3.org/1999/xlink" x="0px" y="0px"
	 width="19px" height="21px" viewBox="0 0 19 21" enable-background="new 0 0 19 21" xml:space="preserve">
<g>
	<path fill-rule="evenodd" clip-rule="evenodd" fill="#D7C3CD" d="M10.5,5.95c-0.066,0.466-0.1,1.017-0.1,1.65
		c1.133-0.167,2.066-0.483,2.8-0.95c0.7-0.5,1.116-1.1,1.25-1.8c0.133-0.7-0.101-1.133-0.7-1.3C13.15,3.383,12.5,3.5,11.8,3.9
		C11.1,4.333,10.667,5.017,10.5,5.95z M8.55,5.95c-0.167-0.934-0.6-1.617-1.3-2.05c-0.667-0.4-1.3-0.517-1.9-0.35
		c-0.6,0.167-0.85,0.6-0.75,1.3c0.133,0.7,0.55,1.3,1.25,1.8C6.583,7.117,7.533,7.433,8.7,7.6C8.7,6.967,8.65,6.417,8.55,5.95z
		 M11.75,1.8c1.267-0.7,2.384-0.733,3.35-0.1c0.967,0.633,1.351,1.633,1.15,3C16.017,6.333,15,7.55,13.2,8.35
		c-0.4,0.2-0.816,0.367-1.25,0.5H17c0.6,0.033,0.9,0.233,0.9,0.6s-0.301,0.6-0.9,0.7l-0.8,0.2c-0.5,0.267-0.767,0.716-0.8,1.35
		l-0.851,6.35c-0.066,0.634-0.316,1.101-0.75,1.4c-0.166,0.133-0.366,0.217-0.6,0.25l-0.4,0.05H6.25l-0.4-0.05
		c-0.233-0.033-0.434-0.117-0.6-0.25c-0.433-0.3-0.683-0.767-0.75-1.4L3.65,11.7c-0.033-0.634-0.3-1.083-0.8-1.35l-0.75-0.2H2.05
		c-0.6-0.1-0.9-0.333-0.9-0.7s0.3-0.567,0.9-0.6H2.1h5.05c-0.467-0.133-0.9-0.3-1.3-0.5C4.05,7.55,3.033,6.333,2.8,4.7
		c-0.167-1.367,0.217-2.367,1.15-3C4.917,1.067,6.033,1.1,7.3,1.8c1,0.567,1.75,1.383,2.25,2.45C10.017,3.183,10.75,2.367,11.75,1.8
		z M7.9,16.85c0.167,0.034,0.667,0.067,1.5,0.101c0.899,0.033,1.466,0.033,1.699,0c0.601-0.101,0.967-0.483,1.101-1.15l0.899-5.2
		H5.95l0.9,5.2C7.083,16.4,7.433,16.75,7.9,16.85z"/>
</g>
</svg>
