<?xml version="1.0" encoding="utf-8"?>
<!-- Generator: Adobe Illustrator 16.0.0, SVG Export Plug-In . SVG Version: 6.00 Build 0)  -->
<!DOCTYPE svg PUBLIC "-//W3C//DTD SVG 1.1//EN" "http://www.w3.org/Graphics/SVG/1.1/DTD/svg11.dtd">
<svg version="1.1" id="Layer_5" xmlns="http://www.w3.org/2000/svg" xmlns:xlink="http://www.w3.org/1999/xlink" x="0px" y="0px"
	 width="19px" height="21px" viewBox="0 0 19 21" enable-background="new 0 0 19 21" xml:space="preserve">
<g>
	<path fill-rule="evenodd" clip-rule="evenodd" fill="#D7C3CD" d="M15.4,4.25c0.767,0,1.149,0.317,1.149,0.95v1.35v9.9
		c0.101,0.633-0.233,0.95-1,0.95h-0.3c-0.733,0-1.1-0.367-1.1-1.101L13.9,5.65c-0.034-0.933,0.3-1.4,1-1.4H15.4z M12.55,4.7v2.85
		v9.05c-0.033,0.567-0.133,0.95-0.3,1.15c-0.2,0.233-0.55,0.316-1.05,0.25l-1.4-0.05l-5.85-0.3c-0.1,0-0.2,0-0.3,0s-0.183,0-0.25,0
		c-0.566-0.101-0.867-0.483-0.9-1.15L2.75,5C2.817,4.2,3.267,3.717,4.1,3.55l7-0.5C12.1,3.017,12.583,3.567,12.55,4.7z M6.75,4.9
		c-0.767,0.067-1.2,0.483-1.3,1.25l-0.5,9c-0.067,0.699,0.233,1.033,0.9,1h3.5c0.567,0.1,0.851-0.217,0.851-0.95L9.95,6
		c0-0.367-0.05-0.667-0.15-0.9C9.634,4.8,9.316,4.683,8.85,4.75L6.75,4.9z"/>
</g>
</svg>
