<?xml version="1.0" encoding="utf-8"?>
<!-- Generator: Adobe Illustrator 16.0.0, SVG Export Plug-In . SVG Version: 6.00 Build 0)  -->
<!DOCTYPE svg PUBLIC "-//W3C//DTD SVG 1.1//EN" "http://www.w3.org/Graphics/SVG/1.1/DTD/svg11.dtd">
<svg version="1.1" id="Layer_1" xmlns="http://www.w3.org/2000/svg" xmlns:xlink="http://www.w3.org/1999/xlink" x="0px" y="0px"
	 width="19px" height="21px" viewBox="0 0 19 21" enable-background="new 0 0 19 21" xml:space="preserve">
<g>
	<path fill-rule="evenodd" clip-rule="evenodd" fill="#D7C3CD" d="M18.55,8.9l-1.7,5.5c-0.333,1.033-0.983,1.583-1.949,1.649H7.35
		c-0.133,0-0.267-0.017-0.4-0.05c-0.5-0.1-0.883-0.333-1.15-0.7c-0.033-0.066-0.083-0.149-0.15-0.25L2.9,6.1
		C2.867,5.833,2.8,5.6,2.7,5.4C2.533,5.133,2.283,4.917,1.95,4.75C1.783,4.683,1.6,4.617,1.4,4.55H1.3c-0.6-0.066-0.9-0.3-0.9-0.7
		c0-0.367,0.3-0.55,0.9-0.55h2.3c0.333,0.034,0.566,0.083,0.7,0.15C4.5,3.517,4.683,3.633,4.85,3.8l0.2,0.4l2.9,7.899
		c0.3,0.7,0.833,1.101,1.6,1.2h3.4c0.2,0,0.383-0.033,0.55-0.1c0.366-0.101,0.684-0.316,0.95-0.65c0.1-0.166,0.184-0.333,0.25-0.5
		l1.25-3.4c0.467-0.9,1.116-1.267,1.95-1.1C18.5,7.65,18.717,8.1,18.55,8.9z M18.4,2l-4.7,7.8c-0.467,0.7-1.017,1.117-1.65,1.25
		c-0.7,0.134-1.35-0.117-1.95-0.75L7.2,6.9C6.733,6.067,6.733,5.433,7.2,5C7.633,4.5,8.267,4.55,9.1,5.15l1.351,0.9
		c0.633,0.5,1.2,0.5,1.7,0l4.449-5.2C17.2,0.25,17.733,0.1,18.2,0.4C18.667,0.667,18.733,1.2,18.4,2z M6.1,17.75
		c0.367-0.366,0.8-0.55,1.3-0.55c0.467,0,0.883,0.184,1.25,0.55S9.2,18.533,9.2,19c0,0.5-0.184,0.934-0.55,1.3
		c-0.367,0.334-0.783,0.5-1.25,0.5c-0.5,0-0.933-0.166-1.3-0.5c-0.367-0.366-0.55-0.8-0.55-1.3C5.55,18.533,5.733,18.116,6.1,17.75z
		 M15.7,17.75c0.366,0.366,0.55,0.783,0.55,1.25c0,0.5-0.184,0.934-0.55,1.3c-0.334,0.334-0.75,0.5-1.25,0.5s-0.934-0.166-1.3-0.5
		c-0.334-0.366-0.5-0.8-0.5-1.3c0-0.467,0.166-0.884,0.5-1.25c0.366-0.366,0.8-0.55,1.3-0.55S15.366,17.384,15.7,17.75z"/>
</g>
</svg>
