<?xml version="1.0" encoding="utf-8"?>
<!-- Generator: Adobe Illustrator 16.0.0, SVG Export Plug-In . SVG Version: 6.00 Build 0)  -->
<!DOCTYPE svg PUBLIC "-//W3C//DTD SVG 1.1//EN" "http://www.w3.org/Graphics/SVG/1.1/DTD/svg11.dtd">
<svg version="1.1" id="Layer_4" xmlns="http://www.w3.org/2000/svg" xmlns:xlink="http://www.w3.org/1999/xlink" x="0px" y="0px"
	 width="19px" height="21px" viewBox="0 0 19 21" enable-background="new 0 0 19 21" xml:space="preserve">
<g>
	<path fill-rule="evenodd" clip-rule="evenodd" fill="#D7C3CD" d="M15.55,6.9c2.4,1.967,3.5,3.267,3.3,3.9
		c-0.199,0.601-1,0.834-2.399,0.7L16.1,17.3c-0.133,0.8-0.566,1.184-1.3,1.15c-0.7-0.033-1.083-0.417-1.149-1.15V9.1
		c-0.2-0.167-0.934-0.717-2.2-1.65c-0.566-0.4-1.017-0.717-1.351-0.95C9.7,6.233,9.316,6.233,8.95,6.5
		c-0.367,0.233-0.833,0.55-1.4,0.95c-1.267,0.933-2,1.483-2.2,1.65v8.2c-0.033,0.733-0.417,1.117-1.15,1.15
		C3.467,18.483,3.05,18.1,2.95,17.3l-0.4-5.8c-1.367,0.134-2.167-0.1-2.4-0.7c-0.2-0.633,0.9-1.933,3.3-3.9
		C5.317,5.367,6.967,4.05,8.4,2.95c0.833-0.534,1.583-0.534,2.25,0C11.55,3.717,13.184,5.033,15.55,6.9z M9.5,10.9
		c0.5,0,0.917,0.167,1.25,0.5c0.366,0.366,0.55,0.8,0.55,1.3s-0.184,0.916-0.55,1.25C10.417,14.316,10,14.5,9.5,14.5
		s-0.933-0.184-1.3-0.55c-0.333-0.334-0.5-0.75-0.5-1.25s0.167-0.934,0.5-1.3C8.567,11.066,9,10.9,9.5,10.9z"/>
</g>
</svg>
