<?xml version="1.0" encoding="utf-8"?>
<!-- Generator: Adobe Illustrator 16.0.0, SVG Export Plug-In . SVG Version: 6.00 Build 0)  -->
<!DOCTYPE svg PUBLIC "-//W3C//DTD SVG 1.1//EN" "http://www.w3.org/Graphics/SVG/1.1/DTD/svg11.dtd">
<svg version="1.1" id="Layer_6" xmlns="http://www.w3.org/2000/svg" xmlns:xlink="http://www.w3.org/1999/xlink" x="0px" y="0px"
	 width="27px" height="25px" viewBox="0 0 27 25" enable-background="new 0 0 27 25" xml:space="preserve">
<g>
	<path fill-rule="evenodd" clip-rule="evenodd" fill="#D7C3CD" d="M21.65,12.15c-0.101,0.167-0.15,0.3-0.15,0.4
		c-0.1,0.167-0.15,0.267-0.15,0.3L21.4,12.8c0.066,0,0.133,0.034,0.199,0.1c0.7,0.267,1.233,0.933,1.601,2
		c0.1,0.366,0.184,0.733,0.25,1.1c0.066,0.634,0.017,1.2-0.15,1.7c0,0.033-0.017,0.066-0.05,0.1c-0.066,0.7-0.616,1.033-1.65,1
		c-0.1-0.033-0.25-0.05-0.449-0.05c-0.101-0.033-0.233-0.05-0.4-0.05c-0.467-0.167-0.967-0.417-1.5-0.75
		c-0.1-0.033-0.184-0.101-0.25-0.2c-0.333-0.167-0.634-0.35-0.9-0.55c-0.166-0.167-0.316-0.316-0.449-0.45
		c-0.134-0.1-0.233-0.2-0.301-0.3c0,0.066,0,0.166,0,0.3c0.067,0.3,0.117,0.65,0.15,1.05c0,0.101,0,0.2,0,0.3
		c0,0.601-0.017,1.15-0.05,1.65c-0.033,0.1-0.066,0.25-0.101,0.45c0,0.066-0.017,0.116-0.05,0.149
		c-0.467,1.167-1.149,1.551-2.05,1.15c-0.5-0.134-0.983-0.35-1.45-0.65c-0.3-0.199-0.583-0.433-0.85-0.699
		c-0.767-0.801-1.083-1.601-0.95-2.4c0-0.066,0-0.116,0-0.15c-0.033-0.033-0.133-0.066-0.3-0.1c-0.067,0-0.184-0.017-0.35-0.05
		c-0.467-0.033-1.133-0.15-2-0.351c-0.6-0.133-1.25-0.333-1.95-0.6c-0.233-0.1-0.45-0.2-0.65-0.3c-0.933-0.367-1.633-0.7-2.1-1
		C4.35,15.033,4.1,14.833,3.9,14.6c-0.5-0.533-0.533-1.083-0.1-1.649c1.167-1.467,3.35-2.083,6.55-1.85c0.2,0,0.4,0.017,0.6,0.05
		c1.533,0.3,2.816,0.617,3.85,0.95l0.05,0.05c0.2,0.067,0.367,0.133,0.5,0.2c0.167-1,0.45-2.184,0.851-3.55
		c0.1-0.167,0.184-0.35,0.25-0.55c1.333-2.867,2.899-4.467,4.7-4.8C21.884,3.317,22.366,3.6,22.6,4.3
		C22.7,4.6,22.733,4.917,22.7,5.25c0.1,0.533,0.1,1.283,0,2.25c-0.033,0.267-0.084,0.517-0.15,0.75
		C22.517,8.983,22.4,9.667,22.2,10.3C22,11.167,21.816,11.783,21.65,12.15z"/>
</g>
</svg>
