<?xml version="1.0" encoding="utf-8"?>
<!-- Generator: Adobe Illustrator 16.0.0, SVG Export Plug-In . SVG Version: 6.00 Build 0)  -->
<!DOCTYPE svg PUBLIC "-//W3C//DTD SVG 1.1//EN" "http://www.w3.org/Graphics/SVG/1.1/DTD/svg11.dtd">
<svg version="1.1" id="Layer_9" xmlns="http://www.w3.org/2000/svg" xmlns:xlink="http://www.w3.org/1999/xlink" x="0px" y="0px"
	 width="27px" height="25px" viewBox="0 0 27 25" enable-background="new 0 0 27 25" xml:space="preserve">
<g>
	<path fill-rule="evenodd" clip-rule="evenodd" fill="#D7C3CD" d="M6.8,21.5c-1.3-0.033-1.966-0.7-2-2v-3.95
		c0.034-1.3,0.7-1.967,2-2h3.4c1.3,0.033,1.966,0.7,2,2v1.601v0.75V18.3v1.2c-0.034,1.3-0.7,1.967-2,2H6.8z M17.2,5.55v1.6V7.9v0.4
		v1.2c-0.033,1.3-0.7,1.967-2,2h-3.4c-1.3-0.033-1.966-0.7-2-2V5.55c0.034-1.3,0.7-1.966,2-2h3.4C16.5,3.583,17.167,4.25,17.2,5.55z
		 M22.2,18.3v1.2c-0.033,1.3-0.7,1.967-2,2h-3.4c-1.3-0.033-1.967-0.7-2-2v-3.95c0.033-1.3,0.7-1.967,2-2h3.4
		c1.3,0.033,1.967,0.7,2,2v1.601v0.75V18.3z"/>
</g>
</svg>
