<?xml version="1.0" encoding="utf-8"?>
<!-- Generator: Adobe Illustrator 16.0.0, SVG Export Plug-In . SVG Version: 6.00 Build 0)  -->
<!DOCTYPE svg PUBLIC "-//W3C//DTD SVG 1.1//EN" "http://www.w3.org/Graphics/SVG/1.1/DTD/svg11.dtd">
<svg version="1.1" id="Layer_7" xmlns="http://www.w3.org/2000/svg" xmlns:xlink="http://www.w3.org/1999/xlink" x="0px" y="0px"
	 width="27px" height="25px" viewBox="0 0 27 25" enable-background="new 0 0 27 25" xml:space="preserve">
<g>
	<path fill-rule="evenodd" clip-rule="evenodd" fill="#D7C3CD" d="M22.4,11.15l0.399,0.1c1.533,0.7,2.334,1.866,2.4,3.5
		c0.033,0.767-0.017,1.566-0.15,2.4c-0.133,0.433-0.383,0.75-0.75,0.949c-0.666,0.2-1.033-0.216-1.1-1.25
		c-0.101-0.733-0.434-1.366-1-1.899c-0.634-0.667-1.45-1-2.45-1c-0.967,0-1.8,0.333-2.5,1c-0.467,0.467-0.75,1.033-0.85,1.7
		c-0.101,1.166-0.834,1.716-2.2,1.649h-2.35c-0.833,0.033-1.283-0.434-1.35-1.399c-0.1-0.767-0.433-1.417-1-1.95
		c-0.667-0.667-1.483-1-2.45-1c-1,0-1.833,0.333-2.5,1c-0.466,0.467-0.767,1.033-0.9,1.7c-0.033,0.1-0.05,0.199-0.05,0.3
		c0,1.066-0.317,1.5-0.95,1.3c-0.467-0.167-0.733-0.517-0.8-1.05C1.717,15.934,2.033,13.35,2.8,9.45c0.567-2.567,1.8-3.934,3.7-4.1
		h6.85c2.9,0.3,5.117,1.633,6.65,4l0.3,0.35C21,10.6,21.7,11.083,22.4,11.15z M22,17.5c0,0.267-0.033,0.533-0.1,0.8
		c-0.134,0.3-0.317,0.55-0.551,0.75c-0.433,0.434-0.966,0.65-1.6,0.65s-1.167-0.217-1.6-0.65c-0.2-0.2-0.351-0.45-0.45-0.75
		c-0.101-0.267-0.15-0.533-0.15-0.8c0-0.634,0.2-1.167,0.601-1.6c0.433-0.434,0.966-0.65,1.6-0.65s1.167,0.217,1.6,0.65
		C21.783,16.333,22,16.866,22,17.5z M11.5,6.95H9.85c-0.8,0-1.45,0.033-1.95,0.1C6.8,7.117,6.383,7.7,6.65,8.8
		c0.267,0.633,0.934,1.45,2,2.45c1.067,0.967,2.35,1.483,3.85,1.55h4.95c1.566,0.067,1.967-0.583,1.2-1.95l-0.801-1
		c-1.8-2-3.783-2.967-5.95-2.9H11.5z M7.05,15.25c0.633,0,1.167,0.217,1.6,0.65c0.434,0.433,0.65,0.966,0.65,1.6
		c0,0.267-0.05,0.533-0.15,0.8c-0.1,0.3-0.267,0.55-0.5,0.75c-0.433,0.434-0.967,0.65-1.6,0.65s-1.167-0.217-1.6-0.65
		c-0.233-0.2-0.4-0.45-0.5-0.75c-0.1-0.267-0.15-0.533-0.15-0.8c0-0.634,0.217-1.167,0.65-1.6C5.883,15.467,6.417,15.25,7.05,15.25z
		"/>
</g>
</svg>
