<?xml version="1.0" encoding="utf-8"?>
<!-- Generator: Adobe Illustrator 16.0.0, SVG Export Plug-In . SVG Version: 6.00 Build 0)  -->
<!DOCTYPE svg PUBLIC "-//W3C//DTD SVG 1.1//EN" "http://www.w3.org/Graphics/SVG/1.1/DTD/svg11.dtd">
<svg version="1.1" id="Layer_5" xmlns="http://www.w3.org/2000/svg" xmlns:xlink="http://www.w3.org/1999/xlink" x="0px" y="0px"
	 width="27px" height="25px" viewBox="0 0 27 25" enable-background="new 0 0 27 25" xml:space="preserve">
<g>
	<path fill-rule="evenodd" clip-rule="evenodd" fill="#D7C3CD" d="M22.95,8.05c0.399-0.4,0.899-0.6,1.5-0.6
		c0.6,0,1.116,0.2,1.55,0.6C26.4,8.483,26.6,9,26.6,9.6S26.4,10.717,26,11.15c-0.434,0.4-0.95,0.6-1.55,0.6
		c-0.601,0-1.101-0.2-1.5-0.6c-0.434-0.433-0.65-0.95-0.65-1.55S22.517,8.483,22.95,8.05z M23.35,13.05
		c-0.699,2.033-1.267,3.566-1.699,4.601c-0.5,1.1-1.067,2.083-1.7,2.949c-0.066,0.067-0.134,0.134-0.2,0.2
		c-0.434,0.467-0.9,0.634-1.4,0.5c-0.533-0.133-1.017-0.566-1.449-1.3v0.05c-1.467-1.866-3.101-2.383-4.9-1.55
		c-0.7,0.333-1.35,0.866-1.95,1.6c-0.633,0.7-1.167,1.101-1.6,1.2c-0.467,0.134-0.917-0.033-1.35-0.5
		c-0.067-0.066-0.117-0.133-0.15-0.2c-0.667-0.866-1.217-1.8-1.65-2.8C4.9,16.9,4.367,15.4,3.7,13.3
		c-0.2-0.566-0.133-0.917,0.2-1.05c0.1-0.033,0.567,0.3,1.4,1c0.967,0.8,1.65,1.3,2.05,1.5c1.167,0.5,2.2,0.267,3.1-0.7
		c0.066-0.066,0.133-0.133,0.2-0.2c0.767-0.866,1.5-2.433,2.2-4.7c0.367-0.8,0.733-0.8,1.1,0c0.7,2.1,1.25,3.45,1.649,4.05
		c0.167,0.233,0.367,0.45,0.601,0.649c0.3,0.334,0.684,0.601,1.149,0.801c0.9,0.366,1.784,0.3,2.65-0.2
		c0.467-0.267,1.233-0.934,2.3-2c0.4-0.4,0.717-0.534,0.95-0.4C23.483,12.15,23.517,12.483,23.35,13.05z M13.45,3.7
		c0.6,0,1.116,0.2,1.55,0.6c0.4,0.434,0.6,0.95,0.6,1.55S15.4,6.967,15,7.4C14.566,7.8,14.05,8,13.45,8c-0.6,0-1.1-0.2-1.5-0.6
		c-0.434-0.433-0.65-0.95-0.65-1.55s0.217-1.117,0.65-1.55C12.35,3.9,12.85,3.7,13.45,3.7z M4.75,9.6c0,0.6-0.2,1.117-0.6,1.55
		c-0.433,0.4-0.95,0.6-1.55,0.6s-1.1-0.2-1.5-0.6C0.667,10.717,0.45,10.2,0.45,9.6S0.667,8.483,1.1,8.05c0.4-0.4,0.9-0.6,1.5-0.6
		s1.117,0.2,1.55,0.6C4.55,8.483,4.75,9,4.75,9.6z"/>
</g>
</svg>
