<?xml version="1.0" encoding="utf-8"?>
<!-- Generator: Adobe Illustrator 16.0.0, SVG Export Plug-In . SVG Version: 6.00 Build 0)  -->
<!DOCTYPE svg PUBLIC "-//W3C//DTD SVG 1.1//EN" "http://www.w3.org/Graphics/SVG/1.1/DTD/svg11.dtd">
<svg version="1.1" id="Layer_4" xmlns="http://www.w3.org/2000/svg" xmlns:xlink="http://www.w3.org/1999/xlink" x="0px" y="0px"
	 width="27px" height="25px" viewBox="0 0 27 25" enable-background="new 0 0 27 25" xml:space="preserve">
<g>
	<path fill-rule="evenodd" clip-rule="evenodd" fill="#D7C3CD" d="M20.3,19.9c-0.2,0.233-0.399,0.35-0.6,0.35h-1.4l-0.7,3.65
		c-0.133,0.533-0.5,0.8-1.1,0.8c-0.566-0.033-0.95-0.3-1.15-0.8L14.2,20.25h-1.3l-1.15,3.65c-0.133,0.466-0.483,0.699-1.05,0.699
		c-0.567,0-0.95-0.233-1.15-0.699l-0.9-3.65H7.3c-0.167,0-0.3-0.017-0.4-0.05c-0.167-0.101-0.25-0.233-0.25-0.4
		c-0.066-0.133-0.066-0.283,0-0.45l1.2-2.85L8,16l-0.4,0.2c-0.934,0.3-1.667,0.434-2.2,0.399c-0.733-0.066-1.167-0.366-1.3-0.899
		C3.633,14.5,4.4,13.6,6.4,13C6,11.267,5.933,9.467,6.2,7.6c0.333-1.867,0.85-3.267,1.55-4.2C8.417,2.5,9.167,1.767,10,1.2
		c0.8-0.6,1.917-0.9,3.35-0.9c0.101,0,0.233,0,0.4,0c1.667,0,3.1,0.617,4.3,1.85c0.267,0.233,0.517,0.5,0.75,0.8
		c2.033,2.533,2.667,5.966,1.9,10.3c2.3,0.733,2.95,1.75,1.95,3.05c-0.267,0.167-0.617,0.267-1.051,0.3
		c-0.5,0.034-1.233-0.1-2.199-0.399h0.1l-0.65-0.25l1.5,3.05C20.517,19.333,20.5,19.634,20.3,19.9z M10.35,7.9
		c-0.167-0.2-0.25-0.417-0.25-0.65c0-0.3,0.083-0.55,0.25-0.75c0.233-0.167,0.483-0.25,0.75-0.25s0.483,0.083,0.65,0.25
		c0.2,0.2,0.3,0.45,0.3,0.75c0,0.233-0.1,0.45-0.3,0.65c-0.167,0.2-0.383,0.3-0.65,0.3S10.583,8.1,10.35,7.9z M18.6,6.4
		c-2.399-1.3-4.1-2.583-5.1-3.85c-1,1.267-2.667,2.55-5,3.85v0.05c0,1.333,0.483,2.483,1.45,3.45c0.066,0.067,0.15,0.133,0.25,0.2
		c2.167,1.967,4.416,1.967,6.75,0c0.066-0.067,0.133-0.133,0.2-0.2C18.116,8.933,18.6,7.783,18.6,6.45V6.4z M17.05,7.25
		c0,0.233-0.1,0.45-0.3,0.65c-0.167,0.2-0.384,0.3-0.65,0.3s-0.517-0.1-0.75-0.3c-0.166-0.2-0.25-0.417-0.25-0.65
		c0-0.3,0.084-0.55,0.25-0.75c0.233-0.167,0.483-0.25,0.75-0.25s0.483,0.083,0.65,0.25C16.95,6.7,17.05,6.95,17.05,7.25z M13.8,12.6
		h-0.05c-0.167,0-0.3,0-0.4,0c-0.866,0-1.616-0.133-2.25-0.4l-1.55,3.95c2.633,1.199,5.3,1.199,8,0l-1.6-3.95
		C15.25,12.467,14.533,12.6,13.8,12.6z"/>
</g>
</svg>
