<?xml version="1.0" encoding="utf-8"?>
<!-- Generator: Adobe Illustrator 16.0.0, SVG Export Plug-In . SVG Version: 6.00 Build 0)  -->
<!DOCTYPE svg PUBLIC "-//W3C//DTD SVG 1.1//EN" "http://www.w3.org/Graphics/SVG/1.1/DTD/svg11.dtd">
<svg version="1.1" id="Layer_8" xmlns="http://www.w3.org/2000/svg" xmlns:xlink="http://www.w3.org/1999/xlink" x="0px" y="0px"
	 width="27px" height="25px" viewBox="0 0 27 25" enable-background="new 0 0 27 25" xml:space="preserve">
<g>
	<path fill-rule="evenodd" clip-rule="evenodd" fill="#D7C3CD" d="M18.85,3.9c1.5,1.5,2.25,3.3,2.25,5.4c0,2.1-0.783,4.601-2.35,7.5
		c-1.566,2.867-3.35,5.05-5.35,6.55c-2.2-1.666-3.984-3.899-5.351-6.699C6.617,13.85,5.9,11.4,5.9,9.3c0-2.1,0.733-3.9,2.2-5.4
		c1.5-1.467,3.3-2.2,5.4-2.2C15.6,1.7,17.384,2.433,18.85,3.9z M17,6.3c-0.967-0.966-2.15-1.45-3.55-1.45
		c-1.367,0-2.534,0.483-3.5,1.45C8.983,7.3,8.5,8.5,8.5,9.9c0,1.367,0.483,2.533,1.45,3.5c0.966,0.966,2.133,1.449,3.5,1.449
		c1.399,0,2.583-0.483,3.55-1.449c0.967-0.967,1.45-2.134,1.45-3.5C18.45,8.5,17.967,7.3,17,6.3z"/>
</g>
</svg>
