<?xml version="1.0" encoding="utf-8"?>
<!-- Generator: Adobe Illustrator 16.0.0, SVG Export Plug-In . SVG Version: 6.00 Build 0)  -->
<!DOCTYPE svg PUBLIC "-//W3C//DTD SVG 1.1//EN" "http://www.w3.org/Graphics/SVG/1.1/DTD/svg11.dtd">
<svg version="1.1" id="Layer_2" xmlns="http://www.w3.org/2000/svg" xmlns:xlink="http://www.w3.org/1999/xlink" x="0px" y="0px"
	 width="27px" height="25px" viewBox="0 0 27 25" enable-background="new 0 0 27 25" xml:space="preserve">
<g>
	<path fill-rule="evenodd" clip-rule="evenodd" fill="#D7C3CD" d="M23.9,18.45c-0.233,0.6-0.584,1.133-1.051,1.6
		c-0.866,0.867-1.916,1.3-3.149,1.3s-2.283-0.433-3.15-1.3c-0.8-0.8-1.233-1.767-1.3-2.899c0-0.034,0-0.067,0-0.101
		c0-0.066,0-0.116,0-0.149c0-0.467,0.066-0.9,0.2-1.301v-0.05c0.133-0.366,0.267-0.666,0.399-0.899c0.2-0.334,0.434-0.634,0.7-0.9
		c0.867-0.867,1.917-1.3,3.15-1.3s2.283,0.433,3.149,1.3c0.867,0.866,1.301,1.917,1.301,3.15C24.15,17.467,24.066,17.983,23.9,18.45
		z M21.35,16.95c0-0.467-0.166-0.867-0.5-1.2c-0.333-0.333-0.733-0.5-1.199-0.5c-0.467,0-0.867,0.167-1.2,0.5
		c-0.334,0.333-0.5,0.733-0.5,1.2s0.166,0.866,0.5,1.2c0.333,0.333,0.733,0.5,1.2,0.5c0.466,0,0.866-0.167,1.199-0.5
		C21.184,17.816,21.35,17.417,21.35,16.95z M19.45,5.9l-1.2,1.95l-8,12.6C9.717,21.283,9.1,21.467,8.4,21
		c-0.7-0.366-0.833-0.934-0.4-1.7l6.6-11.45l1.5-2.65c1-1.467,2.051-1.867,3.15-1.2C19.75,4.367,19.816,5,19.45,5.9z M11.75,8.45
		c0,0.566-0.083,1.083-0.25,1.55c-0.233,0.6-0.583,1.133-1.05,1.6c-0.867,0.867-1.917,1.3-3.15,1.3c-1.233,0-2.283-0.433-3.15-1.3
		c-0.8-0.8-1.233-1.767-1.3-2.9c0-0.034,0-0.067,0-0.1c0-0.067,0-0.117,0-0.15c0-0.467,0.066-0.9,0.2-1.3V7.1
		c0.133-0.367,0.267-0.667,0.4-0.9c0.2-0.333,0.433-0.633,0.7-0.9C5.017,4.433,6.067,4,7.3,4c1.233,0,2.284,0.433,3.15,1.3
		S11.75,7.217,11.75,8.45z M7.25,10.15c0.467,0,0.867-0.167,1.2-0.5c0.333-0.333,0.5-0.733,0.5-1.2c0-0.467-0.167-0.867-0.5-1.2
		c-0.333-0.333-0.733-0.5-1.2-0.5s-0.867,0.167-1.2,0.5c-0.333,0.333-0.5,0.733-0.5,1.2c0,0.466,0.167,0.867,0.5,1.2
		C6.383,9.983,6.783,10.15,7.25,10.15z"/>
</g>
</svg>
