<?xml version="1.0" encoding="utf-8"?>
<!-- Generator: Adobe Illustrator 16.0.0, SVG Export Plug-In . SVG Version: 6.00 Build 0)  -->
<!DOCTYPE svg PUBLIC "-//W3C//DTD SVG 1.1//EN" "http://www.w3.org/Graphics/SVG/1.1/DTD/svg11.dtd">
<svg version="1.1" id="Layer_3" xmlns="http://www.w3.org/2000/svg" xmlns:xlink="http://www.w3.org/1999/xlink" x="0px" y="0px"
	 width="27px" height="25px" viewBox="0 0 27 25" enable-background="new 0 0 27 25" xml:space="preserve">
<g>
	<path fill-rule="evenodd" clip-rule="evenodd" fill="#D7C3CD" d="M23.5,9.7c0.167,0.233,0.25,0.533,0.25,0.9s-0.15,0.683-0.45,0.95
		h0.05L19.5,15.3l0.9,5.5c0.033,0.334-0.017,0.667-0.15,1c-0.167,0.334-0.45,0.533-0.85,0.601c-0.367,0.1-0.684,0.066-0.95-0.101
		H18.4L13.6,19.6L8.7,22.3H8.65c-0.333,0.134-0.633,0.167-0.9,0.101c-0.4-0.067-0.7-0.25-0.9-0.551L6.8,21.8
		c-0.133-0.333-0.183-0.666-0.15-1l0.95-5.5l-3.9-3.8c-0.2-0.233-0.333-0.5-0.4-0.8c0-0.034,0-0.067,0-0.1
		c0-0.333,0.1-0.617,0.3-0.85c0.233-0.333,0.533-0.533,0.9-0.6L9.9,8.4l2.4-4.95c0.133-0.333,0.383-0.583,0.75-0.75h0.05
		c0.334-0.133,0.634-0.133,0.9,0c0.4,0.133,0.667,0.383,0.8,0.75l2.4,4.95l5.45,0.75C22.95,9.183,23.233,9.367,23.5,9.7z
		 M13.55,7.15c-0.566,3.133-2.517,4.6-5.85,4.4c2.3,1.634,3.033,3.934,2.2,6.9c2.5-1.767,4.933-1.767,7.3,0
		c-1-3.033-0.267-5.334,2.2-6.9C16.066,11.517,14.116,10.05,13.55,7.15z"/>
</g>
</svg>
